<?xml version="1.0" encoding="UTF-8"?>
<svg xmlns="http://www.w3.org/2000/svg" version="1.1" xmlns:xlink="http://www.w3.org/1999/xlink" viewBox="0 0 214.32 218.84">
  <!-- Generator: Adobe Illustrator 29.3.1, SVG Export Plug-In . SVG Version: 2.1.0 Build 151)  -->
  <defs>
    <style>
      .st0 {
        fill: url(#linear-gradient2);
      }

      .st1 {
        fill: url(#linear-gradient10);
      }

      .st2 {
        filter: url(#drop-shadow-6);
      }

      .st3 {
        fill: url(#linear-gradient21);
      }

      .st4 {
        fill: #d7e8ef;
      }

      .st4, .st5 {
        mix-blend-mode: multiply;
      }

      .st6 {
        filter: url(#drop-shadow-5);
      }

      .st7 {
        fill: url(#linear-gradient1);
      }

      .st8 {
        fill: #218c8a;
      }

      .st9 {
        fill: url(#linear-gradient9);
      }

      .st10 {
        fill: url(#linear-gradient18);
      }

      .st11 {
        fill: url(#linear-gradient23);
      }

      .st12 {
        fill: url(#linear-gradient8);
      }

      .st13 {
        fill: url(#linear-gradient11);
      }

      .st14 {
        fill: url(#radial-gradient);
      }

      .st15 {
        filter: url(#drop-shadow-7);
      }

      .st16 {
        fill: url(#linear-gradient16);
      }

      .st17 {
        fill: url(#linear-gradient24);
      }

      .st18 {
        fill: url(#radial-gradient1);
      }

      .st19 {
        fill: url(#linear-gradient22);
      }

      .st20 {
        isolation: isolate;
      }

      .st21 {
        fill: url(#linear-gradient19);
      }

      .st22 {
        fill: url(#linear-gradient12);
      }

      .st23 {
        fill: #dba440;
      }

      .st24 {
        fill: url(#linear-gradient7);
      }

      .st25 {
        fill: url(#linear-gradient20);
      }

      .st26 {
        fill: url(#linear-gradient4);
      }

      .st27 {
        fill: #57a09d;
      }

      .st28 {
        fill: url(#linear-gradient14);
      }

      .st29 {
        fill: url(#linear-gradient5);
      }

      .st30 {
        fill: url(#linear-gradient3);
      }

      .st31 {
        fill: url(#radial-gradient3);
        filter: url(#drop-shadow-8);
      }

      .st32 {
        fill: url(#linear-gradient15);
      }

      .st33 {
        fill: url(#linear-gradient17);
      }

      .st34 {
        fill: url(#radial-gradient2);
      }

      .st5 {
        fill: #bdd3dd;
      }

      .st35 {
        fill: url(#linear-gradient6);
      }

      .st36 {
        fill: url(#linear-gradient13);
      }

      .st37 {
        fill: url(#linear-gradient);
      }
    </style>
    <filter id="drop-shadow-1" x="-293.28" y="-17.89" width="296" height="307" filterUnits="userSpaceOnUse">
      <feOffset dx="0" dy="0"/>
      <feGaussianBlur result="blur" stdDeviation="11.46"/>
      <feFlood flood-color="#000" flood-opacity=".75"/>
      <feComposite in2="blur" operator="in"/>
      <feComposite in="SourceGraphic"/>
    </filter>
    <filter id="drop-shadow-5" x="-9.31" y="-11.83" width="234" height="243" filterUnits="userSpaceOnUse">
      <feOffset dx="0" dy="0"/>
      <feGaussianBlur result="blur1" stdDeviation="9.06"/>
      <feFlood flood-color="#000" flood-opacity=".75"/>
      <feComposite in2="blur1" operator="in"/>
      <feComposite in="SourceGraphic"/>
    </filter>
    <radialGradient id="radial-gradient" cx="107.16" cy="109.42" fx="107.16" fy="109.42" r="91.17" gradientUnits="userSpaceOnUse">
      <stop offset="0" stop-color="#008275"/>
      <stop offset=".28" stop-color="#006e58"/>
      <stop offset=".76" stop-color="#00502e"/>
      <stop offset="1" stop-color="#00451e"/>
    </radialGradient>
    <filter id="drop-shadow-6" x="14.75" y="12.23" width="186" height="195" filterUnits="userSpaceOnUse">
      <feOffset dx="0" dy="0"/>
      <feGaussianBlur result="blur2" stdDeviation="4.04"/>
      <feFlood flood-color="#000" flood-opacity=".75"/>
      <feComposite in2="blur2" operator="in"/>
      <feComposite in="SourceGraphic"/>
    </filter>
    <radialGradient id="radial-gradient1" r="81.92" xlink:href="#radial-gradient"/>
    <linearGradient id="linear-gradient" x1="-94.14" y1="128.62" x2="63.89" y2="128.62" gradientUnits="userSpaceOnUse">
      <stop offset=".15" stop-color="#b46d11"/>
      <stop offset=".42" stop-color="#c5862d"/>
      <stop offset=".71" stop-color="#dda853"/>
      <stop offset=".81" stop-color="#e6ba6b"/>
      <stop offset="1" stop-color="#fde7a4"/>
    </linearGradient>
    <linearGradient id="linear-gradient1" x1="-94.05" y1="90.13" x2="63.98" y2="90.13" xlink:href="#linear-gradient"/>
    <linearGradient id="linear-gradient2" x1="98.18" y1="60.75" x2="256.21" y2="60.75" xlink:href="#linear-gradient"/>
    <linearGradient id="linear-gradient3" x1="147.43" y1="90.21" x2="305.45" y2="90.21" xlink:href="#linear-gradient"/>
    <linearGradient id="linear-gradient4" x1="-44.86" y1="158.1" x2="113.17" y2="158.1" xlink:href="#linear-gradient"/>
    <linearGradient id="linear-gradient5" x1="-44.71" y1="60.68" x2="113.32" y2="60.68" xlink:href="#linear-gradient"/>
    <linearGradient id="linear-gradient6" x1="98.03" y1="158.14" x2="256.05" y2="158.14" xlink:href="#linear-gradient"/>
    <linearGradient id="linear-gradient7" x1="147.34" y1="128.72" x2="305.36" y2="128.72" xlink:href="#linear-gradient"/>
    <linearGradient id="linear-gradient8" x1="26.74" y1="43.31" x2="184.77" y2="43.31" xlink:href="#linear-gradient"/>
    <linearGradient id="linear-gradient9" x1="26.54" y1="175.55" x2="184.57" y2="175.55" xlink:href="#linear-gradient"/>
    <linearGradient id="linear-gradient10" x1="-55.19" y1="-171.84" x2="263.24" y2="379.7" xlink:href="#linear-gradient"/>
    <filter id="drop-shadow-7" x="34.75" y="33.23" width="146" height="153" filterUnits="userSpaceOnUse">
      <feOffset dx="0" dy="0"/>
      <feGaussianBlur result="blur3" stdDeviation="4.04"/>
      <feFlood flood-color="#000" flood-opacity=".75"/>
      <feComposite in2="blur3" operator="in"/>
      <feComposite in="SourceGraphic"/>
    </filter>
    <radialGradient id="radial-gradient2" cx="107.32" cy="109.32" fx="107.32" fy="109.32" r="61.44" gradientUnits="userSpaceOnUse">
      <stop offset="0" stop-color="#006942"/>
      <stop offset=".06" stop-color="#00643d"/>
      <stop offset=".68" stop-color="#003a13"/>
      <stop offset="1" stop-color="#002a03"/>
    </radialGradient>
    <linearGradient id="linear-gradient11" x1="53.77" y1="103.99" x2="160.9" y2="103.99" xlink:href="#linear-gradient"/>
    <linearGradient id="linear-gradient12" x1="53.74" y1="114.62" x2="160.87" y2="114.62" xlink:href="#linear-gradient"/>
    <linearGradient id="linear-gradient13" x1="53.67" y1="109.34" x2="160.97" y2="109.34" xlink:href="#linear-gradient"/>
    <linearGradient id="linear-gradient14" x1="84.18" y1="100.92" x2="101.99" y2="100.92" xlink:href="#linear-gradient"/>
    <linearGradient id="linear-gradient15" x1="112.65" y1="106.13" x2="135.79" y2="106.13" xlink:href="#linear-gradient"/>
    <linearGradient id="linear-gradient16" x1="92.83" y1="127.85" x2="112.98" y2="127.85" xlink:href="#linear-gradient"/>
    <linearGradient id="linear-gradient17" x1="101.66" y1="127.85" x2="121.81" y2="127.85" xlink:href="#linear-gradient"/>
    <linearGradient id="linear-gradient18" x1="101.66" y1="95.85" x2="127.17" y2="95.85" xlink:href="#linear-gradient"/>
    <linearGradient id="linear-gradient19" x1="78.85" y1="109.32" x2="93.7" y2="109.32" xlink:href="#linear-gradient"/>
    <linearGradient id="linear-gradient20" x1="84.18" y1="117.71" x2="101.99" y2="117.71" xlink:href="#linear-gradient"/>
    <linearGradient id="linear-gradient21" x1="92.83" y1="90.78" x2="112.98" y2="90.78" xlink:href="#linear-gradient"/>
    <linearGradient id="linear-gradient22" x1="112.65" y1="117.71" x2="130.46" y2="117.71" xlink:href="#linear-gradient"/>
    <radialGradient id="radial-gradient3" cx="107.16" cy="109.42" fx="107.16" fy="109.42" r="31.13" xlink:href="#radial-gradient"/>
    <filter id="drop-shadow-8" x="51.63" y="53.11" width="111" height="113" filterUnits="userSpaceOnUse">
      <feOffset dx="0" dy="0"/>
      <feGaussianBlur result="blur4" stdDeviation="8.08"/>
      <feFlood flood-color="#000" flood-opacity=".75"/>
      <feComposite in2="blur4" operator="in"/>
      <feComposite in="SourceGraphic"/>
    </filter>
    <linearGradient id="linear-gradient23" x1="96.68" y1="91.24" x2="117.66" y2="127.59" xlink:href="#linear-gradient"/>
    <linearGradient id="linear-gradient24" x1="105.32" y1="106.24" x2="109" y2="112.61" xlink:href="#linear-gradient"/>
  </defs>
  <g class="st20">
    <g id="Layer_1">
      <g>
        <g class="st6">
          <polygon class="st14" points="186.63 109.48 196.03 80.55 171.53 62.75 162.22 33.93 131.8 33.88 107.19 16 82.68 33.8 52.39 33.76 42.95 62.67 18.34 80.55 27.7 109.36 18.29 138.15 42.87 156.07 52.27 185 82.56 185 107.04 202.84 131.68 185 162.1 185 171.45 156.19 195.99 138.43 186.63 109.48"/>
          <path class="st27" d="M107.04,203.21l-.18-.13-24.4-17.78h-30.41l-.07-.21-9.37-28.84-24.68-17.99.07-.21,9.37-28.7-9.4-28.92.18-.13,24.53-17.82,9.48-29.03h.22s30.19.05,30.19.05l24.6-17.87,24.71,17.95,30.54.05,9.35,28.94,24.6,17.87-9.44,29.05,9.39,29.06-.18.13-24.45,17.71-9.4,28.92h-30.54l-24.74,17.91ZM52.49,184.7h30.17l.08.06,24.3,17.71,24.54-17.77h30.3l9.32-28.69,24.43-17.69-9.32-28.83.03-.09,9.33-28.72-24.41-17.73-.03-.09-9.25-28.61-30.3-.05-.08-.06-24.43-17.75-24.41,17.73h-.1l-30.07-.05-9.41,28.8-.08.06-24.43,17.75,9.32,28.69-.03.09-9.34,28.58,24.48,17.85.03.09,9.33,28.72Z"/>
        </g>
        <g class="st2">
          <polygon class="st18" points="178.57 109.48 187.01 83.48 165 67.49 156.63 41.59 129.3 41.55 107.18 25.48 85.17 41.48 57.95 41.44 49.47 67.42 27.35 83.48 35.76 109.36 27.31 135.23 49.4 151.33 57.85 177.33 85.06 177.33 107.05 193.36 129.19 177.33 156.52 177.33 164.93 151.45 186.97 135.49 178.57 109.48"/>
          <path class="st27" d="M107.05,193.61l-.12-.09-21.94-15.99h-27.29l-.05-.14-8.42-25.93-22.15-16.15.04-.14,8.43-25.81-8.44-25.96.12-.09,22.06-16.03,8.51-26.06h.15l27.15.04,22.08-16.04.12.09,22.06,16.03,27.41.04.05.14,8.35,25.83,22.08,16.04-.04.14-8.43,25.93,8.43,26.08-.12.09-21.99,15.92-8.44,25.96h-27.41l-22.2,16.08ZM57.99,177.13h27.13l.05.04,21.87,15.94,22.07-15.98h27.25l8.38-25.8.05-.04,21.92-15.87-8.38-25.93.02-.06,8.4-25.86-21.95-15.95-.02-.06-8.32-25.76-27.25-.04-.05-.04-21.99-15.98-21.95,15.95h-.07l-27.07-.04-8.46,25.9-.05.04-21.99,15.98,8.38,25.81-.02.06-8.41,25.73,22.02,16.05.02.06,8.4,25.85Z"/>
        </g>
        <g>
          <polygon class="st37" points="41.84 130.54 48.1 111.38 42.31 111.38 36.61 128.83 35.37 132.63 38.6 134.98 53.52 145.86 58.2 142.47 41.84 130.54"/>
          <polygon class="st7" points="42.31 107.36 48.1 107.37 41.87 88.2 58.26 76.3 53.58 72.89 38.64 83.75 35.4 86.1 36.64 89.9 42.31 107.36"/>
          <polygon class="st0" points="153.83 73.11 158.51 69.71 152.86 52.24 151.63 48.44 147.64 48.43 129.17 48.4 127.38 53.9 147.63 53.93 153.83 73.11"/>
          <polygon class="st30" points="172.49 88.2 166.23 107.46 172.01 107.47 177.72 89.9 178.95 86.1 175.72 83.75 160.87 72.96 156.18 76.36 172.49 88.2"/>
          <polygon class="st26" points="60.56 145.71 55.88 149.11 61.58 166.67 62.82 170.48 85.18 170.48 86.97 164.97 66.82 164.97 60.56 145.71"/>
          <polygon class="st29" points="66.91 48.3 62.92 48.3 61.68 52.1 55.94 69.65 60.62 73.05 66.91 53.8 87.06 53.84 85.28 48.33 66.91 48.3"/>
          <polygon class="st35" points="147.54 164.97 127.29 164.97 129.07 170.48 151.54 170.48 152.77 166.67 158.45 149.21 153.77 145.81 147.54 164.97"/>
          <polygon class="st24" points="172.01 111.48 166.22 111.47 172.45 130.74 156.13 142.56 160.81 145.97 175.68 135.2 178.92 132.86 177.69 129.05 172.01 111.48"/>
          <polygon class="st12" points="107.18 33.95 103.95 36.3 89.09 47.09 90.87 52.6 107.18 40.75 123.56 52.66 125.36 47.16 110.41 36.3 107.18 33.95"/>
          <polygon class="st9" points="107.07 178.09 90.78 166.22 88.99 171.72 103.83 182.53 107.06 184.89 110.3 182.54 125.26 171.71 123.47 166.21 107.07 178.09"/>
        </g>
        <path class="st1" d="M45.87,112.99h-2.39s-6.21,19.02-6.21,19.02l16.26,11.85,1.93-1.4-15.52-11.31,5.93-18.16ZM37.3,86.72l6.18,19.03h2.39s-5.9-18.17-5.9-18.17l15.54-11.29-1.93-1.41-16.28,11.83ZM130.34,50.02l-.74,2.27,19.2.03,5.87,18.18,1.93-1.4-6.15-19.04-20.12-.03ZM168.45,105.85h2.39s6.22-19.13,6.22-19.13l-16.19-11.76-1.93,1.4,15.45,11.23-5.93,18.26ZM59.71,148.33l-1.93,1.4,6.22,19.13h20.01l.74-2.27h-19.1l-5.93-18.26ZM64.09,49.91l-6.25,19.12,1.93,1.41,5.96-18.25,19.1.03-.74-2.27-20.01-.03ZM148.71,166.59h-19.2l.74,2.27h20.12l6.18-19.03-1.93-1.41-5.9,18.17ZM168.44,113.09l5.91,18.27-15.47,11.2,1.93,1.41,16.21-11.74-6.19-19.14h-2.39ZM90.99,47.71l.74,2.27,15.45-11.23,15.54,11.29.74-2.27-16.28-11.83-16.19,11.76ZM107.07,180.09l-15.44-11.25-.74,2.27,16.17,11.79,16.3-11.8-.74-2.27-15.55,11.26Z"/>
        <g class="st15">
          <polygon class="st34" points="160.87 109.36 167.21 89.86 150.69 77.87 144.42 58.45 123.92 58.41 107.34 46.36 90.82 58.36 70.41 58.33 64.05 77.81 47.47 89.86 53.77 109.27 47.43 128.67 64 140.75 70.33 160.24 90.74 160.24 107.24 172.27 123.84 160.24 144.34 160.24 150.64 140.83 167.18 128.86 160.87 109.36"/>
          <path class="st8" d="M107.24,172.52l-.12-.09-16.44-11.98h-20.49l-.05-.14-6.31-19.43-16.63-12.12.04-.14,6.32-19.34-6.33-19.49.12-.09,16.53-12.01,6.39-19.56h.15l20.35.03,16.58-12.04.12.09,16.53,12.01,20.58.03.05.14,6.26,19.36,16.58,12.04-.04.14-6.31,19.43,6.33,19.58-.12.09-16.48,11.93-6.33,19.49h-20.58l-16.67,12.07ZM70.48,160.04h20.33l.05.04,16.38,11.94,16.54-11.97h20.42l6.28-19.33.05-.04,16.41-11.88-6.28-19.43.02-.06,6.29-19.36-16.45-11.95-.02-.06-6.23-19.28-20.42-.03-.05-.04-16.47-11.96-16.44,11.95h-.07l-20.26-.03-6.34,19.41-.05.04-16.46,11.96,6.28,19.33-.02.06-6.29,19.26,16.5,12.03.02.06,6.29,19.36Z"/>
        </g>
        <g>
          <g>
            <path class="st13" d="M140.14,154.95h-65.62c-.21,0-.39-.13-.45-.33l-20.28-62.41c-.06-.2,0-.41.17-.54l53.09-38.57c.17-.12.39-.12.56,0l53.09,38.57c.17.12.24.34.17.54l-20.28,62.41c-.06.2-.25.33-.45.33ZM74.87,153.99h64.92l20.06-61.74-52.52-38.16-52.52,38.16,20.06,61.74Z"/>
            <path class="st22" d="M107.24,165.61c-.1,0-.2-.03-.28-.09l-53.02-38.65c-.17-.12-.24-.34-.17-.54l20.38-62.37c.06-.2.25-.33.45-.33h0l65.62.1c.21,0,.39.13.45.33l20.18,62.44c.06.2,0,.41-.17.53l-53.15,38.48c-.08.06-.18.09-.28.09ZM54.78,126.3l52.46,38.24,52.58-38.08-19.96-61.77-64.92-.1-20.16,61.71Z"/>
          </g>
          <path class="st36" d="M107.32,165.7c-.25,0-.47-.17-.54-.41l-8.39-28.48-23.53,18.11c-.2.15-.47.16-.68,0-.2-.15-.29-.41-.2-.65l9.95-27.97-29.68.82c-.25.04-.48-.15-.55-.39-.08-.24.01-.5.22-.64l24.5-16.78-24.5-16.78c-.21-.14-.3-.4-.22-.64.08-.24.29-.38.55-.39l29.68.82-9.95-27.97c-.08-.24,0-.5.2-.65.2-.15.48-.15.68,0l23.53,18.11,8.39-28.48c.14-.48.94-.48,1.09,0l8.39,28.48,23.53-18.11c.2-.15.47-.16.68,0,.2.15.29.41.2.65l-9.95,27.97,29.68-.82c.3.03.48.15.55.39.08.24-.01.5-.22.64l-24.5,16.78,24.5,16.78c.21.14.3.4.22.64-.07.24-.26.42-.55.39l-29.68-.82,9.95,27.97c.08.24,0,.5-.2.65-.21.15-.48.14-.68,0l-23.53-18.11-8.39,28.48c-.07.24-.29.41-.54.41ZM98.7,135.29c.06,0,.12,0,.18.03.18.06.32.2.37.38l8.08,27.43,8.08-27.43c.05-.18.19-.32.37-.38.18-.06.37-.02.52.09l22.66,17.44-9.58-26.94c-.06-.18-.03-.37.08-.52.11-.15.25-.25.47-.23l28.59.79-23.59-16.16c-.15-.11-.25-.28-.25-.47s.09-.36.25-.47l23.59-16.16-28.59.79c-.22,0-.36-.08-.47-.23-.11-.15-.14-.35-.08-.52l9.58-26.94-22.66,17.44c-.15.11-.34.15-.52.09-.18-.06-.32-.2-.37-.38l-8.08-27.43-8.08,27.43c-.05.18-.19.32-.37.38-.18.06-.37.02-.52-.09l-22.66-17.44,9.58,26.94c.06.18.03.37-.08.52-.11.15-.3.23-.47.23l-28.59-.79,23.59,16.16c.15.11.25.28.25.47s-.09.36-.25.47l-23.59,16.16,28.59-.79c.18-.01.36.08.47.23.11.15.14.35.08.52l-9.58,26.94,22.66-17.44c.1-.08.22-.12.35-.12Z"/>
          <path class="st28" d="M89.54,109.49l-5.33-16.41c-.06-.17-.03-.36.08-.51.11-.15.28-.23.46-.23h17.25v1.13h-16.47l5.09,15.66-1.07.35Z"/>
          <path class="st32" d="M121.61,119.91l-.66-.92,13.32-9.68-7.99-5.81c-.2-.14-.28-.4-.21-.63l3.05-9.4h-16.47v-1.13h17.25c.18,0,.35.09.46.23.11.15.14.34.08.51l-3.17,9.75,8.29,6.02c.15.11.23.28.23.46s-.09.35-.23.46l-13.95,10.14Z"/>
          <path class="st16" d="M98.7,136.42c-.06,0-.12,0-.18-.03-.17-.06-.31-.19-.36-.36l-5.33-16.4,1.08-.35,5.09,15.66,13.32-9.68.66.92-13.95,10.14c-.1.07-.21.11-.33.11Z"/>
          <path class="st33" d="M115.94,136.42c-.12,0-.23-.04-.33-.11l-13.95-10.14.66-.92,13.32,9.68,5.09-15.66,1.08.35-5.33,16.4c-.05.17-.19.31-.36.36-.06.02-.12.03-.18.03Z"/>
          <path class="st10" d="M125.1,109.49l-1.08-.35,1.91-5.87-5-3.63c-.1-.07-.17-.17-.21-.28l-5.09-15.66-13.32,9.68-.66-.92,13.95-10.14c.15-.11.34-.14.51-.08.17.06.31.19.36.36l5.28,16.23,5.18,3.76c.2.14.28.4.21.63l-2.04,6.26Z"/>
          <path class="st21" d="M93.03,119.91l-13.95-10.14c-.15-.11-.23-.28-.23-.46s.09-.35.23-.46l13.95-10.14.66.92-13.32,9.68,13.32,9.68-.66.92Z"/>
          <path class="st25" d="M101.99,126.29h-17.25c-.18,0-.35-.09-.46-.23-.11-.15-.14-.34-.08-.51l5.33-16.41,1.07.35-5.09,15.66h16.47v1.13Z"/>
          <path class="st3" d="M93.91,99.36l-1.08-.35,5.33-16.4c.06-.17.19-.31.36-.36.17-.06.36-.03.51.08l13.95,10.14-.66.92-13.32-9.68-5.09,15.66Z"/>
          <path class="st19" d="M129.9,126.29h-17.25v-1.13h16.47l-5.09-15.66,1.08-.35,5.33,16.41c.05.17.03.36-.08.51-.11.15-.28.23-.46.23Z"/>
        </g>
        <path class="st31" d="M137.51,99.57l-8.37-6.08-3.18-9.84-10.38-.02-8.4-6.1-8.37,6.07-10.34-.02-3.23,9.88-8.4,6.11,3.19,9.83-3.21,9.82,8.39,6.13,3.21,9.88h10.34l8.36,6.09,8.41-6.09h10.39l3.19-9.84,8.37-6.06-3.19-9.88,3.21-9.88Z"/>
        <path class="st5" d="M90.73,122.22l-1.65,1.2,2.01,6.19.44,1.34h7.88l.63-1.94h-7.11l-2.21-6.79ZM84.29,108.7h2.04s-2.2-6.76-2.2-6.76l5.78-4.2-1.65-1.2-5.27,3.83-1.14.83.44,1.34,2,6.16ZM123.62,96.62l1.65-1.2-1.99-6.16-.43-1.34h-1.41s-6.51-.01-6.51-.01l-.63,1.94h7.14s2.19,6.77,2.19,6.77ZM130.2,101.94l-2.21,6.79h2.04s2.01-6.19,2.01-6.19l.44-1.34-1.14-.83-5.24-3.81-1.65,1.2,5.75,4.18ZM84.13,116.87l2.21-6.76h-2.04s-2.01,6.15-2.01,6.15l-.44,1.34,1.14.83,5.26,3.84,1.65-1.2-5.77-4.21ZM130.03,110.15h-2.04s2.2,6.79,2.2,6.79l-5.76,4.17,1.65,1.2,5.24-3.8,1.14-.83-.43-1.34-2-6.2ZM92.97,87.87h-1.41s-.44,1.34-.44,1.34l-2.02,6.19,1.65,1.2,2.22-6.79h7.11s-.63-1.93-.63-1.93h-6.48ZM121.4,129.01h-7.14l.63,1.94h7.92l.44-1.34,2-6.16-1.65-1.2-2.2,6.76ZM107.17,82.81l-1.14.83-5.24,3.81.63,1.94,5.75-4.18,5.78,4.2.63-1.94-5.27-3.83-1.14-.83ZM107.13,133.63l-5.74-4.19-.63,1.94,5.23,3.81,1.14.83,1.14-.83,5.28-3.82-.63-1.94-5.78,4.19Z"/>
        <path class="st11" d="M125.11,109.44l1.94-5.98.18-.56-.47-.34-5.06-3.68-1.92-5.95-.18-.56h-.59s-6.28-.01-6.28-.01l-5.08-3.69-.47-.34-.47.34-5.06,3.67h-6.25s-.59-.01-.59-.01l-.18.56-1.95,5.98-5.08,3.7-.47.34.18.56,1.93,5.95-1.94,5.94-.18.56.47.35,5.08,3.71,1.94,5.98.18.56h6.84l5.05,3.68.47.35.48-.34,5.09-3.68h6.87l.18-.56,1.93-5.95,5.06-3.67.48-.34-.18-.56-1.93-5.98ZM126.28,103.21h0s0,0,0,0h0ZM119.01,93.18v.04s-.05-.04-.05-.04h.05ZM107.17,89.32h0s-.02,0-.02,0h0ZM95.38,93.14h.04s-.06.04-.06.04v-.04ZM88.06,103.23v-.02s0,0,0,0v.02ZM88.04,115.6h0s0,0,0,0h0ZM107.13,129.52h-.02s.04-.01.04-.01h-.02ZM118.98,125.69h0,0s0,0,0,0ZM126.09,115.79l-4.93,3.57-10.9-7.94-.05-.04h-.08v.21s-.1.15-.1.15l10.85,7.9.11-.16h0s-1.93,5.95-1.93,5.95l-9.57-13.17-.33.24,9.57,13.16h-6.26l.14-.05-4.14-12.78-.38.12,4.14,12.78.17-.06-5.05,3.66v-16.27h-.4v16.29l-4.91-3.58,4.17-12.83-.38-.12-4.16,12.77.18.06h0s-6.26,0-6.26,0l9.55-13.18-.33-.24-9.55,13.17-1.94-5.96.09.13,10.86-7.87-.24-.33-10.86,7.87.12.17-5.05-3.68,15.46-5.01-.12-.38-15.49,5.02,1.95-5.97v.18s13.42.02,13.42.02v-.4s-13.42-.02-13.42-.02v.21s-1.94-5.97-1.94-5.97l15.47,5.04.12-.38-15.45-5.03,5.04-3.66-.09.12,10.83,7.9.05.04h.08v-.21s.1-.15.1-.15l-10.83-7.9-.1.13,1.93-5.9,9.56,13.16.02.02.29-.28-9.57-13.18h6.28s-.15.06-.15.06l4.13,12.78.38-.12-4.13-12.78-.18.06,5.04-3.66v16.27h.4v-16.27l5.09,3.7-.18-.06-4.17,12.75.38.13,4.17-12.75-.19-.06h6.25s-9.56,13.15-9.56,13.15l-.04.05v.08h.21s.15.1.15.1l9.58-13.17,1.93,5.97-.1-.14-10.88,7.89.24.33,10.88-7.89-.1-.14,5.05,3.67-15.49,5.03.12.38,15.49-5.03-1.94,5.99,1.93,5.96-15.47-5.03-.12.38,15.5,5.04ZM126.25,115.68v-.04s.02.03.02.03l-.02.02ZM124.26,109.26l-13.42-.03v.4s13.42.03,13.42.03v-.4Z"/>
        <g>
          <path class="st17" d="M110.84,109.42c0,2.03-1.65,3.68-3.68,3.68s-3.68-1.65-3.68-3.68,1.65-3.68,3.68-3.68,3.68,1.65,3.68,3.68Z"/>
          <path class="st23" d="M107.16,113.5c-2.25,0-4.08-1.83-4.08-4.08s1.83-4.08,4.08-4.08,4.08,1.83,4.08,4.08-1.83,4.08-4.08,4.08ZM107.16,106.15c-1.81,0-3.27,1.47-3.27,3.27s1.47,3.27,3.27,3.27,3.27-1.47,3.27-3.27-1.47-3.27-3.27-3.27Z"/>
        </g>
        <path class="st4" d="M107.28,139.75l-7.97-5.81h-9.87l-.09-.28-2.97-9.15-8.01-5.84,3.06-9.38-3.05-9.38,8.02-5.82,3.08-9.42h9.87s7.98-5.78,7.98-5.78l8.02,5.83h9.91s3.03,9.4,3.03,9.4l7.98,5.8-3.06,9.43,3.05,9.43-7.99,5.79-3.05,9.38h-9.91l-8.03,5.81ZM90.03,133.13h9.54l.11.08,7.61,5.54,7.76-5.62h9.58l2.95-9.08,7.73-5.6-2.95-9.12.04-.12,2.92-8.99-7.72-5.61-.04-.13-2.89-8.96h-9.58s-7.76-5.65-7.76-5.65l-7.72,5.61h-9.54s-2.98,9.1-2.98,9.1l-7.75,5.63,2.95,9.08-.04.13-2.92,8.95,7.75,5.65,2.96,9.12Z"/>
        <path class="st4" d="M107.21,190.37l-.24-.17-21-15.31h-26.28l-.09-.28-8.06-24.82-21.33-15.55,8.16-24.98-8.12-24.99,21.35-15.51,8.2-25.09,26.28.04,21.26-15.45,21.35,15.51,26.4.04.09.28,7.99,24.73,21.26,15.45-8.15,25.1,8.12,25.12-21.28,15.41-8.12,24.99h-26.4l-21.38,15.48ZM60.28,174.08h25.96l.11.08,20.87,15.21,21.11-15.29h26.07l8.02-24.68.11-.08,20.92-15.14-8.02-24.81.04-.12,8.01-24.67-21-15.26-.04-.13-7.94-24.57-26.07-.04-.11-.08-20.98-15.25-21,15.26-25.96-.04-8.09,24.78-.11.08-20.98,15.25,8.02,24.68-.04.13-8.02,24.55,21.07,15.36.04.12,8.02,24.67Z"/>
      </g>
    </g>
  </g>
</svg>