<?xml version="1.0" encoding="UTF-8"?>
<svg xmlns="http://www.w3.org/2000/svg" version="1.1" xmlns:xlink="http://www.w3.org/1999/xlink" viewBox="0 0 265.52 271.12">
  <!-- Generator: Adobe Illustrator 29.3.1, SVG Export Plug-In . SVG Version: 2.1.0 Build 151)  -->
  <defs>
    <style>
      .st0 {
        fill: url(#linear-gradient2);
      }

      .st1 {
        filter: url(#drop-shadow-2);
      }

      .st2 {
        fill: url(#linear-gradient10);
      }

      .st3 {
        fill: url(#linear-gradient21);
      }

      .st4 {
        fill: #d7e8ef;
      }

      .st4, .st5 {
        mix-blend-mode: multiply;
      }

      .st6 {
        fill: url(#linear-gradient1);
      }

      .st7 {
        fill: #218c8a;
      }

      .st8 {
        fill: url(#linear-gradient9);
      }

      .st9 {
        fill: url(#linear-gradient18);
      }

      .st10 {
        fill: url(#linear-gradient23);
      }

      .st11 {
        fill: url(#linear-gradient8);
      }

      .st12 {
        fill: url(#linear-gradient11);
      }

      .st13 {
        fill: url(#radial-gradient);
      }

      .st14 {
        fill: url(#linear-gradient16);
      }

      .st15 {
        fill: url(#linear-gradient24);
      }

      .st16 {
        fill: url(#radial-gradient1);
      }

      .st17 {
        filter: url(#drop-shadow-1);
      }

      .st18 {
        fill: url(#linear-gradient22);
      }

      .st19 {
        fill: url(#radial-gradient3);
        filter: url(#drop-shadow-4);
      }

      .st20 {
        isolation: isolate;
      }

      .st21 {
        fill: url(#linear-gradient19);
      }

      .st22 {
        fill: url(#linear-gradient12);
      }

      .st23 {
        fill: #dba440;
      }

      .st24 {
        fill: url(#linear-gradient7);
      }

      .st25 {
        fill: url(#linear-gradient20);
      }

      .st26 {
        fill: url(#linear-gradient4);
      }

      .st27 {
        fill: #57a09d;
      }

      .st28 {
        fill: url(#linear-gradient14);
      }

      .st29 {
        fill: url(#linear-gradient5);
      }

      .st30 {
        fill: url(#linear-gradient3);
      }

      .st31 {
        fill: url(#linear-gradient15);
      }

      .st32 {
        filter: url(#drop-shadow-3);
      }

      .st33 {
        fill: url(#linear-gradient17);
      }

      .st34 {
        fill: url(#radial-gradient2);
      }

      .st5 {
        fill: #bdd3dd;
      }

      .st35 {
        fill: url(#linear-gradient6);
      }

      .st36 {
        fill: url(#linear-gradient13);
      }

      .st37 {
        fill: url(#linear-gradient);
      }
    </style>
    <filter id="drop-shadow-1" x="-14.95" y="-17.89" width="296" height="307" filterUnits="userSpaceOnUse">
      <feOffset dx="0" dy="0"/>
      <feGaussianBlur result="blur" stdDeviation="11.46"/>
      <feFlood flood-color="#000" flood-opacity=".75"/>
      <feComposite in2="blur" operator="in"/>
      <feComposite in="SourceGraphic"/>
    </filter>
    <radialGradient id="radial-gradient" cx="132.76" cy="135.56" fx="132.76" fy="135.56" r="115.32" gradientUnits="userSpaceOnUse">
      <stop offset="0" stop-color="#008275"/>
      <stop offset=".28" stop-color="#006e58"/>
      <stop offset=".76" stop-color="#00502e"/>
      <stop offset="1" stop-color="#00451e"/>
    </radialGradient>
    <filter id="drop-shadow-2" x="16.1" y="13.16" width="234" height="245" filterUnits="userSpaceOnUse">
      <feOffset dx="0" dy="0"/>
      <feGaussianBlur result="blur1" stdDeviation="5.11"/>
      <feFlood flood-color="#000" flood-opacity=".75"/>
      <feComposite in2="blur1" operator="in"/>
      <feComposite in="SourceGraphic"/>
    </filter>
    <radialGradient id="radial-gradient1" cx="132.76" cy="135.56" fx="132.76" fy="135.56" r="103.61" xlink:href="#radial-gradient"/>
    <linearGradient id="linear-gradient" x1="-121.84" y1="159.84" x2="78.03" y2="159.84" gradientUnits="userSpaceOnUse">
      <stop offset=".15" stop-color="#b46d11"/>
      <stop offset=".42" stop-color="#c5862d"/>
      <stop offset=".71" stop-color="#dda853"/>
      <stop offset=".81" stop-color="#e6ba6b"/>
      <stop offset="1" stop-color="#fde7a4"/>
    </linearGradient>
    <linearGradient id="linear-gradient1" x1="-121.73" y1="111.16" x2="78.14" y2="111.16" xlink:href="#linear-gradient"/>
    <linearGradient id="linear-gradient2" x1="121.4" y1="74.01" x2="321.28" y2="74.01" xlink:href="#linear-gradient"/>
    <linearGradient id="linear-gradient3" x1="183.69" y1="111.27" x2="383.56" y2="111.27" xlink:href="#linear-gradient"/>
    <linearGradient id="linear-gradient4" x1="-59.52" y1="197.12" x2="140.36" y2="197.12" xlink:href="#linear-gradient"/>
    <linearGradient id="linear-gradient5" x1="-59.33" y1="73.91" x2="140.55" y2="73.91" xlink:href="#linear-gradient"/>
    <linearGradient id="linear-gradient6" x1="121.21" y1="197.18" x2="321.08" y2="197.18" xlink:href="#linear-gradient"/>
    <linearGradient id="linear-gradient7" x1="183.58" y1="159.97" x2="383.45" y2="159.97" xlink:href="#linear-gradient"/>
    <linearGradient id="linear-gradient8" x1="31.04" y1="51.94" x2="230.92" y2="51.94" xlink:href="#linear-gradient"/>
    <linearGradient id="linear-gradient9" x1="30.79" y1="219.2" x2="230.67" y2="219.2" xlink:href="#linear-gradient"/>
    <linearGradient id="linear-gradient10" x1="-72.59" y1="-220.18" x2="330.17" y2="477.42" xlink:href="#linear-gradient"/>
    <filter id="drop-shadow-3" x="41.1" y="40.16" width="184" height="191" filterUnits="userSpaceOnUse">
      <feOffset dx="0" dy="0"/>
      <feGaussianBlur result="blur2" stdDeviation="5.11"/>
      <feFlood flood-color="#000" flood-opacity=".75"/>
      <feComposite in2="blur2" operator="in"/>
      <feComposite in="SourceGraphic"/>
    </filter>
    <radialGradient id="radial-gradient2" cx="132.96" cy="135.43" fx="132.96" fy="135.43" r="77.71" gradientUnits="userSpaceOnUse">
      <stop offset="0" stop-color="#006942"/>
      <stop offset=".06" stop-color="#00643d"/>
      <stop offset=".68" stop-color="#003a13"/>
      <stop offset="1" stop-color="#002a03"/>
    </radialGradient>
    <linearGradient id="linear-gradient11" x1="65.23" y1="128.69" x2="200.73" y2="128.69" xlink:href="#linear-gradient"/>
    <linearGradient id="linear-gradient12" x1="65.2" y1="142.14" x2="200.69" y2="142.14" xlink:href="#linear-gradient"/>
    <linearGradient id="linear-gradient13" x1="65.1" y1="135.46" x2="200.82" y2="135.46" xlink:href="#linear-gradient"/>
    <linearGradient id="linear-gradient14" x1="103.69" y1="124.81" x2="126.22" y2="124.81" xlink:href="#linear-gradient"/>
    <linearGradient id="linear-gradient15" x1="139.7" y1="131.4" x2="168.98" y2="131.4" xlink:href="#linear-gradient"/>
    <linearGradient id="linear-gradient16" x1="114.63" y1="158.87" x2="140.12" y2="158.87" xlink:href="#linear-gradient"/>
    <linearGradient id="linear-gradient17" x1="125.8" y1="158.87" x2="151.29" y2="158.87" xlink:href="#linear-gradient"/>
    <linearGradient id="linear-gradient18" x1="125.8" y1="118.4" x2="158.07" y2="118.4" xlink:href="#linear-gradient"/>
    <linearGradient id="linear-gradient19" x1="96.95" y1="135.43" x2="115.73" y2="135.43" xlink:href="#linear-gradient"/>
    <linearGradient id="linear-gradient20" x1="103.69" y1="146.05" x2="126.22" y2="146.05" xlink:href="#linear-gradient"/>
    <linearGradient id="linear-gradient21" x1="114.63" y1="111.99" x2="140.12" y2="111.99" xlink:href="#linear-gradient"/>
    <linearGradient id="linear-gradient22" x1="139.7" y1="146.05" x2="162.23" y2="146.05" xlink:href="#linear-gradient"/>
    <radialGradient id="radial-gradient3" cx="132.76" cy="135.56" fx="132.76" fy="135.56" r="39.37" xlink:href="#radial-gradient"/>
    <filter id="drop-shadow-4" x="62.77" y="63.83" width="140" height="144" filterUnits="userSpaceOnUse">
      <feOffset dx="0" dy="0"/>
      <feGaussianBlur result="blur3" stdDeviation="10.22"/>
      <feFlood flood-color="#000" flood-opacity=".75"/>
      <feComposite in2="blur3" operator="in"/>
      <feComposite in="SourceGraphic"/>
    </filter>
    <linearGradient id="linear-gradient23" x1="119.5" y1="112.57" x2="146.04" y2="158.55" xlink:href="#linear-gradient"/>
    <linearGradient id="linear-gradient24" x1="130.44" y1="131.53" x2="135.09" y2="139.59" xlink:href="#linear-gradient"/>
  </defs>
  <g class="st20">
    <g id="Layer_1">
      <g>
        <g class="st17">
          <polygon class="st13" points="233.28 135.64 245.17 99.05 214.17 76.53 202.39 40.08 163.92 40.02 132.79 17.4 101.8 39.92 63.49 39.86 51.54 76.43 20.42 99.05 32.25 135.48 20.36 171.9 51.45 194.56 63.34 231.15 101.65 231.15 132.6 253.72 163.77 231.15 202.24 231.15 214.08 194.72 245.11 172.25 233.28 135.64"/>
          <path class="st27" d="M132.6,254.19l-.22-.16-30.86-22.49h-38.46l-.09-.26-11.85-36.47-31.22-22.76.09-.26,11.86-36.3-11.88-36.58.22-.16,31.02-22.54,12-36.72h.28s38.19.06,38.19.06l31.12-22.61,31.25,22.71,38.63.06,11.83,36.6,31.12,22.61-11.94,36.74,11.88,36.76-.22.16-30.93,22.39-11.89,36.58h-38.63l-31.29,22.66ZM63.62,230.77h38.16l.1.07,30.73,22.4,31.04-22.48h38.32l11.79-36.29,30.9-22.38-11.78-36.46.04-.12,11.8-36.33-30.87-22.42-.04-.12-11.69-36.19-38.32-.06-.1-.07-30.9-22.45-30.87,22.43h-.12l-38.03-.06-11.9,36.43-.1.07-30.9,22.45,11.79,36.29-.04.12-11.81,36.15,30.97,22.57.04.12,11.8,36.33Z"/>
        </g>
        <g class="st1">
          <polygon class="st16" points="223.08 135.63 233.76 102.75 205.91 82.52 195.33 49.77 160.76 49.71 132.79 29.39 104.94 49.63 70.52 49.57 59.79 82.43 31.82 102.75 42.45 135.49 31.77 168.21 59.7 188.57 70.38 221.45 104.81 221.45 132.62 241.73 160.62 221.45 195.19 221.45 205.83 188.72 233.71 168.53 223.08 135.63"/>
          <path class="st27" d="M132.62,242.04l-.15-.11-27.75-20.23h-34.52l-.06-.18-10.66-32.8-28.02-20.43.06-.18,10.66-32.64-10.67-32.83.15-.11,27.9-20.27,10.77-32.96h.18l34.34.05,27.93-20.29.15.11,27.9,20.27,34.67.05.06.18,10.56,32.67,27.93,20.29-.06.18-10.66,32.8,10.66,32.99-.15.11-27.81,20.14-10.67,32.83h-34.67l-28.08,20.34ZM70.57,221.2h34.32l.07.05,27.67,20.17,27.92-20.22h34.47l10.6-32.64.07-.05,27.73-20.08-10.6-32.8.02-.08,10.63-32.7-27.76-20.17-.03-.08-10.52-32.58-34.47-.05-.07-.05-27.82-20.21-27.76,20.17h-.08l-34.23-.05-10.7,32.76-.07.05-27.82,20.21,10.6,32.64-.02.08-10.63,32.54,27.85,20.31.03.08,10.62,32.7Z"/>
        </g>
        <g>
          <polygon class="st37" points="50.14 162.27 58.05 138.04 50.74 138.03 43.52 160.11 41.95 164.91 46.04 167.89 64.92 181.65 70.84 177.36 50.14 162.27"/>
          <polygon class="st6" points="50.74 132.96 58.06 132.96 50.18 108.72 70.91 93.66 64.99 89.36 46.09 103.09 42 106.06 43.56 110.87 50.74 132.96"/>
          <polygon class="st0" points="191.78 89.63 197.71 85.34 190.57 63.24 189.01 58.43 183.96 58.42 160.6 58.38 158.33 65.34 183.95 65.38 191.78 89.63"/>
          <polygon class="st30" points="215.39 108.72 207.47 133.08 214.78 133.09 222 110.87 223.57 106.06 219.48 103.09 200.69 89.44 194.76 93.74 215.39 108.72"/>
          <polygon class="st26" points="73.82 181.46 67.9 185.76 75.11 207.98 76.68 212.78 104.96 212.78 107.22 205.83 81.73 205.83 73.82 181.46"/>
          <polygon class="st29" points="81.86 58.26 76.8 58.25 75.23 63.05 67.98 85.26 73.89 89.56 81.84 65.21 107.34 65.26 105.08 58.29 81.86 58.26"/>
          <polygon class="st35" points="183.83 205.83 158.22 205.83 160.48 212.78 188.89 212.78 190.45 207.98 197.63 185.89 191.71 181.58 183.83 205.83"/>
          <polygon class="st24" points="214.78 138.16 207.47 138.16 215.34 162.53 194.7 177.48 200.62 181.79 219.42 168.17 223.52 165.2 221.96 160.39 214.78 138.16"/>
          <polygon class="st11" points="132.78 40.11 128.69 43.08 109.91 56.73 112.16 63.69 132.78 48.71 153.51 63.76 155.77 56.81 136.87 43.08 132.78 40.11"/>
          <polygon class="st8" points="132.65 222.41 112.05 207.4 109.78 214.36 128.55 228.04 132.63 231.01 136.73 228.05 155.65 214.35 153.39 207.39 132.65 222.41"/>
        </g>
        <path class="st2" d="M55.24,140.08h-3.02s-7.86,24.06-7.86,24.06l20.56,14.99,2.44-1.77-19.63-14.31,7.5-22.97ZM44.4,106.84l7.82,24.07h3.02s-7.47-22.98-7.47-22.98l19.65-14.28-2.44-1.78-20.59,14.96ZM162.08,60.43l-.94,2.87,24.29.04,7.43,22.99,2.45-1.77-7.78-24.09-25.44-.04ZM210.28,131.04h3.02s7.86-24.2,7.86-24.2l-20.48-14.88-2.45,1.77,19.55,14.2-7.51,23.1ZM72.74,184.77l-2.44,1.77,7.86,24.2h25.31l.93-2.87h-24.16l-7.51-23.1ZM78.28,60.29l-7.9,24.19,2.44,1.78,7.54-23.09,24.16.04-.93-2.87-25.31-.04ZM185.32,207.87h-24.29l.93,2.87h25.44l7.82-24.07-2.44-1.78-7.47,22.98ZM210.27,140.2l7.47,23.11-19.57,14.17,2.44,1.78,20.5-14.84-7.82-24.21h-3.02ZM112.31,57.51l.93,2.88,19.55-14.2,19.65,14.28.94-2.87-20.59-14.96-20.48,14.88ZM132.64,224.94l-19.52-14.23-.94,2.87,20.45,14.91,20.61-14.92-.93-2.87-19.67,14.25Z"/>
        <g class="st32">
          <polygon class="st34" points="200.7 135.48 208.71 110.82 187.82 95.65 179.88 71.09 153.96 71.04 132.98 55.8 112.1 70.98 86.28 70.94 78.23 95.58 57.26 110.82 65.23 135.37 57.22 159.91 78.17 175.19 86.18 199.84 112 199.84 132.86 215.05 153.86 199.84 179.78 199.84 187.76 175.29 208.67 160.15 200.7 135.48"/>
          <path class="st7" d="M132.86,215.37l-.15-.11-20.79-15.16h-25.92l-.06-.18-7.98-24.58-21.04-15.33.06-.18,7.99-24.46-8.01-24.65.15-.11,20.91-15.19,8.08-24.74h.18l25.73.04,20.97-15.23.15.11,20.91,15.19,26.03.04.06.18,7.91,24.48,20.97,15.23-.06.18-7.99,24.58,8.01,24.77-.15.11-20.84,15.09-8.01,24.65h-26.03l-21.08,15.27ZM86.37,199.59h25.71l.07.05,20.71,15.1,20.92-15.15h25.82l7.94-24.45.07-.05,20.76-15.03-7.94-24.57.02-.08,7.95-24.48-20.8-15.11-.03-.08-7.88-24.39-25.82-.04-.07-.05-20.83-15.13-20.8,15.11h-.08l-25.63-.04-8.02,24.55-.07.05-20.82,15.13,7.94,24.45-.02.08-7.96,24.36,20.87,15.21.03.08,7.95,24.48Z"/>
        </g>
        <g>
          <g>
            <path class="st12" d="M174.48,193.15h-82.99c-.26,0-.5-.17-.58-.42l-25.65-78.93c-.08-.25,0-.52.22-.68l67.14-48.78c.21-.16.5-.16.71,0l67.14,48.78c.21.15.3.43.22.68l-25.64,78.93c-.08.25-.31.42-.58.42ZM91.92,191.94h82.12l25.37-78.1-66.43-48.27-66.43,48.27,25.37,78.1Z"/>
            <path class="st22" d="M132.87,206.63c-.13,0-.25-.04-.36-.12l-67.07-48.89c-.21-.16-.3-.43-.22-.68l25.77-78.89c.08-.25.31-.42.58-.42h0l82.99.13c.26,0,.5.17.58.42l25.52,78.97c.08.25,0,.52-.22.68l-67.22,48.68c-.11.08-.23.12-.36.12ZM66.51,156.91l66.35,48.37,66.51-48.16-25.25-78.13-82.11-.13-25.5,78.05Z"/>
          </g>
          <path class="st36" d="M132.96,206.74c-.32,0-.6-.21-.69-.51l-10.61-36.02-29.76,22.91c-.25.19-.6.2-.86.01-.26-.19-.36-.52-.25-.82l12.59-35.38-37.54,1.04c-.31.05-.6-.19-.7-.5-.1-.3.01-.63.28-.81l30.98-21.22-30.98-21.23c-.26-.18-.37-.51-.28-.81.1-.3.37-.48.7-.5l37.54,1.04-12.59-35.38c-.11-.3,0-.63.25-.82.26-.19.61-.18.86.01l29.76,22.91,10.61-36.02c.18-.61,1.19-.61,1.38,0l10.61,36.02,29.76-22.91c.25-.19.6-.2.86-.01.26.19.36.52.25.82l-12.59,35.38,37.54-1.04c.39.03.6.19.7.5.1.3-.01.63-.28.81l-30.98,21.23,30.98,21.22c.26.18.37.51.28.81-.09.3-.33.53-.7.5l-37.54-1.04,12.59,35.38c.11.3,0,.63-.25.82-.26.18-.61.18-.86-.01l-29.76-22.91-10.61,36.02c-.09.31-.37.51-.69.51ZM122.06,168.28c.07,0,.15.01.22.03.22.07.4.25.47.48l10.22,34.69,10.22-34.69c.07-.23.24-.41.47-.48.22-.08.47-.03.66.11l28.66,22.06-12.12-34.08c-.08-.22-.04-.47.1-.66.14-.19.32-.32.6-.29l36.16,1-29.84-20.44c-.2-.13-.31-.35-.31-.59s.12-.46.31-.59l29.84-20.44-36.16,1c-.28,0-.46-.11-.6-.29-.14-.19-.18-.44-.1-.66l12.12-34.08-28.66,22.06c-.19.14-.44.19-.66.11-.22-.07-.4-.25-.47-.48l-10.22-34.69-10.22,34.69c-.07.23-.24.41-.47.48-.22.07-.47.03-.66-.11l-28.66-22.06,12.12,34.08c.08.22.04.47-.1.66-.14.19-.37.3-.6.29l-36.16-1,29.84,20.44c.2.13.31.35.31.59s-.12.46-.31.59l-29.84,20.44,36.16-1c.23-.01.46.11.6.29.14.19.18.44.1.66l-12.12,34.08,28.66-22.06c.13-.1.28-.15.44-.15Z"/>
          <path class="st28" d="M110.47,135.65l-6.75-20.75c-.07-.22-.03-.46.1-.64.13-.18.35-.29.58-.29h21.81v1.43h-20.83l6.44,19.81-1.36.44Z"/>
          <path class="st31" d="M151.03,148.83l-.84-1.16,16.85-12.24-10.11-7.34c-.25-.18-.36-.51-.26-.8l3.86-11.89h-20.83v-1.43h21.81c.23,0,.44.11.58.29.14.19.17.42.1.64l-4,12.33,10.48,7.62c.19.14.3.35.3.58s-.11.44-.3.58l-17.65,12.82Z"/>
          <path class="st14" d="M122.05,169.71c-.07,0-.15-.01-.22-.03-.22-.07-.39-.24-.46-.46l-6.74-20.75,1.37-.44,6.43,19.81,16.85-12.24.84,1.16-17.65,12.82c-.12.09-.27.14-.42.14Z"/>
          <path class="st33" d="M143.87,169.71c-.15,0-.3-.05-.42-.14l-17.65-12.82.84-1.16,16.85,12.24,6.44-19.81,1.37.44-6.75,20.75c-.07.22-.24.39-.46.46-.07.02-.15.03-.22.03Z"/>
          <path class="st9" d="M155.45,135.65l-1.36-.44,2.41-7.43-6.32-4.59c-.12-.09-.21-.21-.26-.36l-6.44-19.81-16.85,12.24-.84-1.16,17.65-12.82c.18-.14.43-.18.64-.1.22.07.39.24.46.46l6.67,20.53,6.55,4.76c.25.18.36.51.26.8l-2.58,7.92Z"/>
          <path class="st21" d="M114.89,148.83l-17.65-12.82c-.19-.14-.3-.35-.3-.58s.11-.44.3-.58l17.65-12.82.84,1.16-16.85,12.24,16.85,12.24-.84,1.16Z"/>
          <path class="st25" d="M126.22,156.89h-21.81c-.23,0-.44-.11-.58-.29-.14-.19-.17-.42-.1-.64l6.75-20.75,1.36.44-6.44,19.81h20.83v1.43Z"/>
          <path class="st3" d="M116,122.83l-1.37-.44,6.74-20.75c.07-.22.24-.39.46-.46.22-.07.46-.03.64.1l17.65,12.82-.84,1.16-16.85-12.24-6.43,19.81Z"/>
          <path class="st18" d="M161.52,156.89h-21.81v-1.43h20.83l-6.44-19.81,1.36-.44,6.75,20.75c.07.22.03.46-.1.64-.13.18-.35.29-.58.29Z"/>
        </g>
        <path class="st19" d="M171.14,123.1l-10.58-7.69-4.03-12.45-13.13-.02-10.63-7.71-10.58,7.68-13.08-.02-4.08,12.49-10.63,7.73,4.04,12.44-4.06,12.43,10.61,7.75,4.06,12.49h13.08l10.57,7.7,10.64-7.7h13.15l4.04-12.45,10.59-7.67-4.04-12.49,4.06-12.49Z"/>
        <path class="st5" d="M111.98,151.75l-2.09,1.51,2.55,7.83.55,1.7h9.97l.8-2.45h-8.99l-2.79-8.59ZM103.84,134.64h2.58s-2.78-8.55-2.78-8.55l7.31-5.31-2.09-1.52-6.66,4.84-1.44,1.05.55,1.7,2.53,7.79ZM153.57,119.37l2.09-1.51-2.52-7.79-.55-1.7h-1.78s-8.24-.02-8.24-.02l-.8,2.45h9.03s2.76,8.57,2.76,8.57ZM161.89,126.1l-2.79,8.59h2.58s2.55-7.83,2.55-7.83l.55-1.7-1.44-1.05-6.62-4.81-2.09,1.52,7.27,5.28ZM103.63,144.98l2.79-8.54h-2.58s-2.54,7.78-2.54,7.78l-.55,1.69,1.44,1.05,6.66,4.85,2.09-1.51-7.3-5.32ZM161.68,136.48h-2.58s2.78,8.59,2.78,8.59l-7.28,5.27,2.09,1.52,6.63-4.8,1.44-1.05-.55-1.7-2.53-7.84ZM114.81,108.3h-1.78s-.55,1.69-.55,1.69l-2.56,7.83,2.09,1.52,2.8-8.59h8.99s-.79-2.44-.79-2.44h-8.19ZM150.77,160.34h-9.03l.8,2.45h10.02l.55-1.7,2.53-7.79-2.09-1.52-2.78,8.55ZM132.77,101.9l-1.44,1.05-6.62,4.81.79,2.46,7.27-5.28,7.31,5.31.8-2.45-6.66-4.84-1.44-1.05ZM132.72,166.19l-7.26-5.29-.8,2.45,6.62,4.82,1.44,1.05,1.44-1.05,6.67-4.83-.8-2.45-7.32,5.3Z"/>
        <path class="st10" d="M155.46,135.58l2.46-7.56.23-.71-.6-.44-6.4-4.65-2.43-7.53-.23-.71h-.74s-7.95-.01-7.95-.01l-6.43-4.67-.6-.44-.6.44-6.4,4.64h-7.91s-.74-.01-.74-.01l-.23.71-2.47,7.56-6.43,4.67-.6.44.23.71,2.44,7.52-2.45,7.51-.23.71.6.44,6.42,4.69,2.46,7.56.23.71h8.65l6.39,4.66.6.44.6-.44,6.44-4.66h8.7l.23-.71,2.44-7.53,6.41-4.64.6-.44-.23-.71-2.44-7.56ZM156.95,127.71h0s0,0,0,0h0ZM147.74,115.02l.02.05-.08-.05h.06ZM132.77,110.14h0s-.02,0-.02,0h0ZM117.86,114.97h.05s-.07.05-.07.05l.02-.05ZM108.6,127.73v-.02s.01-.01.01-.01v.03ZM108.58,143.38h0s0,0,0,0h0ZM132.73,160.99l-.03-.02h.05l-.03.02ZM147.72,156.13h0,0s0,0,0,0ZM156.71,143.62l-6.24,4.52-13.79-10.04-.07-.05h-.1v.27s-.13.19-.13.19l13.72,10,.14-.2h0s-2.44,7.53-2.44,7.53l-12.11-16.65-.41.3,12.1,16.65h-7.92l.18-.06-5.24-16.17-.49.16,5.24,16.17.22-.07-6.39,4.63v-20.58h-.51v20.6l-6.21-4.53,5.28-16.22-.49-.16-5.26,16.15.23.08h0s-7.91,0-7.91,0l12.08-16.67-.41-.3-12.08,16.66-2.45-7.54.11.16,13.74-9.96-.3-.41-13.74,9.96.15.21-6.38-4.66,19.55-6.34-.16-.49-19.59,6.35,2.47-7.55v.23s16.97.02,16.97.02v-.51s-16.97-.02-16.97-.02v.26s-2.45-7.55-2.45-7.55l19.57,6.37.16-.49-19.54-6.36,6.37-4.63-.11.15,13.7,10,.07.05h.1v-.27s.13-.19.13-.19l-13.7-10-.12.17,2.44-7.46,12.09,16.64.02.02.37-.35-12.1-16.67h7.95s-.19.08-.19.08l5.22,16.17.49-.16-5.22-16.17-.23.07,6.38-4.63v20.57h.51v-20.58l6.44,4.67-.23-.07-5.28,16.13.49.16,5.27-16.13-.24-.08h7.91s-12.09,16.63-12.09,16.63l-.05.07v.1h.27s.19.13.19.13l12.12-16.66,2.44,7.55-.13-.17-13.76,9.98.3.41,13.76-9.98-.13-.18,6.38,4.64-19.59,6.37.16.49,19.59-6.37-2.46,7.57,2.44,7.54-19.57-6.36-.16.49,19.6,6.38ZM156.91,143.47l.02-.05v.03s-.02.02-.02.02ZM154.38,135.35l-16.97-.04v.51s16.97.04,16.97.04v-.51Z"/>
        <g>
          <path class="st15" d="M137.41,135.56c0,2.57-2.08,4.65-4.65,4.65s-4.65-2.08-4.65-4.65,2.08-4.65,4.65-4.65,4.65,2.08,4.65,4.65Z"/>
          <path class="st23" d="M132.76,140.72c-2.85,0-5.16-2.32-5.16-5.16s2.32-5.16,5.16-5.16,5.16,2.32,5.16,5.16-2.32,5.16-5.16,5.16ZM132.76,131.42c-2.28,0-4.14,1.86-4.14,4.14s1.86,4.14,4.14,4.14,4.14-1.86,4.14-4.14-1.86-4.14-4.14-4.14Z"/>
        </g>
        <path class="st4" d="M132.91,173.92l-10.09-7.35h-12.48l-.11-.35-3.76-11.57-10.13-7.38,3.87-11.86-3.85-11.87,10.14-7.37,3.89-11.91,12.48.02,10.1-7.34,10.14,7.37,12.53.02,3.84,11.87,10.1,7.34-3.87,11.92,3.85,11.93-10.11,7.32-3.85,11.87h-12.53l-10.15,7.35ZM111.09,165.55h12.07l.13.1,9.62,7.01,9.82-7.11h12.12l3.73-11.48,9.78-7.08-3.73-11.54.05-.16,3.7-11.37-9.77-7.1-.05-.16-3.66-11.33-12.12-.02-9.81-7.13-9.76,7.09-12.07-.02-3.77,11.52-9.81,7.13,3.73,11.48-.05.16-3.7,11.32,9.8,7.14,3.75,11.53Z"/>
        <path class="st4" d="M132.83,237.95l-.3-.22-26.56-19.36h-33.24l-.11-.35-10.2-31.4-26.98-19.67,10.32-31.6-10.27-31.61,27.01-19.62,10.37-31.73,33.24.05,26.89-19.54,27.01,19.62,33.39.05.12.35,10.1,31.27,26.89,19.54-10.31,31.75,10.26,31.77-26.92,19.49-10.27,31.61h-33.39l-27.04,19.58ZM73.47,217.35h32.83l.13.1,26.39,19.24,26.7-19.34h32.97l10.15-31.22.13-.1,26.46-19.16-10.14-31.38.05-.16,10.14-31.2-26.56-19.3-.05-.16-10.04-31.08-32.97-.05-.13-.1-26.54-19.28-26.56,19.3-32.83-.05-10.24,31.34-.13.1-26.54,19.28,10.15,31.22-.05.16-10.14,31.05,26.65,19.42.05.16,10.14,31.2Z"/>
      </g>
    </g>
  </g>
</svg>