<?xml version="1.0" encoding="UTF-8"?>
<svg xmlns="http://www.w3.org/2000/svg" version="1.1" xmlns:xlink="http://www.w3.org/1999/xlink" viewBox="0 0 161.85 165.26">
  <!-- Generator: Adobe Illustrator 29.3.1, SVG Export Plug-In . SVG Version: 2.1.0 Build 151)  -->
  <defs>
    <style>
      .st0 {
        fill: url(#linear-gradient2);
      }

      .st1 {
        filter: url(#drop-shadow-2);
      }

      .st2 {
        fill: url(#linear-gradient10);
      }

      .st3 {
        fill: url(#linear-gradient21);
      }

      .st4 {
        fill: #d7e8ef;
      }

      .st4, .st5 {
        mix-blend-mode: multiply;
      }

      .st6 {
        fill: url(#linear-gradient1);
      }

      .st7 {
        fill: #218c8a;
      }

      .st8 {
        fill: url(#linear-gradient9);
      }

      .st9 {
        fill: url(#linear-gradient18);
      }

      .st10 {
        fill: url(#linear-gradient23);
      }

      .st11 {
        fill: url(#linear-gradient8);
      }

      .st12 {
        fill: url(#linear-gradient11);
      }

      .st13 {
        fill: url(#radial-gradient);
      }

      .st14 {
        fill: url(#linear-gradient16);
      }

      .st15 {
        fill: url(#linear-gradient24);
      }

      .st16 {
        fill: url(#radial-gradient1);
      }

      .st17 {
        filter: url(#drop-shadow-1);
      }

      .st18 {
        fill: url(#linear-gradient22);
      }

      .st19 {
        fill: url(#radial-gradient3);
        filter: url(#drop-shadow-4);
      }

      .st20 {
        isolation: isolate;
      }

      .st21 {
        fill: url(#linear-gradient19);
      }

      .st22 {
        fill: url(#linear-gradient12);
      }

      .st23 {
        fill: #dba440;
      }

      .st24 {
        fill: url(#linear-gradient7);
      }

      .st25 {
        fill: url(#linear-gradient20);
      }

      .st26 {
        fill: url(#linear-gradient4);
      }

      .st27 {
        fill: #57a09d;
      }

      .st28 {
        fill: url(#linear-gradient14);
      }

      .st29 {
        fill: url(#linear-gradient5);
      }

      .st30 {
        fill: url(#linear-gradient3);
      }

      .st31 {
        fill: url(#linear-gradient15);
      }

      .st32 {
        filter: url(#drop-shadow-3);
      }

      .st33 {
        fill: url(#linear-gradient17);
      }

      .st34 {
        fill: url(#radial-gradient2);
      }

      .st5 {
        fill: #bdd3dd;
      }

      .st35 {
        fill: url(#linear-gradient6);
      }

      .st36 {
        fill: url(#linear-gradient13);
      }

      .st37 {
        fill: url(#linear-gradient);
      }
    </style>
    <filter id="drop-shadow-1" x="-8.64" y="-10.03" width="179" height="186" filterUnits="userSpaceOnUse">
      <feOffset dx="0" dy="0"/>
      <feGaussianBlur result="blur" stdDeviation="6.91"/>
      <feFlood flood-color="#000" flood-opacity=".75"/>
      <feComposite in2="blur" operator="in"/>
      <feComposite in="SourceGraphic"/>
    </filter>
    <radialGradient id="radial-gradient" cx="80.93" cy="82.63" fx="80.93" fy="82.63" r="69.54" gradientUnits="userSpaceOnUse">
      <stop offset="0" stop-color="#008275"/>
      <stop offset=".28" stop-color="#006e58"/>
      <stop offset=".76" stop-color="#00502e"/>
      <stop offset="1" stop-color="#00451e"/>
    </radialGradient>
    <filter id="drop-shadow-2" x="9.85" y="8.45" width="142" height="149" filterUnits="userSpaceOnUse">
      <feOffset dx="0" dy="0"/>
      <feGaussianBlur result="blur1" stdDeviation="3.08"/>
      <feFlood flood-color="#000" flood-opacity=".75"/>
      <feComposite in2="blur1" operator="in"/>
      <feComposite in="SourceGraphic"/>
    </filter>
    <radialGradient id="radial-gradient1" cx="80.93" cy="82.63" fx="80.93" fy="82.63" r="62.49" xlink:href="#radial-gradient"/>
    <linearGradient id="linear-gradient" x1="-72.62" y1="97.28" x2="47.92" y2="97.28" gradientUnits="userSpaceOnUse">
      <stop offset=".15" stop-color="#b46d11"/>
      <stop offset=".42" stop-color="#c5862d"/>
      <stop offset=".71" stop-color="#dda853"/>
      <stop offset=".81" stop-color="#e6ba6b"/>
      <stop offset="1" stop-color="#fde7a4"/>
    </linearGradient>
    <linearGradient id="linear-gradient1" x1="-72.55" y1="67.92" x2="47.99" y2="67.92" xlink:href="#linear-gradient"/>
    <linearGradient id="linear-gradient2" x1="74.08" y1="45.51" x2="194.61" y2="45.51" xlink:href="#linear-gradient"/>
    <linearGradient id="linear-gradient3" x1="111.64" y1="67.98" x2="232.18" y2="67.98" xlink:href="#linear-gradient"/>
    <linearGradient id="linear-gradient4" x1="-35.03" y1="119.76" x2="85.51" y2="119.76" xlink:href="#linear-gradient"/>
    <linearGradient id="linear-gradient5" x1="-34.92" y1="45.45" x2="85.62" y2="45.45" xlink:href="#linear-gradient"/>
    <linearGradient id="linear-gradient6" x1="73.96" y1="119.79" x2="194.5" y2="119.79" xlink:href="#linear-gradient"/>
    <linearGradient id="linear-gradient7" x1="111.57" y1="97.35" x2="232.11" y2="97.35" xlink:href="#linear-gradient"/>
    <linearGradient id="linear-gradient8" x1="19.58" y1="32.2" x2="140.12" y2="32.2" xlink:href="#linear-gradient"/>
    <linearGradient id="linear-gradient9" x1="19.43" y1="133.07" x2="139.97" y2="133.07" xlink:href="#linear-gradient"/>
    <linearGradient id="linear-gradient10" x1="-42.91" y1="-131.91" x2="199.98" y2="288.8" xlink:href="#linear-gradient"/>
    <filter id="drop-shadow-3" x="25.85" y="24.45" width="111" height="117" filterUnits="userSpaceOnUse">
      <feOffset dx="0" dy="0"/>
      <feGaussianBlur result="blur2" stdDeviation="3.08"/>
      <feFlood flood-color="#000" flood-opacity=".75"/>
      <feComposite in2="blur2" operator="in"/>
      <feComposite in="SourceGraphic"/>
    </filter>
    <radialGradient id="radial-gradient2" cx="81.05" cy="82.55" fx="81.05" fy="82.55" r="46.86" gradientUnits="userSpaceOnUse">
      <stop offset="0" stop-color="#006942"/>
      <stop offset=".06" stop-color="#00643d"/>
      <stop offset=".68" stop-color="#003a13"/>
      <stop offset="1" stop-color="#002a03"/>
    </radialGradient>
    <linearGradient id="linear-gradient11" x1="40.2" y1="78.49" x2="121.91" y2="78.49" xlink:href="#linear-gradient"/>
    <linearGradient id="linear-gradient12" x1="40.18" y1="86.6" x2="121.89" y2="86.6" xlink:href="#linear-gradient"/>
    <linearGradient id="linear-gradient13" x1="40.12" y1="82.57" x2="121.97" y2="82.57" xlink:href="#linear-gradient"/>
    <linearGradient id="linear-gradient14" x1="63.39" y1="76.15" x2="76.98" y2="76.15" xlink:href="#linear-gradient"/>
    <linearGradient id="linear-gradient15" x1="85.11" y1="80.12" x2="102.77" y2="80.12" xlink:href="#linear-gradient"/>
    <linearGradient id="linear-gradient16" x1="69.99" y1="96.69" x2="85.37" y2="96.69" xlink:href="#linear-gradient"/>
    <linearGradient id="linear-gradient17" x1="76.73" y1="96.69" x2="92.1" y2="96.69" xlink:href="#linear-gradient"/>
    <linearGradient id="linear-gradient18" x1="76.73" y1="72.28" x2="96.19" y2="72.28" xlink:href="#linear-gradient"/>
    <linearGradient id="linear-gradient19" x1="59.33" y1="82.55" x2="70.66" y2="82.55" xlink:href="#linear-gradient"/>
    <linearGradient id="linear-gradient20" x1="63.39" y1="88.96" x2="76.98" y2="88.96" xlink:href="#linear-gradient"/>
    <linearGradient id="linear-gradient21" x1="69.99" y1="68.41" x2="85.37" y2="68.41" xlink:href="#linear-gradient"/>
    <linearGradient id="linear-gradient22" x1="85.11" y1="88.96" x2="98.7" y2="88.96" xlink:href="#linear-gradient"/>
    <radialGradient id="radial-gradient3" cx="80.93" cy="82.63" fx="80.93" fy="82.63" r="23.74" xlink:href="#radial-gradient"/>
    <filter id="drop-shadow-4" x="38.61" y="39.21" width="84" height="87" filterUnits="userSpaceOnUse">
      <feOffset dx="0" dy="0"/>
      <feGaussianBlur result="blur3" stdDeviation="6.16"/>
      <feFlood flood-color="#000" flood-opacity=".75"/>
      <feComposite in2="blur3" operator="in"/>
      <feComposite in="SourceGraphic"/>
    </filter>
    <linearGradient id="linear-gradient23" x1="72.93" y1="68.77" x2="88.94" y2="96.49" xlink:href="#linear-gradient"/>
    <linearGradient id="linear-gradient24" x1="79.52" y1="80.2" x2="82.33" y2="85.06" xlink:href="#linear-gradient"/>
  </defs>
  <g class="st20">
    <g id="Layer_1">
      <g>
        <g class="st17">
          <polygon class="st13" points="141.54 82.68 148.71 60.61 130.02 47.03 122.92 25.05 99.72 25.01 80.94 11.37 62.25 24.95 39.15 24.92 31.95 46.97 13.17 60.61 20.31 82.58 13.14 104.54 31.89 118.21 39.06 140.28 62.16 140.28 80.83 153.89 99.62 140.28 122.83 140.28 129.97 118.31 148.68 104.76 141.54 82.68"/>
          <path class="st27" d="M80.83,154.18l-.14-.1-18.61-13.57h-23.19l-.05-.16-7.15-22-18.82-13.72.05-.16,7.15-21.89-7.17-22.06.14-.1,18.71-13.59,7.23-22.15h.17s23.03.04,23.03.04l18.77-13.63,18.85,13.69,23.3.04,7.13,22.07,18.77,13.63-7.2,22.16,7.16,22.17-.14.1-18.65,13.51-7.17,22.06h-23.3l-18.87,13.66ZM39.23,140.05h23.01l.06.04,18.53,13.51,18.72-13.55h23.11l7.11-21.88,18.64-13.5-7.11-21.99.02-.07,7.12-21.91-18.62-13.52-.02-.07-7.05-21.82-23.11-.04-.06-.04-18.64-13.54-18.62,13.52h-.07l-22.93-.04-7.18,21.97-.06.04-18.64,13.54,7.11,21.88-.02.07-7.12,21.8,18.68,13.61.02.07,7.12,21.91Z"/>
        </g>
        <g class="st1">
          <polygon class="st16" points="135.39 82.68 141.83 62.85 125.04 50.65 118.66 30.89 97.81 30.86 80.94 18.61 64.15 30.81 43.39 30.77 36.92 50.59 20.05 62.85 26.46 82.59 20.02 102.32 36.87 114.6 43.31 134.43 64.07 134.43 80.84 146.66 97.73 134.43 118.58 134.43 124.99 114.69 141.8 102.51 135.39 82.68"/>
          <path class="st27" d="M80.84,146.85l-.09-.07-16.73-12.2h-20.82l-.04-.11-6.43-19.78-16.9-12.32.03-.11,6.43-19.68-6.43-19.8.09-.07,16.83-12.23,6.49-19.88h.11l20.71.03,16.84-12.24.09.07,16.83,12.22,20.91.03.04.11,6.37,19.7,16.84,12.24-.03.11-6.43,19.78,6.43,19.9-.09.07-16.77,12.15-6.43,19.8h-20.91l-16.94,12.26ZM43.42,134.28h20.7l.04.03,16.68,12.16,16.84-12.19h20.79l6.4-19.68.04-.03,16.72-12.11-6.39-19.78v-.05s6.42-19.72,6.42-19.72l-16.74-12.16-.02-.05-6.35-19.65-20.79-.03-.04-.03-16.78-12.19-16.74,12.16h-.05l-20.65-.03-6.46,19.76-.04.03-16.78,12.19,6.4,19.68v.05s-6.43,19.62-6.43,19.62l16.8,12.25.02.05,6.41,19.72Z"/>
        </g>
        <g>
          <polygon class="st37" points="31.1 98.74 35.87 84.13 31.46 84.12 27.11 97.44 26.16 100.33 28.63 102.13 40.01 110.43 43.58 107.84 31.1 98.74"/>
          <polygon class="st6" points="31.46 81.06 35.87 81.07 31.12 66.45 43.62 57.37 40.06 54.77 28.66 63.05 26.19 64.84 27.13 67.74 31.46 81.06"/>
          <polygon class="st0" points="116.52 54.93 120.09 52.34 115.79 39.02 114.85 36.11 111.8 36.11 97.71 36.09 96.35 40.28 111.79 40.31 116.52 54.93"/>
          <polygon class="st30" points="130.75 66.45 125.98 81.14 130.39 81.14 134.75 67.74 135.69 64.84 133.22 63.05 121.89 54.82 118.32 57.41 130.75 66.45"/>
          <polygon class="st26" points="45.38 110.32 41.81 112.91 46.16 126.3 47.1 129.2 64.16 129.2 65.52 125.01 50.15 125.01 45.38 110.32"/>
          <polygon class="st29" points="50.23 36.01 47.18 36.01 46.23 38.91 41.86 52.3 45.42 54.89 50.22 40.21 65.59 40.23 64.23 36.03 50.23 36.01"/>
          <polygon class="st35" points="111.73 125.01 96.28 125.01 97.64 129.2 114.78 129.2 115.72 126.3 120.05 112.98 116.48 110.39 111.73 125.01"/>
          <polygon class="st24" points="130.39 84.2 125.98 84.2 130.73 98.9 118.28 107.91 121.85 110.51 133.19 102.3 135.66 100.51 134.72 97.61 130.39 84.2"/>
          <polygon class="st11" points="80.94 25.07 78.47 26.86 67.14 35.09 68.5 39.29 80.94 30.25 93.44 39.33 94.8 35.14 83.41 26.86 80.94 25.07"/>
          <polygon class="st8" points="80.86 135.01 68.43 125.95 67.07 130.15 78.38 138.4 80.85 140.2 83.32 138.41 94.73 130.15 93.37 125.95 80.86 135.01"/>
        </g>
        <path class="st2" d="M34.17,85.36h-1.82s-4.74,14.51-4.74,14.51l12.4,9.04,1.47-1.07-11.84-8.63,4.52-13.85ZM27.64,65.31l4.72,14.52h1.82s-4.5-13.86-4.5-13.86l11.85-8.61-1.47-1.07-12.42,9.02ZM98.61,37.32l-.56,1.73,14.65.02,4.48,13.86,1.47-1.07-4.69-14.53-15.34-.02ZM127.68,79.91h1.82s4.74-14.59,4.74-14.59l-12.35-8.97-1.48,1.07,11.79,8.56-4.53,13.93ZM44.73,112.31l-1.47,1.07,4.74,14.59h15.27l.56-1.73h-14.57l-4.53-13.93ZM48.07,37.24l-4.77,14.59,1.47,1.07,4.55-13.92,14.57.02-.56-1.73-15.27-.02ZM112.62,126.24h-14.65l.56,1.73h15.34l4.72-14.52-1.47-1.07-4.5,13.86ZM127.67,85.43l4.5,13.94-11.8,8.55,1.47,1.07,12.36-8.95-4.72-14.6h-1.82ZM68.59,35.56l.56,1.73,11.79-8.56,11.85,8.61.56-1.73-12.42-9.02-12.35,8.97ZM80.85,136.53l-11.77-8.58-.56,1.73,12.33,8.99,12.43-9-.56-1.73-11.86,8.59Z"/>
        <g class="st32">
          <polygon class="st34" points="121.89 82.58 126.73 67.71 114.13 58.56 109.34 43.75 93.71 43.72 81.06 34.53 68.46 43.68 52.9 43.66 48.04 58.52 35.39 67.71 40.2 82.52 35.37 97.32 48 106.53 52.83 121.4 68.4 121.4 80.98 130.57 93.65 121.4 109.28 121.4 114.09 106.59 126.7 97.46 121.89 82.58"/>
          <path class="st7" d="M80.98,130.76l-.09-.07-12.54-9.14h-15.63l-.04-.11-4.82-14.82-12.69-9.25.03-.11,4.82-14.75-4.83-14.86.09-.07,12.61-9.16,4.87-14.92h.11l15.52.03,12.64-9.19.09.07,12.61,9.16,15.7.02.04.11,4.77,14.77,12.64,9.19-.03.11-4.82,14.82,4.83,14.94-.09.07-12.57,9.1-4.83,14.87h-15.7l-12.72,9.21ZM52.95,121.25h15.51l.04.03,12.49,9.1,12.62-9.13h15.57l4.79-14.75.04-.03,12.52-9.06-4.79-14.82v-.05s4.81-14.76,4.81-14.76l-12.54-9.11-.02-.05-4.75-14.71-15.57-.02-.04-.03-12.56-9.12-12.54,9.11h-.05l-15.46-.03-4.84,14.8-.04.03-12.56,9.13,4.79,14.75v.05s-4.82,14.69-4.82,14.69l12.59,9.17.02.05,4.8,14.76Z"/>
        </g>
        <g>
          <g>
            <path class="st12" d="M106.08,117.36h-50.05c-.16,0-.3-.1-.35-.25l-15.47-47.6c-.05-.15,0-.32.13-.41l40.49-29.42c.13-.09.3-.09.43,0l40.49,29.42c.13.09.18.26.13.41l-15.47,47.6c-.05.15-.19.25-.35.25ZM56.3,116.63h49.52l15.3-47.1-40.06-29.11-40.06,29.11,15.3,47.1Z"/>
            <path class="st22" d="M80.99,125.49c-.08,0-.15-.02-.21-.07l-40.45-29.48c-.13-.09-.18-.26-.13-.41l15.54-47.58c.05-.15.19-.25.35-.25h0l50.05.08c.16,0,.3.1.35.25l15.39,47.63c.05.15,0,.31-.13.41l-40.54,29.36c-.06.05-.14.07-.21.07ZM40.97,95.51l40.02,29.17,40.11-29.04-15.23-47.12-49.52-.08-15.38,47.07Z"/>
          </g>
          <path class="st36" d="M81.05,125.56c-.19,0-.36-.13-.41-.31l-6.4-21.72-17.95,13.81c-.15.12-.36.12-.52,0-.15-.11-.22-.31-.15-.49l7.59-21.34-22.64.63c-.19.03-.36-.12-.42-.3-.06-.18,0-.38.17-.49l18.68-12.8-18.68-12.8c-.16-.11-.23-.31-.17-.49.06-.18.22-.29.42-.3l22.64.63-7.59-21.34c-.06-.18,0-.38.15-.49.15-.11.37-.11.52,0l17.95,13.81,6.4-21.72c.11-.37.72-.37.83,0l6.4,21.72,17.95-13.81c.15-.12.36-.12.52,0,.15.11.22.31.15.49l-7.59,21.34,22.64-.63c.23.02.36.12.42.3.06.18,0,.38-.17.49l-18.68,12.8,18.68,12.8c.16.11.23.31.17.49-.06.18-.2.32-.42.3l-22.64-.63,7.59,21.34c.06.18,0,.38-.15.49-.16.11-.37.11-.52,0l-17.95-13.81-6.4,21.72c-.05.18-.22.31-.41.31ZM74.47,102.37s.09,0,.13.02c.14.04.24.15.28.29l6.16,20.92,6.16-20.92c.04-.14.15-.24.28-.29.13-.05.28-.02.4.07l17.28,13.3-7.31-20.55c-.05-.13-.03-.28.06-.4.08-.11.19-.19.36-.18l21.8.6-17.99-12.33c-.12-.08-.19-.21-.19-.36s.07-.28.19-.36l17.99-12.33-21.8.6c-.17,0-.28-.06-.36-.18-.08-.12-.11-.26-.06-.4l7.31-20.55-17.28,13.3c-.11.09-.26.11-.4.07-.14-.04-.24-.15-.28-.29l-6.16-20.92-6.16,20.92c-.04.14-.15.24-.28.29-.14.04-.29.02-.4-.07l-17.28-13.3,7.31,20.55c.05.13.03.28-.06.4-.08.11-.23.18-.36.18l-21.8-.6,17.99,12.33c.12.08.19.21.19.36s-.07.28-.19.36l-17.99,12.33,21.8-.6c.14,0,.28.06.36.18.08.12.11.26.06.4l-7.31,20.55,17.28-13.3c.08-.06.17-.09.26-.09Z"/>
          <path class="st28" d="M67.48,82.69l-4.07-12.51c-.04-.13-.02-.28.06-.39.08-.11.21-.18.35-.18h13.16v.86h-12.56l3.88,11.95-.82.27Z"/>
          <path class="st31" d="M91.94,90.63l-.51-.7,10.16-7.38-6.1-4.43c-.15-.11-.21-.31-.16-.48l2.33-7.17h-12.56v-.86h13.16c.14,0,.27.07.35.18.08.11.1.26.06.39l-2.41,7.44,6.32,4.59c.11.08.18.21.18.35s-.07.27-.18.35l-10.64,7.73Z"/>
          <path class="st14" d="M74.47,103.23s-.09,0-.13-.02c-.13-.04-.23-.15-.28-.28l-4.06-12.51.82-.27,3.88,11.95,10.16-7.38.51.7-10.64,7.73c-.07.05-.16.08-.25.08Z"/>
          <path class="st33" d="M87.62,103.23c-.09,0-.18-.03-.25-.08l-10.64-7.73.51-.7,10.16,7.38,3.88-11.95.82.27-4.07,12.51c-.04.13-.15.23-.28.28-.04.01-.09.02-.13.02Z"/>
          <path class="st9" d="M94.61,82.69l-.82-.27,1.46-4.48-3.81-2.77c-.07-.05-.13-.13-.16-.22l-3.88-11.95-10.16,7.38-.51-.7,10.64-7.73c.11-.08.26-.11.39-.06.13.04.23.15.28.28l4.02,12.38,3.95,2.87c.15.11.21.31.16.48l-1.55,4.78Z"/>
          <path class="st21" d="M70.15,90.63l-10.64-7.73c-.11-.08-.18-.21-.18-.35s.07-.27.18-.35l10.64-7.73.51.7-10.16,7.38,10.16,7.38-.51.7Z"/>
          <path class="st25" d="M76.98,95.5h-13.16c-.14,0-.27-.07-.35-.18-.08-.11-.1-.26-.06-.39l4.07-12.51.82.27-3.88,11.95h12.56v.86Z"/>
          <path class="st3" d="M70.81,74.95l-.82-.27,4.06-12.51c.04-.13.15-.23.28-.28.13-.04.28-.02.39.06l10.64,7.73-.51.7-10.16-7.38-3.88,11.95Z"/>
          <path class="st18" d="M98.27,95.5h-13.16v-.86h12.56l-3.88-11.95.82-.27,4.07,12.51c.04.13.02.28-.06.39-.08.11-.21.18-.35.18Z"/>
        </g>
        <path class="st19" d="M104.07,75.12l-6.38-4.64-2.43-7.51h-7.92s-6.41-4.67-6.41-4.67l-6.38,4.63h-7.89s-2.46,7.52-2.46,7.52l-6.41,4.66,2.43,7.5-2.45,7.49,6.4,4.67,2.45,7.53h7.89l6.37,4.65,6.42-4.65h7.93l2.43-7.51,6.39-4.62-2.43-7.53,2.45-7.53Z"/>
        <path class="st5" d="M68.39,92.39l-1.26.91,1.53,4.72.33,1.02h6.01l.48-1.48h-5.42l-1.68-5.18ZM63.48,82.08h1.56s-1.68-5.15-1.68-5.15l4.41-3.2-1.26-.92-4.02,2.92-.87.63.33,1.02,1.53,4.7ZM93.48,72.87l1.26-.91-1.52-4.7-.33-1.02h-1.08s-4.97,0-4.97,0l-.48,1.48h5.45s1.67,5.17,1.67,5.17ZM98.5,76.92l-1.68,5.18h1.56s1.53-4.72,1.53-4.72l.33-1.02-.87-.63-3.99-2.9-1.26.91,4.39,3.19ZM63.36,88.31l1.68-5.15h-1.56s-1.53,4.69-1.53,4.69l-.33,1.02.87.63,4.01,2.93,1.26-.91-4.4-3.21ZM98.37,83.19h-1.56s1.68,5.18,1.68,5.18l-4.39,3.18,1.26.92,4-2.9.87-.63-.33-1.02-1.53-4.73ZM70.1,66.19h-1.08s-.33,1.02-.33,1.02l-1.54,4.72,1.26.92,1.69-5.18h5.42s-.48-1.47-.48-1.47h-4.94ZM91.79,97.57h-5.45l.48,1.48h6.04l.33-1.02,1.53-4.7-1.26-.92-1.68,5.16ZM80.93,62.33l-.87.63-4,2.9.48,1.48,4.39-3.19,4.41,3.2.48-1.48-4.02-2.92-.87-.63ZM80.9,101.1l-4.38-3.19-.48,1.48,3.99,2.91.87.63.87-.63,4.02-2.91-.48-1.48-4.41,3.19Z"/>
        <path class="st10" d="M94.62,82.65l1.48-4.56.14-.43-.36-.26-3.86-2.81-1.47-4.54-.14-.43h-.45s-4.79,0-4.79,0l-3.88-2.81-.36-.26-.36.26-3.86,2.8h-4.77s-.45,0-.45,0l-.14.43-1.49,4.56-3.88,2.82-.36.26.14.43,1.47,4.54-1.48,4.53-.14.43.36.26,3.87,2.83,1.48,4.56.14.43h5.22l3.85,2.81.36.26.36-.26,3.88-2.81h5.24l.14-.43,1.47-4.54,3.86-2.8.36-.26-.14-.43-1.47-4.56ZM95.51,77.9h0s0,0,0,0h0ZM89.96,70.24v.03s-.03-.03-.03-.03h.03ZM80.93,67.3h0s-.01,0-.01,0h0ZM71.94,70.21h.03s-.04.03-.04.03v-.03ZM66.35,77.91h0s0-.02,0-.02v.02ZM66.34,87.35h0s0,0,0,0h0ZM80.91,97.97h-.02s.03-.01.03-.01h-.02ZM89.94,95.04h0,0s0,0,0,0ZM95.37,87.49l-3.76,2.72-8.31-6.06-.04-.03h-.06v.16s-.08.12-.08.12l8.28,6.03.09-.12h0s-1.47,4.54-1.47,4.54l-7.3-10.04-.25.18,7.3,10.04h-4.78l.11-.04-3.16-9.75-.29.1,3.16,9.75.13-.04-3.85,2.79v-12.41h-.31v12.42l-3.75-2.73,3.18-9.78-.29-.1-3.17,9.74.14.05h0s-4.77,0-4.77,0l7.29-10.05-.25-.18-7.29,10.05-1.48-4.55.07.1,8.29-6-.18-.25-8.29,6.01.09.13-3.85-2.81,11.79-3.82-.1-.29-11.81,3.83,1.49-4.56v.14s10.23.01,10.23.01v-.31s-10.23-.01-10.23-.01v.16s-1.48-4.55-1.48-4.55l11.8,3.84.1-.29-11.79-3.84,3.84-2.79-.07.09,8.26,6.03.04.03h.06v-.16s.08-.12.08-.12l-8.26-6.03-.07.1,1.47-4.5,7.29,10.04h.01s.22-.2.22-.2l-7.3-10.05h4.79s-.12.05-.12.05l3.15,9.75.29-.09-3.15-9.75-.14.04,3.85-2.79v12.41h.31v-12.41l3.88,2.82-.14-.05-3.18,9.73.29.1,3.18-9.73-.15-.05h4.77s-7.29,10.03-7.29,10.03l-.03.04v.06h.16s.12.08.12.08l7.31-10.05,1.47,4.55-.08-.11-8.3,6.02.18.25,8.3-6.02-.08-.11,3.85,2.8-11.82,3.84.09.29,11.81-3.84-1.48,4.57,1.47,4.55-11.8-3.84-.09.29,11.82,3.85ZM95.49,87.4v-.03s.02.02.02.02h-.02ZM93.96,82.51l-10.24-.02v.31s10.23.02,10.23.02v-.31Z"/>
        <g>
          <path class="st15" d="M83.73,82.63c0,1.55-1.26,2.81-2.81,2.81s-2.81-1.26-2.81-2.81,1.26-2.81,2.81-2.81,2.81,1.26,2.81,2.81Z"/>
          <path class="st23" d="M80.93,85.75c-1.72,0-3.11-1.4-3.11-3.11s1.4-3.11,3.11-3.11,3.11,1.4,3.11,3.11-1.4,3.11-3.11,3.11ZM80.93,80.13c-1.38,0-2.5,1.12-2.5,2.5s1.12,2.5,2.5,2.5,2.5-1.12,2.5-2.5-1.12-2.5-2.5-2.5Z"/>
        </g>
        <path class="st4" d="M81.02,105.77l-6.08-4.43h-7.53l-.07-.21-2.27-6.98-6.11-4.45,2.34-7.15-2.32-7.16,6.11-4.44,2.35-7.19h7.53s6.09-4.41,6.09-4.41l6.12,4.44h7.56s2.31,7.17,2.31,7.17l6.09,4.42-2.34,7.19,2.32,7.19-6.1,4.41-2.32,7.16h-7.56l-6.12,4.43ZM67.86,100.72h7.28l.08.06,5.8,4.23,5.92-4.29h7.31l2.25-6.92,5.9-4.27-2.25-6.96.03-.1,2.23-6.86-5.89-4.28-.03-.1-2.21-6.83h-7.31s-5.92-4.31-5.92-4.31l-5.89,4.28h-7.28s-2.27,6.94-2.27,6.94l-5.91,4.3,2.25,6.92-.03.1-2.23,6.82,5.91,4.31,2.26,6.95Z"/>
        <path class="st4" d="M80.96,144.38l-.18-.13-16.02-11.68h-20.05l-.07-.21-6.15-18.93-16.27-11.86,6.22-19.05-6.19-19.06,16.29-11.83,6.25-19.14,20.05.03,16.22-11.78,16.29,11.83,20.13.03.07.21,6.09,18.86,16.22,11.78-6.22,19.15,6.19,19.16-16.24,11.76-6.19,19.06h-20.13l-16.31,11.81ZM45.17,131.95h19.8l.08.06,15.92,11.6,16.1-11.66h19.89l6.12-18.83.08-.06,15.95-11.55-6.12-18.92.03-.1,6.11-18.82-16.02-11.64-.03-.1-6.06-18.74-19.89-.03-.08-.06-16.01-11.63-16.02,11.64-19.8-.03-6.17,18.9-.08.06-16.01,11.63,6.12,18.83-.03.1-6.12,18.72,16.07,11.71.03.1,6.11,18.82Z"/>
      </g>
    </g>
  </g>
</svg>