<?xml version="1.0" encoding="UTF-8"?>
<svg xmlns="http://www.w3.org/2000/svg" xmlns:xlink="http://www.w3.org/1999/xlink" viewBox="0 0 92.51 147.86">
  <defs>
    <style>
      .cls-1 {
        fill: url(#radial-gradient-9);
      }

      .cls-1, .cls-2, .cls-3, .cls-4, .cls-5, .cls-6, .cls-7 {
        mix-blend-mode: screen;
      }

      .cls-8 {
        fill: url(#linear-gradient-15);
      }

      .cls-9 {
        fill: url(#linear-gradient-13);
      }

      .cls-10 {
        fill: url(#linear-gradient-2);
      }

      .cls-11 {
        fill: url(#linear-gradient-10);
      }

      .cls-12 {
        fill: url(#linear-gradient-12);
      }

      .cls-2 {
        fill: url(#radial-gradient-6);
      }

      .cls-3 {
        fill: url(#radial-gradient-5);
      }

      .cls-13 {
        fill: url(#linear-gradient-4);
      }

      .cls-14 {
        fill: url(#radial-gradient);
      }

      .cls-15 {
        fill: url(#linear-gradient-3);
      }

      .cls-16 {
        fill: url(#linear-gradient-5);
      }

      .cls-17 {
        isolation: isolate;
      }

      .cls-18 {
        fill: url(#linear-gradient-8);
      }

      .cls-4 {
        fill: url(#radial-gradient-3);
      }

      .cls-19 {
        fill: url(#linear-gradient);
        filter: url(#drop-shadow-1);
      }

      .cls-20 {
        fill: url(#linear-gradient-14);
      }

      .cls-21 {
        fill: url(#linear-gradient-20);
      }

      .cls-22 {
        fill: url(#radial-gradient-4);
      }

      .cls-23 {
        fill: url(#linear-gradient-17);
      }

      .cls-24 {
        fill: url(#linear-gradient-7);
      }

      .cls-25 {
        fill: url(#linear-gradient-9);
      }

      .cls-26 {
        fill: url(#linear-gradient-11);
      }

      .cls-27 {
        fill: url(#linear-gradient-19);
      }

      .cls-28 {
        fill: url(#linear-gradient-6);
      }

      .cls-6 {
        fill: url(#radial-gradient-2);
      }

      .cls-29 {
        fill: url(#radial-gradient-7);
      }

      .cls-30 {
        fill: url(#linear-gradient-16);
      }

      .cls-7 {
        fill: url(#radial-gradient-8);
      }

      .cls-31 {
        fill: url(#linear-gradient-18);
      }
    </style>
    <linearGradient id="linear-gradient" x1="-303.72" y1="-183.64" x2="-26.18" y2="-183.64" gradientUnits="userSpaceOnUse">
      <stop offset="0" stop-color="#fde7a4"/>
      <stop offset=".19" stop-color="#e6ba6b"/>
      <stop offset=".29" stop-color="#dda853"/>
      <stop offset=".58" stop-color="#c5862d"/>
      <stop offset=".85" stop-color="#b46d11"/>
    </linearGradient>
    <filter id="drop-shadow-1" x="-347.02" y="-372.14" width="364" height="377" filterUnits="userSpaceOnUse">
      <feOffset dx="0" dy="0"/>
      <feGaussianBlur result="blur" stdDeviation="14.14"/>
      <feFlood flood-color="#000" flood-opacity=".75"/>
      <feComposite in2="blur" operator="in"/>
      <feComposite in="SourceGraphic"/>
    </filter>
    <linearGradient id="linear-gradient-2" x1="42.46" y1="5.23" x2="50.93" y2="5.23" gradientUnits="userSpaceOnUse">
      <stop offset=".15" stop-color="#b46d11"/>
      <stop offset=".42" stop-color="#c5862d"/>
      <stop offset=".71" stop-color="#dda853"/>
      <stop offset=".81" stop-color="#e6ba6b"/>
      <stop offset="1" stop-color="#fde7a4"/>
    </linearGradient>
    <linearGradient id="linear-gradient-3" x1="33.03" y1="16.77" x2="60.36" y2="16.77" xlink:href="#linear-gradient-2"/>
    <linearGradient id="linear-gradient-4" x1="29.39" y1="109.15" x2="64" y2="109.15" xlink:href="#linear-gradient-2"/>
    <linearGradient id="linear-gradient-5" x1="43.95" y1="120.6" x2="49.44" y2="120.6" xlink:href="#linear-gradient-2"/>
    <linearGradient id="linear-gradient-6" x1="45.46" y1="124.51" x2="47.93" y2="124.51" xlink:href="#linear-gradient-2"/>
    <linearGradient id="linear-gradient-7" x1="23.2" y1="36.52" x2="71.16" y2="36.52" xlink:href="#linear-gradient-2"/>
    <linearGradient id="linear-gradient-8" x1="28" y1="99.27" x2="28" y2="-22.2" xlink:href="#linear-gradient-2"/>
    <linearGradient id="linear-gradient-9" x1="46.7" y1="99.27" x2="46.7" y2="-22.2" xlink:href="#linear-gradient-2"/>
    <linearGradient id="linear-gradient-10" x1="46.7" y1="105.91" x2="46.7" y2="42.31" gradientUnits="userSpaceOnUse">
      <stop offset="0" stop-color="#d47800"/>
      <stop offset="1" stop-color="#401a00"/>
    </linearGradient>
    <linearGradient id="linear-gradient-11" x1="28.88" y1="105.91" x2="28.88" y2="42.31" xlink:href="#linear-gradient-10"/>
    <linearGradient id="linear-gradient-12" x1="65.39" y1="99.27" x2="65.39" y2="-22.2" xlink:href="#linear-gradient-2"/>
    <linearGradient id="linear-gradient-13" x1="64.51" y1="105.91" x2="64.51" y2="42.31" xlink:href="#linear-gradient-10"/>
    <linearGradient id="linear-gradient-14" x1="15.05" y1="34.93" x2="55.63" y2="34.93" xlink:href="#linear-gradient-2"/>
    <linearGradient id="linear-gradient-15" x1="34.25" y1="34.16" x2="73.51" y2="34.16" xlink:href="#linear-gradient-2"/>
    <linearGradient id="linear-gradient-16" x1="42.35" y1="34.93" x2="83.09" y2="34.93" xlink:href="#linear-gradient-2"/>
    <linearGradient id="linear-gradient-17" x1="46.7" y1="109.78" x2="46.7" y2="95.46" xlink:href="#linear-gradient-2"/>
    <linearGradient id="linear-gradient-18" x1="31.37" y1="100.36" x2="31.37" y2="112.23" xlink:href="#linear-gradient-2"/>
    <linearGradient id="linear-gradient-19" x1="62.02" y1="100.36" x2="62.02" y2="112.23" xlink:href="#linear-gradient-2"/>
    <linearGradient id="linear-gradient-20" x1="46.7" y1="100.36" x2="46.7" y2="112.23" xlink:href="#linear-gradient-2"/>
    <radialGradient id="radial-gradient" cx="216.98" cy="-113.06" fx="216.98" fy="-113.06" r="40.47" gradientTransform="translate(-272.19 333.03) scale(1.47 2.07)" gradientUnits="userSpaceOnUse">
      <stop offset="0" stop-color="#fff"/>
      <stop offset=".01" stop-color="#f9edd7"/>
      <stop offset=".02" stop-color="#f4daad"/>
      <stop offset=".04" stop-color="#f0ca89"/>
      <stop offset=".05" stop-color="#ecbd6c"/>
      <stop offset=".07" stop-color="#e9b356"/>
      <stop offset=".09" stop-color="#e7ac46"/>
      <stop offset=".1" stop-color="#e6a83c"/>
      <stop offset=".13" stop-color="#e6a73a"/>
      <stop offset=".16" stop-color="#c58f31" stop-opacity=".86"/>
      <stop offset=".21" stop-color="#916924" stop-opacity=".63"/>
      <stop offset=".26" stop-color="#644919" stop-opacity=".44"/>
      <stop offset=".3" stop-color="#402e10" stop-opacity=".28"/>
      <stop offset=".35" stop-color="#241a09" stop-opacity=".16"/>
      <stop offset=".4" stop-color="#100b04" stop-opacity=".07"/>
      <stop offset=".45" stop-color="#040201" stop-opacity=".02"/>
      <stop offset=".5" stop-color="#000" stop-opacity="0"/>
    </radialGradient>
    <radialGradient id="radial-gradient-2" cx="-719.37" cy="-14.58" fx="-719.37" fy="-14.58" r="32.95" gradientTransform="translate(355.95 119.3) scale(.43 1.36)" xlink:href="#radial-gradient"/>
    <radialGradient id="radial-gradient-3" cx="927.13" cy="434.1" fx="927.13" fy="434.1" r="32.95" gradientTransform="translate(482.03 -443.6) rotate(90) scale(.59 1)" xlink:href="#radial-gradient"/>
    <radialGradient id="radial-gradient-4" cx="145.05" cy="-95.13" fx="145.05" fy="-95.13" r="19.11" gradientTransform="translate(-135.08 336.59) rotate(-12.67) scale(1.47 2.07)" xlink:href="#radial-gradient"/>
    <radialGradient id="radial-gradient-5" cx="-959.2" cy="12.51" fx="-959.2" fy="12.51" r="15.56" gradientTransform="translate(430.34 -9.25) rotate(-12.66) scale(.43 1.36) skewX(.01)" xlink:href="#radial-gradient"/>
    <radialGradient id="radial-gradient-6" cx="988.14" cy="540.34" fx="988.14" fy="540.34" r="15.56" gradientTransform="translate(430.37 -585.26) rotate(77.33) scale(.59 1)" xlink:href="#radial-gradient"/>
    <radialGradient id="radial-gradient-7" cx="-121.33" cy="-137.8" fx="-121.33" fy="-137.8" r="19.11" gradientTransform="translate(-175.86 336.59) rotate(-167.33) scale(1.47 -2.07)" xlink:href="#radial-gradient"/>
    <radialGradient id="radial-gradient-8" cx="-1867.66" cy="-52.38" fx="-1867.66" fy="-52.38" r="15.56" gradientTransform="translate(-741.27 -9.25) rotate(-167.34) scale(.43 -1.36) skewX(.01)" xlink:href="#radial-gradient"/>
    <radialGradient id="radial-gradient-9" cx="837.72" cy="932.4" fx="837.72" fy="932.4" r="15.56" gradientTransform="translate(-741.3 -585.26) rotate(102.67) scale(.59 -1)" xlink:href="#radial-gradient"/>
  </defs>
  <g class="cls-17">
    <g id="Layer_1" data-name="Layer 1">
      <polygon class="cls-19" points="-40.86 -183.54 -26.18 -228.72 -64.44 -256.52 -78.99 -301.52 -126.49 -301.59 -164.92 -329.51 -203.18 -301.72 -250.47 -301.79 -265.22 -256.64 -303.65 -228.72 -289.03 -183.74 -303.72 -138.79 -265.34 -110.81 -250.66 -65.63 -203.36 -65.63 -165.15 -37.77 -126.67 -65.63 -79.17 -65.63 -64.56 -110.61 -26.26 -138.35 -40.86 -183.54"/>
      <g>
        <g>
          <path class="cls-10" d="M50.93,5.23c0,2.34-1.89,4.23-4.23,4.23s-4.23-1.89-4.23-4.23,1.89-4.23,4.23-4.23,4.23,1.89,4.23,4.23Z"/>
          <path class="cls-15" d="M46.7,9.16c-16.37,3.38-13.47,15.22-13.47,15.22h26.94s2.9-11.84-13.47-15.22Z"/>
          <path class="cls-13" d="M46.7,118.78c20.72-4.28,17.05-19.27,17.05-19.27H29.65s-3.67,14.99,17.05,19.27Z"/>
          <path class="cls-16" d="M49.44,120.6c0,1.51-1.23,2.74-2.74,2.74s-2.74-1.23-2.74-2.74,1.23-2.74,2.74-2.74,2.74,1.23,2.74,2.74Z"/>
          <path class="cls-28" d="M47.93,124.51c0,.68-.55,1.23-1.23,1.23s-1.23-.55-1.23-1.23.55-1.23,1.23-1.23,1.23.55,1.23,1.23Z"/>
          <path class="cls-24" d="M29.77,20.87h34.81c3.63,0,6.57,2.95,6.57,6.57v24.71H23.2v-24.71c0-3.63,2.95-6.57,6.57-6.57Z"/>
          <polygon class="cls-18" points="36.66 101.63 33.95 36.1 19.34 37.46 26.82 101.63 36.66 101.63"/>
          <polygon class="cls-25" points="46.7 36.1 33.95 36.1 36.66 101.63 46.7 101.63 56.73 101.63 59.44 36.1 46.7 36.1"/>
          <path class="cls-11" d="M56.66,50.59c-1.02-6.65-9.97-13.47-9.97-13.47,0,0-8.95,6.82-9.97,13.47-.48,3.14,1.57,51.04,1.57,51.04h16.79s2.05-47.9,1.57-51.04Z"/>
          <path class="cls-26" d="M32.26,51.58c-.55-6.65-6.52-13.47-6.52-13.47,0,0-2.55,7.88-2.54,13.47,0,3.15,5.04,50.04,5.04,50.04h6.32s-2.04-46.9-2.3-50.04Z"/>
          <polygon class="cls-12" points="56.73 101.63 59.44 36.1 74.06 37.46 66.57 101.63 56.73 101.63"/>
          <path class="cls-9" d="M61.13,51.58c.55-6.65,6.52-13.47,6.52-13.47,0,0,2.55,7.88,2.54,13.47,0,3.15-5.04,50.04-5.04,50.04h-6.32s2.04-46.9,2.3-50.04Z"/>
          <g>
            <polygon class="cls-20" points="16.73 33.71 33.74 32.23 33.95 36.1 17.37 37.64 16.73 33.71"/>
            <polygon class="cls-8" points="46.7 32.23 33.74 32.23 33.95 36.1 46.7 36.1 59.44 36.1 59.65 32.23 46.7 32.23"/>
            <polygon class="cls-30" points="76.66 33.71 59.65 32.23 59.44 36.1 76.02 37.64 76.66 33.71"/>
          </g>
          <path class="cls-23" d="M27.31,103.56h38.78v1.32c0,.94-.76,1.7-1.7,1.7H29.01c-.94,0-1.7-.76-1.7-1.7v-1.32h0Z"/>
          <g>
            <polygon class="cls-31" points="24.77 104.29 37.82 104.27 37.97 101.63 25.21 101.61 24.77 104.29"/>
            <polygon class="cls-27" points="68.62 104.29 55.57 104.27 55.42 101.63 68.18 101.61 68.62 104.29"/>
            <polygon class="cls-21" points="55.42 101.63 46.7 101.63 37.97 101.63 37.82 104.27 46.7 104.27 55.57 104.27 55.42 101.63"/>
          </g>
        </g>
        <g>
          <g>
            <g class="cls-5">
              <ellipse class="cls-14" cx="47.18" cy="99.51" rx="59.57" ry="83.58"/>
            </g>
            <g>
              <ellipse class="cls-6" cx="45.48" cy="99.51" rx="14.22" ry="44.72"/>
              <ellipse class="cls-4" cx="47.93" cy="99.51" rx="32.95" ry="19.3"/>
            </g>
          </g>
          <g>
            <g class="cls-5">
              <path class="cls-22" d="M57.59,91.89c4.78,21.27-3.63,41.28-18.79,44.69-15.16,3.41-31.33-11.08-36.11-32.35-4.78-21.27,3.63-41.28,18.79-44.69,15.16-3.41,31.33,11.08,36.11,32.35Z"/>
            </g>
            <g>
              <path class="cls-3" d="M36.69,96.59c2.56,11.38,1.7,21.27-1.92,22.08-3.62.81-8.63-7.75-11.19-19.14-2.56-11.38-1.7-21.27,1.92-22.08,3.62-.81,8.63,7.75,11.19,19.14Z"/>
              <path class="cls-2" d="M32.14,106.96c-8.39,1.88-16.08-.57-17.18-5.48-1.1-4.91,4.8-10.42,13.19-12.31,8.39-1.88,16.08.57,17.18,5.48,1.1,4.91-4.8,10.42-13.19,12.31Z"/>
            </g>
          </g>
          <g>
            <g class="cls-5">
              <path class="cls-29" d="M33.34,91.89c-4.78,21.27,3.63,41.28,18.79,44.69,15.16,3.41,31.33-11.08,36.11-32.35,4.78-21.27-3.63-41.28-18.79-44.69-15.16-3.41-31.33,11.08-36.11,32.35Z"/>
            </g>
            <g>
              <path class="cls-7" d="M54.24,96.59c-2.56,11.38-1.7,21.27,1.92,22.08,3.62.81,8.63-7.75,11.19-19.14,2.56-11.38,1.7-21.27-1.92-22.08-3.62-.81-8.63,7.75-11.19,19.14Z"/>
              <path class="cls-1" d="M58.79,106.96c8.39,1.88,16.08-.57,17.18-5.48,1.1-4.91-4.8-10.42-13.19-12.31-8.39-1.88-16.08.57-17.18,5.48-1.1,4.91,4.8,10.42,13.18,12.31Z"/>
            </g>
          </g>
        </g>
      </g>
    </g>
  </g>
</svg>