<?xml version="1.0" encoding="UTF-8"?>
<svg xmlns="http://www.w3.org/2000/svg" xmlns:xlink="http://www.w3.org/1999/xlink" viewBox="0 0 142.74 135.96">
  <defs>
    <style>
      .cls-1 {
        fill: url(#radial-gradient-9);
      }

      .cls-1, .cls-2, .cls-3, .cls-4, .cls-5, .cls-6, .cls-7, .cls-8, .cls-9, .cls-10 {
        mix-blend-mode: screen;
      }

      .cls-11 {
        fill: url(#linear-gradient-2);
      }

      .cls-12 {
        fill: url(#linear-gradient-10);
      }

      .cls-2 {
        fill: url(#radial-gradient-6);
      }

      .cls-3 {
        fill: url(#radial-gradient-5);
      }

      .cls-13 {
        fill: none;
      }

      .cls-14 {
        fill: url(#linear-gradient-4);
      }

      .cls-4 {
        fill: url(#radial-gradient-10);
      }

      .cls-15 {
        fill: url(#linear-gradient-3);
      }

      .cls-16 {
        filter: url(#drop-shadow-1);
      }

      .cls-17 {
        fill: url(#linear-gradient-5);
      }

      .cls-18 {
        isolation: isolate;
      }

      .cls-19 {
        fill: url(#radial-gradient);
        opacity: .8;
      }

      .cls-20 {
        fill: url(#linear-gradient-8);
      }

      .cls-5 {
        fill: url(#radial-gradient-3);
      }

      .cls-6 {
        fill: url(#radial-gradient-11);
      }

      .cls-7 {
        fill: url(#radial-gradient-4);
      }

      .cls-21 {
        fill: url(#linear-gradient-7);
      }

      .cls-8 {
        fill: url(#radial-gradient-7);
      }

      .cls-22 {
        fill: url(#linear-gradient-9);
      }

      .cls-23 {
        fill: url(#linear-gradient-11);
      }

      .cls-24 {
        fill: url(#linear-gradient-6);
      }

      .cls-9 {
        fill: url(#radial-gradient-2);
      }

      .cls-25 {
        fill: url(#linear-gradient);
      }

      .cls-10 {
        fill: url(#radial-gradient-8);
      }
    </style>
    <filter id="drop-shadow-1" x="13.82" y="5.93" width="128" height="135" filterUnits="userSpaceOnUse">
      <feOffset dx="5.94" dy="2.97"/>
      <feGaussianBlur result="blur" stdDeviation="3.65"/>
      <feFlood flood-color="#000" flood-opacity=".65"/>
      <feComposite in2="blur" operator="in"/>
      <feComposite in="SourceGraphic"/>
    </filter>
    <linearGradient id="linear-gradient" x1="59.82" y1="32.02" x2="-.39" y2="99.53" gradientUnits="userSpaceOnUse">
      <stop offset="0" stop-color="#fde7a4"/>
      <stop offset=".19" stop-color="#e6ba6b"/>
      <stop offset=".29" stop-color="#dda853"/>
      <stop offset=".58" stop-color="#c5862d"/>
      <stop offset=".85" stop-color="#b46d11"/>
    </linearGradient>
    <linearGradient id="linear-gradient-2" x1="69.57" y1="33.43" x2="42.23" y2="64.09" xlink:href="#linear-gradient"/>
    <linearGradient id="linear-gradient-3" x1="55.57" y1="31.02" x2="9.42" y2="82.76" xlink:href="#linear-gradient"/>
    <linearGradient id="linear-gradient-4" x1="82.67" y1="25.88" x2="69.97" y2="40.12" xlink:href="#linear-gradient"/>
    <linearGradient id="linear-gradient-5" x1="90.01" y1="33.26" x2="75.62" y2="49.39" xlink:href="#linear-gradient"/>
    <linearGradient id="linear-gradient-6" x1="49.98" y1="58.69" x2="21.4" y2="90.74" xlink:href="#linear-gradient"/>
    <linearGradient id="linear-gradient-7" x1="59.78" y1="99.19" x2="46.78" y2="113.77" xlink:href="#linear-gradient"/>
    <linearGradient id="linear-gradient-8" x1="109.95" y1="87.89" x2="65.35" y2="137.89" xlink:href="#linear-gradient"/>
    <linearGradient id="linear-gradient-9" x1="78.18" y1="69.79" x2="32.03" y2="121.53" xlink:href="#linear-gradient"/>
    <linearGradient id="linear-gradient-10" x1="110.06" y1="99.09" x2="77.21" y2="135.92" xlink:href="#linear-gradient"/>
    <linearGradient id="linear-gradient-11" x1="87.42" y1="56.63" x2="27.17" y2="124.18" xlink:href="#linear-gradient"/>
    <radialGradient id="radial-gradient" cx="179.71" cy="-89.84" fx="179.71" fy="-89.84" r="23.23" gradientTransform="translate(-164.11 156.97) scale(1.47 1.52)" gradientUnits="userSpaceOnUse">
      <stop offset="0" stop-color="#fff"/>
      <stop offset="0" stop-color="#fefdfc" stop-opacity="1"/>
      <stop offset=".01" stop-color="#f8e9cf" stop-opacity=".95"/>
      <stop offset=".02" stop-color="#f3d7a7" stop-opacity=".91"/>
      <stop offset=".03" stop-color="#efc885" stop-opacity=".88"/>
      <stop offset=".04" stop-color="#ecbc69" stop-opacity=".85"/>
      <stop offset=".06" stop-color="#e9b254" stop-opacity=".83"/>
      <stop offset=".07" stop-color="#e7ac45" stop-opacity=".81"/>
      <stop offset=".08" stop-color="#e6a83c" stop-opacity=".8"/>
      <stop offset=".11" stop-color="#e6a73a" stop-opacity=".8"/>
      <stop offset=".16" stop-color="#b4832d" stop-opacity=".63"/>
      <stop offset=".23" stop-color="#7d5b1f" stop-opacity=".44"/>
      <stop offset=".31" stop-color="#503a14" stop-opacity=".28"/>
      <stop offset=".38" stop-color="#2d200b" stop-opacity=".16"/>
      <stop offset=".46" stop-color="#140e05" stop-opacity=".07"/>
      <stop offset=".53" stop-color="#050301" stop-opacity=".02"/>
      <stop offset=".6" stop-color="#000" stop-opacity="0"/>
    </radialGradient>
    <radialGradient id="radial-gradient-2" cx="-290.48" cy="20.27" fx="-290.48" fy="20.27" r="12.15" gradientTransform="translate(225.77) scale(.43 1)" gradientUnits="userSpaceOnUse">
      <stop offset="0" stop-color="#fff"/>
      <stop offset="0" stop-color="#fefefe" stop-opacity="1"/>
      <stop offset=".01" stop-color="#f8e7db" stop-opacity=".95"/>
      <stop offset=".03" stop-color="#f2d3bd" stop-opacity=".9"/>
      <stop offset=".05" stop-color="#eec3a4" stop-opacity=".86"/>
      <stop offset=".06" stop-color="#eab691" stop-opacity=".84"/>
      <stop offset=".08" stop-color="#e7ad84" stop-opacity=".82"/>
      <stop offset=".1" stop-color="#e6a87c" stop-opacity=".8"/>
      <stop offset=".13" stop-color="#e6a77a" stop-opacity=".8"/>
      <stop offset=".17" stop-color="#b4835f" stop-opacity=".63"/>
      <stop offset=".23" stop-color="#7d5b42" stop-opacity=".44"/>
      <stop offset=".28" stop-color="#503a2a" stop-opacity=".28"/>
      <stop offset=".34" stop-color="#2d2017" stop-opacity=".16"/>
      <stop offset=".39" stop-color="#140e0a" stop-opacity=".07"/>
      <stop offset=".45" stop-color="#050302" stop-opacity=".02"/>
      <stop offset=".5" stop-color="#000" stop-opacity="0"/>
    </radialGradient>
    <radialGradient id="radial-gradient-3" cx="775.45" cy="153.55" fx="775.45" fy="153.55" r="12.15" gradientTransform="translate(253.95 -314.42) rotate(90) scale(.43 1)" xlink:href="#radial-gradient-2"/>
    <radialGradient id="radial-gradient-4" cx="2029.72" cy="67.82" fx="2029.72" fy="67.82" r="33.22" gradientTransform="translate(260.62 -226.73) rotate(101.77) scale(.17 1)" gradientUnits="userSpaceOnUse">
      <stop offset="0" stop-color="#e6a73a"/>
      <stop offset=".05" stop-color="#d19b3c" stop-opacity=".87"/>
      <stop offset=".15" stop-color="#ae8640" stop-opacity=".64"/>
      <stop offset=".25" stop-color="#907444" stop-opacity=".44"/>
      <stop offset=".35" stop-color="#786647" stop-opacity=".28"/>
      <stop offset=".45" stop-color="#655b49" stop-opacity=".16"/>
      <stop offset=".54" stop-color="#57534b" stop-opacity=".07"/>
      <stop offset=".64" stop-color="#4f4e4c" stop-opacity=".02"/>
      <stop offset=".74" stop-color="#4d4d4d" stop-opacity="0"/>
    </radialGradient>
    <radialGradient id="radial-gradient-5" cx="-184.17" cy="-171.13" fx="-184.17" fy="-171.13" r="33.22" gradientTransform="translate(127.74 -75.55) rotate(-168.23) scale(.17 1)" xlink:href="#radial-gradient-4"/>
    <radialGradient id="radial-gradient-6" cx="1212.07" cy="-129.64" fx="1212.07" fy="-129.64" r="26.21" gradientTransform="translate(225.5 -123.38) rotate(146.77) scale(.17 1) skewX(-.03)" xlink:href="#radial-gradient-4"/>
    <radialGradient id="radial-gradient-7" cx="-1343.67" cy="-31.6" fx="-1343.67" fy="-31.6" r="26.21" gradientTransform="translate(24.39 -110.67) rotate(-123.23) scale(.17 1) skewX(-.03)" xlink:href="#radial-gradient-4"/>
    <radialGradient id="radial-gradient-8" cx="1825.54" cy="233.08" fx="1825.54" fy="233.08" r="30.7" gradientTransform="translate(253.95 -255.82) rotate(90) scale(.17 1)" xlink:href="#radial-gradient-4"/>
    <radialGradient id="radial-gradient-9" cx="783.85" cy="-136.02" fx="783.85" fy="-136.02" r="30.7" gradientTransform="translate(154.59 -80.4) rotate(-180) scale(.17 1)" xlink:href="#radial-gradient-4"/>
    <radialGradient id="radial-gradient-10" cx="1755.61" cy="11.81" fx="1755.61" fy="11.81" r="24.22" gradientTransform="translate(240.94 -147.76) rotate(135) scale(.17 1)" xlink:href="#radial-gradient-4"/>
    <radialGradient id="radial-gradient-11" cx="-511.44" cy="-123.52" fx="-511.44" fy="-123.52" r="24.22" gradientTransform="translate(46.53 -93.41) rotate(-135) scale(.17 1)" xlink:href="#radial-gradient-4"/>
  </defs>
  <g class="cls-18">
    <g id="Layer_1" data-name="Layer 1">
      <g>
        <g class="cls-16">
          <g>
            <g>
              <g>
                <path class="cls-25" d="M57.82,42.1c-.09-.18-.27-.31-.4-.49-.09-2.44-.84-4.74-2.17-6.73-.44-.75-1.02-1.42-1.64-2.04-1.33-1.37-2.88-2.35-4.56-2.97-.49-.09-.93-.27-1.42-.44-.93-.22-1.82-.31-2.75-.35-.49-.44-.97-.84-1.51-1.2-.84-.62-1.77-1.11-2.75-1.51-.18-.04-.31-.09-.49-.13-.66.53-1.33,1.06-1.99,1.68,1.28.22,2.44.71,3.46,1.37.04,0,.09,0,.13.04-.09,0-.22.04-.31.09-1.95.4-3.81,1.37-5.45,2.75-.4-.35-.84-.66-1.28-.97-.53.49-1.02,1.02-1.46,1.55.44.27.89.58,1.28.89-1.55,1.86-2.52,4.03-2.88,6.25-.89-.62-1.86-1.15-2.88-1.51-.4.58-.8,1.2-1.2,1.82,1.06.35,2.04.89,2.92,1.55.35.22.66.49.97.8.09,1.46.35,2.92.89,4.3-1.37-.58-2.83-.84-4.3-.93-.84-.93-1.55-1.99-2.04-3.15-.4.75-.8,1.51-1.2,2.3.18.35.4.71.62,1.02-.44.09-.89.18-1.28.31-.4.89-.8,1.77-1.15,2.7,1.28-.66,2.66-.97,4.03-1.06h.13c1.06,1.02,2.35,1.82,3.68,2.44-1.33.58-2.61,1.37-3.68,2.39-.66-.04-1.33-.13-1.99-.31-1.06-.18-2.08-.58-3.06-1.15-.27.66-.49,1.33-.71,1.99.97.58,1.99.97,3.06,1.2.31.09.66.18.97.22-1.33,1.86-2.17,4.08-2.39,6.47-.04,0-.13,0-.18-.04-1.11-.09-2.17-.4-3.15-.84-.13.71-.27,1.42-.31,2.17.97.4,2.04.66,3.15.75.18.04.31.09.49.09.18,2.21.93,4.3,2.08,6.07-1.06-.22-2.04-.62-2.97-1.2-.84-.44-1.59-1.02-2.3-1.68-.27-.31-.53-.58-.8-.93-.09.53-.13,1.11-.13,1.64-.04.4-.04.8-.04,1.2.97.93,2.04,1.59,3.19,2.13,1.59.75,3.32,1.15,5.05,1.24,1.15,1.06,2.53,1.95,4.03,2.57h.04c1.46.62,3.1.93,4.78.93s3.32-.31,4.78-.89c1.55-.62,2.92-1.51,4.12-2.61,1.99-.09,3.99-.62,5.76-1.55,1.06-.62,2.08-1.33,2.97-2.26.04-.04.09-.09.13-.13,0-.35-.04-.66-.04-1.02,0-.8,0-1.59.04-2.44-.44.75-.97,1.46-1.64,2.13-.49.49-1.02.93-1.59,1.28-1.11.75-2.35,1.28-3.63,1.59,1.15-1.77,1.9-3.85,2.08-6.07.53-.04,1.11-.13,1.64-.22,1.2-.27,2.3-.66,3.37-1.24.09-.93.22-1.86.4-2.79-1.06.8-2.26,1.42-3.54,1.77-.58.18-1.24.31-1.86.35-.22-2.39-1.06-4.61-2.39-6.47,2.21-.35,4.39-1.33,6.25-2.88.04.04.09.13.13.18,1.02,1.28,1.73,2.75,2.04,4.3.31-1.15.62-2.26,1.06-3.37-.44-.93-1.06-1.77-1.73-2.57,1.42-1.68,2.39-3.63,2.83-5.76.53.89.97,1.86,1.24,2.88.4-.84.89-1.68,1.37-2.48-.49-1.11-1.15-2.13-1.95-3.01ZM47.36,31.61c.31.09.62.18.93.27,1.37.53,2.7,1.37,3.81,2.48,1.46,1.46,2.48,3.28,2.92,5.23-1.77-1.15-3.85-1.9-6.07-2.08-.18-2.21-.93-4.3-2.08-6.07.18.04.31.13.49.18ZM44,31.16c1.55,1.73,2.61,3.94,2.83,6.38-2.39.18-4.61,1.02-6.47,2.35-.35-2.21-1.33-4.39-2.88-6.25,1.9-1.55,4.16-2.35,6.51-2.48ZM46.79,39.67c-.22,2.39-1.28,4.56-2.83,6.25-1.51.09-2.92.35-4.34.93.58-1.37.84-2.83.93-4.3,1.68-1.59,3.85-2.66,6.25-2.88ZM35.98,45.34c-.58-1.37-1.37-2.61-2.39-3.72.09-2.3.89-4.56,2.39-6.47,1.55,1.9,2.35,4.16,2.44,6.47-1.02,1.11-1.82,2.35-2.44,3.72ZM38.42,59.29c-.09,2.3-.89,4.56-2.44,6.47-1.51-1.9-2.3-4.16-2.39-6.47,1.02-1.06,1.82-2.35,2.39-3.68.62,1.33,1.42,2.61,2.44,3.68ZM28.05,54.99c1.46-.04,2.92-.35,4.3-.89-.53,1.37-.8,2.84-.89,4.3-1.68,1.55-3.85,2.61-6.29,2.88.27-2.44,1.33-4.61,2.88-6.29ZM31.64,61.02c.35,2.26,1.33,4.39,2.88,6.25-1.9,1.55-4.21,2.39-6.51,2.48-1.55-1.73-2.61-3.9-2.84-6.33,2.39-.22,4.61-1.06,6.47-2.39ZM35.98,73.24c-2.08,0-4.08-.62-5.76-1.64,2.08-.44,4.08-1.37,5.76-2.84,1.73,1.46,3.68,2.39,5.76,2.84-1.64,1.02-3.63,1.64-5.76,1.64ZM44,69.75c-2.35-.09-4.61-.93-6.51-2.48,1.55-1.86,2.53-3.99,2.88-6.25,1.86,1.33,4.08,2.17,6.47,2.39-.22,2.44-1.28,4.61-2.83,6.33ZM46.79,61.28c-2.39-.27-4.56-1.33-6.25-2.88-.09-1.46-.35-2.92-.93-4.3,1.42.53,2.84.84,4.34.89,1.55,1.68,2.61,3.85,2.83,6.29ZM44.84,52.87c-1.11-1.02-2.35-1.82-3.72-2.39,1.37-.62,2.61-1.42,3.72-2.44,2.3.09,4.56.89,6.47,2.44-1.9,1.51-4.16,2.3-6.47,2.39ZM52.81,48.97c-1.86-1.55-4.03-2.52-6.25-2.88,1.33-1.86,2.17-4.08,2.39-6.47,2.44.27,4.61,1.28,6.33,2.84-.09,2.44-.97,4.7-2.48,6.51Z"/>
                <path class="cls-11" d="M79.21,26.42c-1.55.58-2.97,1.51-4.21,2.66-.93.04-1.82.13-2.75.35-.49.18-.93.35-1.42.44-1.68.62-3.23,1.59-4.56,2.97-.66.62-1.2,1.33-1.68,2.04-1.2,1.86-1.9,3.94-2.04,6.07,1.02-1.33,2.08-2.66,3.23-3.9.49-.97,1.15-1.9,1.99-2.7.93-.93,1.99-1.68,3.15-2.17.09-.09.18-.13.27-.22,2.44-1.99,5.09-3.81,7.89-5.32.27-.18.53-.35.84-.49-.22.09-.49.18-.71.27Z"/>
              </g>
              <path class="cls-15" d="M83.2,14.6c-.35-.04-.71-.09-1.11-.18-.22.75-.58,1.51-1.02,2.17-.18-.8-.4-1.55-.71-2.3-.8-.09-1.64-.18-2.48-.18.62,1.02.97,2.17,1.15,3.32.13.49.18.93.18,1.42-1.68,1.55-3.9,2.61-6.33,2.84-.13-1.51-.53-2.97-1.15-4.3-.31-.75-.75-1.51-1.24-2.17,1.24-.18,2.48-.58,3.63-1.15-3.1.04-6.11.31-9.04.89.89.27,1.86.4,2.79.44.62.66,1.15,1.37,1.55,2.17.75,1.24,1.2,2.61,1.33,4.12-2.44-.27-4.61-1.33-6.29-2.88,0-.18,0-.31-.04-.49-.04-1.06-.27-2.13-.62-3.14-1.28.27-2.57.58-3.81.93.44,1.02,1.06,1.99,1.77,2.88.18.22.35.49.58.71-.04,2.3-.84,4.56-2.39,6.47-1.42-1.73-2.21-3.81-2.35-5.89-.04-.18-.04-.4-.04-.58.93-1.06,1.73-2.26,2.3-3.54-1.46.4-2.88.84-4.3,1.42-.09.4-.13.8-.13,1.24-1.68,1.55-3.85,2.61-6.29,2.88.04-.49.13-.97.27-1.42-.84.4-1.64.84-2.39,1.28v.13s-.09,0-.13-.04c-.89.53-1.77,1.06-2.61,1.64.89.27,1.77.44,2.75.53.04.49.09.97.18,1.46.35,1.68.97,3.23,1.86,4.61-.49-.09-.93-.27-1.42-.44-1.24-.44-2.39-1.15-3.41-2.17-.13-.04-.27-.18-.4-.31-.71-.66-1.24-1.42-1.73-2.21-.58.4-1.11.84-1.68,1.28.04.13.13.22.22.35.49.75,1.02,1.42,1.68,2.08.04.04.13.13.18.13,1.28,1.28,2.79,2.21,4.39,2.84.18.04.31.13.49.18.31.09.62.18.93.27.93.22,1.86.35,2.79.4,1.2,1.11,2.61,1.99,4.16,2.61,1.46.58,3.06.89,4.7.89,1.02,0,2.04-.13,3.01-.35.58-.13,1.11-.31,1.64-.53,1.59-.58,3.01-1.51,4.21-2.61.8-.04,1.59-.13,2.39-.31,2.44-1.99,5.09-3.81,7.89-5.32.04-.04.09-.13.13-.22.93-1.37,1.55-2.88,1.86-4.47.18-.75.27-1.46.27-2.21.58-.58,1.06-1.24,1.51-1.9.35-.53.66-1.11.93-1.73.18-.44.35-.89.49-1.33-.35-.09-.71-.13-1.06-.18ZM64.33,21.42c1.82,1.33,4.03,2.17,6.42,2.39-.22,2.44-1.24,4.61-2.83,6.33-2.3-.09-4.61-.93-6.47-2.48,1.55-1.86,2.48-4.03,2.88-6.25ZM49.14,23.81c.22-.04.49-.04.71-.09.04,0,.04-.04.04-.04,2.13-.27,4.03-1.06,5.67-2.26.4,2.21,1.33,4.39,2.88,6.25-1.86,1.55-4.16,2.39-6.47,2.48-1.55-1.68-2.53-3.72-2.79-6.07-.04-.09-.04-.18-.04-.27ZM59.94,33.64c-2.13,0-4.08-.62-5.76-1.64,2.08-.44,4.08-1.42,5.76-2.84,1.68,1.42,3.68,2.39,5.76,2.84-1.68,1.02-3.63,1.64-5.76,1.64ZM76.07,26.95c-1.15,1.15-2.44,1.95-3.81,2.48-.49.18-.93.35-1.42.44.53-.84.97-1.73,1.28-2.66.4-1.06.66-2.21.75-3.41,2.26-.18,4.3-.93,6.07-2.08-.13.53-.27,1.06-.49,1.55-.53,1.37-1.33,2.61-2.39,3.68Z"/>
              <path class="cls-14" d="M95.6,17.87c-.44.97-.71,1.95-.84,3.01.75-.13,1.46-.22,2.21-.35.13-.66.31-1.28.58-1.86-.62-.31-1.28-.58-1.95-.8ZM92.77,21.33c-1.55-.44-2.97-1.2-4.16-2.21-.09-.09-.18-.13-.22-.18s-.04-.04-.09-.09c.04-1.06.22-2.13.62-3.14-.66-.18-1.37-.31-2.08-.44-.18.44-.31.89-.4,1.33-.31-.49-.58-1.02-.8-1.59-.44-.09-.89-.18-1.37-.22-.35-.09-.71-.13-1.06-.18.18.53.35,1.02.58,1.51.31.75.71,1.42,1.2,2.08.35.58.75,1.06,1.2,1.55v.18c.09,1.06.27,2.13.58,3.19.66-.22,1.37-.49,2.04-.71-.09-.22-.18-.44-.22-.66.27.18.53.35.84.49,1.11-.35,2.26-.62,3.37-.89Z"/>
              <path class="cls-17" d="M100.96,20.27c-.22.18-.4.27-.66.35.62.09,1.2.18,1.77.22-.35-.18-.71-.4-1.11-.58Z"/>
            </g>
            <g>
              <path class="cls-24" d="M35.98,85.34c-.58-1.46-1.46-2.79-2.52-3.94-.09-2.52-.84-4.92-2.26-6.95h-.04c-.4-.66-.89-1.24-1.46-1.82-2.13-2.13-4.83-3.37-7.57-3.68-.4-.04-.8-.09-1.2-.09-.62-.58-1.28-1.11-1.99-1.55-.04.4-.04.8-.04,1.2-.04.62-.04,1.24-.04,1.86,0,.22,0,.49.04.71.4-.09.75-.09,1.15-.13.97,1.11,1.77,2.35,2.21,3.77.35.8.53,1.68.62,2.57-.09,0-.22,0-.31.04-1.11.13-2.13.35-3.15.8.04.71.18,1.46.31,2.17.97-.44,2.04-.75,3.15-.84-.22,1.99-1.02,3.85-2.17,5.36.27,1.06.58,2.08.93,3.1,1.33.09,2.66.49,3.9,1.2.62.27,1.24.66,1.82,1.15-.35.27-.71.53-1.06.71v.04c-.93.58-1.95,1.02-3.01,1.24.27.66.58,1.33.89,1.99,1.06-.31,2.08-.75,3.01-1.33.58-.35,1.15-.75,1.68-1.2,1.51,1.86,2.39,4.12,2.48,6.51-.27.27-.58.49-.89.71-.84.66-1.82,1.2-2.88,1.51.4.62.8,1.24,1.2,1.86.84-.31,1.59-.71,2.3-1.2-.22,1.02-.58,1.99-1.11,2.88.44.58.93,1.2,1.42,1.77.66-1.02,1.2-2.17,1.55-3.32.31-1.06.49-2.17.53-3.32,1.06-1.15,1.95-2.52,2.57-3.99.58-1.51.93-3.15.93-4.87s-.35-3.41-.97-4.92ZM31.06,79.36c-1.77-1.15-3.85-1.9-6.07-2.08-.18-2.21-.89-4.3-2.08-6.07,1.95.44,3.77,1.42,5.27,2.92s2.44,3.28,2.88,5.23ZM24.55,86.36c-.62-.22-1.28-.4-1.95-.49.49-.66.89-1.37,1.2-2.13.66-1.33,1.06-2.79,1.2-4.34,2.44.22,4.65,1.28,6.33,2.83-.09,2.44-.97,4.7-2.48,6.51-1.28-1.11-2.75-1.9-4.3-2.39ZM33.19,95.97c-.44-2.13-1.42-4.08-2.83-5.71,1.42-1.68,2.39-3.63,2.83-5.76,1.06,1.68,1.64,3.63,1.64,5.76s-.58,4.03-1.64,5.71Z"/>
              <g>
                <g>
                  <path class="cls-21" d="M59.77,124.5c-.62-1.33-1.37-2.48-2.35-3.5,0-.22-.04-.44-.04-.66-.18-2.21-.93-4.25-2.13-6.07-.44-.75-1.02-1.42-1.64-2.04-1.33-1.37-2.88-2.35-4.56-2.97-.49-.09-.93-.27-1.42-.44-.93-.22-1.82-.31-2.75-.35-1.24-1.15-2.66-2.08-4.25-2.7-1.46-.53-3.01-.84-4.65-.84-.35,0-.66,0-1.02.04-1.24.09-2.48.35-3.59.8.49.62.97,1.2,1.51,1.77.97-.31,2.04-.49,3.1-.49.35,0,.66,0,.97.09,1.77.13,3.41.71,4.78,1.59-.84.18-1.64.4-2.39.75-1.02.4-1.99,1.02-2.92,1.73.53.49,1.06.97,1.59,1.46.97-.75,2.04-1.28,3.19-1.59.89-.31,1.82-.44,2.79-.49,1.11,1.24,1.99,2.7,2.48,4.39.18.62.31,1.28.35,1.95-.89.04-1.73.22-2.57.49,1.46.97,2.97,1.86,4.52,2.7.09-.35.13-.71.18-1.06,2.44.22,4.61,1.24,6.33,2.83,0,.35-.04.75-.13,1.11,1.51.58,3.06,1.11,4.61,1.51ZM48.96,116.92c0-.18-.04-.35-.04-.49-.27-2.08-.97-3.94-2.04-5.58,1.9.44,3.77,1.37,5.23,2.88,1.46,1.46,2.48,3.28,2.92,5.23-1.51-.97-3.23-1.64-5.05-1.9-.35-.09-.66-.13-1.02-.13Z"/>
                  <path class="cls-20" d="M103.71,115.15c-.13-.27-.27-.53-.44-.75-.49-.8-1.11-1.51-1.77-2.17-.71-.75-1.51-1.37-2.35-1.9h-.04c-.8-.49-1.59-.84-2.44-1.15-.49-.18-1.02-.31-1.51-.44-.04.04-.09.04-.09,0-.75-.18-1.55-.27-2.3-.27-.75-.75-1.64-1.37-2.57-1.9-.49-.04-1.02-.13-1.51-.27-1.82-.31-3.63-.75-5.36-1.37-1.46.09-2.83.35-4.12.89-.44.18-.84.35-1.28.58-1.06.53-2.04,1.24-2.92,2.08-.93.04-1.82.13-2.75.35-.49.18-.93.35-1.42.44-1.68.62-3.23,1.59-4.56,2.97-.62.62-1.2,1.33-1.64,2.04-1.37,2.04-2.08,4.34-2.13,6.69-.22.22-.44.49-.66.75-.71.89-1.33,1.86-1.77,2.92.71.18,1.42.35,2.13.53.18-.4.35-.71.58-1.06.09.4.18.84.31,1.24.8.22,1.64.35,2.48.49-.53-1.11-.8-2.26-.93-3.41,0-.18-.04-.35-.04-.53,1.73-1.59,3.94-2.61,6.38-2.83.13,1.55.49,2.97,1.15,4.3.31.75.71,1.46,1.2,2.13-1.06.18-2.08.49-3.1.93,1.64.18,3.28.27,4.96.27,4.39,0,8.64-.49,12.71-1.46.31-1.06.49-2.17.53-3.28.09-.09.18-.18.27-.22,1.64-1.46,3.72-2.44,6.02-2.66-.04.27-.04.49-.13.75-.22,1.42-.8,2.79-1.59,3.99,1.02-.31,1.99-.66,2.97-1.11.49-1.11.75-2.35.89-3.63,1.51.13,2.92.58,4.21,1.33,1.33-.66,2.61-1.37,3.85-2.17-.27-1.06-.66-2.08-1.2-3.06ZM83.91,107.04c2.08,0,4.08.62,5.76,1.68-.71.13-1.46.35-2.13.66-1.33.49-2.52,1.2-3.63,2.17-1.73-1.46-3.68-2.44-5.76-2.84.8-.53,1.68-.93,2.66-1.24.97-.27,2.04-.44,3.1-.44ZM75.89,110.59c2.35.09,4.61.89,6.51,2.48-1.55,1.82-2.53,3.99-2.88,6.25-1.86-1.33-4.08-2.21-6.47-2.39.22-2.44,1.28-4.65,2.84-6.33ZM70.93,116.92c-2.21.13-4.3.89-6.07,2.04.44-1.9,1.42-3.72,2.92-5.23,1.46-1.51,3.32-2.44,5.23-2.88-1.15,1.77-1.91,3.81-2.08,6.07ZM75.98,125.34c-.53-.58-1.02-1.2-1.42-1.9-.8-1.33-1.33-2.83-1.46-4.39,2.39.22,4.56,1.28,6.25,2.88.04.44.09.89.13,1.33.13,1.02.4,1.99.8,2.97-1.37-.53-2.83-.84-4.3-.89ZM83.91,124.72c-.31-.66-.62-1.28-1.02-1.86-.4-.66-.89-1.24-1.42-1.82.09-2.3.89-4.61,2.44-6.47,1.51,1.86,2.3,4.16,2.39,6.47-.44.44-.84.93-1.15,1.46-.49.66-.93,1.42-1.24,2.21ZM88.25,119.31c-.35-2.26-1.33-4.43-2.88-6.25,1.9-1.59,4.21-2.39,6.51-2.48,1.55,1.68,2.61,3.9,2.84,6.33-2.39.18-4.61,1.06-6.47,2.39ZM99.68,117.45c-.89-.31-1.86-.49-2.83-.53-.18-2.26-.93-4.25-2.08-6.02v-.04c.49.09.97.27,1.42.44.04.04.09.04.13.04,1.37.49,2.61,1.28,3.72,2.39.75.75,1.37,1.59,1.86,2.53.49.84.8,1.77,1.02,2.7-.97-.62-2.08-1.15-3.23-1.51Z"/>
                </g>
                <path class="cls-22" d="M78.33,102.97c-.4,1.02-.97,1.95-1.73,2.79-.13.22-.35.44-.53.62-1.15,1.11-2.44,1.9-3.81,2.44-.49.18-.93.35-1.42.44,1.06-1.64,1.73-3.5,1.95-5.54.04-.18.09-.35.09-.53,1.37-.09,2.7-.44,3.9-.97-.89-.4-1.73-.89-2.52-1.37-.44.09-.89.18-1.37.22-.04-.4-.09-.8-.18-1.2-.93-.58-1.86-1.24-2.75-1.9.44.97.71,1.99.8,3.1-1.11-.13-2.21-.4-3.19-.89-1.15-.49-2.21-1.15-3.1-1.99,0-.27-.04-.49-.04-.75-.13-1.2-.4-2.39-.84-3.54.8.31,1.64.53,2.48.66-4.61-4.43-8.2-9.83-10.23-15.9-.13.31-.22.66-.27,1.02-1.02-.75-2.13-1.33-3.37-1.68v-.04c-.97-.35-1.99-.58-3.06-.66.18-1.82.8-3.5,1.77-4.96v-.04c.31-.49.66-.93,1.06-1.33.71.04,1.37.13,2.08.31-.18-1.11-.27-2.21-.31-3.32,0-.35-.04-.66-.04-1.02-.97.53-1.82,1.15-2.61,1.9-.18,0-.35,0-.53.04-3.01.22-5.94,1.46-8.24,3.77-.58.58-1.11,1.2-1.55,1.86-1.42,2.08-2.13,4.47-2.21,6.87-1.06,1.15-1.95,2.53-2.57,3.99-.62,1.51-.97,3.19-.97,4.92s.35,3.37,1.02,4.87c.58,1.51,1.46,2.84,2.52,3.99.04,2.35.75,4.61,2.08,6.64.49.75,1.02,1.42,1.68,2.08,2.44,2.44,5.58,3.68,8.77,3.81,1.2,1.11,2.61,1.99,4.16,2.61,1.46.58,3.06.89,4.7.89s3.23-.31,4.7-.89c1.55-.62,2.97-1.51,4.16-2.61,3.19-.13,6.33-1.37,8.77-3.81.35-.35.71-.75,1.02-1.2.22-.27.44-.53.62-.84.44-.62.8-1.24,1.11-1.95-.66-.27-1.37-.58-1.99-.89ZM70.75,103.19c-.22,2.44-1.24,4.61-2.83,6.33-2.3-.09-4.61-.93-6.47-2.48,1.55-1.86,2.48-4.03,2.88-6.25,1.82,1.33,4.03,2.17,6.42,2.39ZM49.14,103.19c2.39-.22,4.61-1.06,6.42-2.39.4,2.21,1.33,4.39,2.88,6.25-1.86,1.55-4.16,2.39-6.47,2.48-1.59-1.73-2.61-3.9-2.84-6.33ZM51.13,92.65c-2.3-.09-4.61-.89-6.47-2.39,1.86-1.55,4.16-2.35,6.47-2.44,1.06,1.02,2.3,1.82,3.68,2.44-1.37.58-2.61,1.37-3.68,2.39ZM56.31,93.89c-.53,1.37-.84,2.84-.89,4.3-1.68,1.55-3.85,2.61-6.29,2.88.27-2.44,1.28-4.61,2.88-6.29,1.46-.09,2.92-.35,4.3-.89ZM49.4,94.6c-1.33,1.86-2.21,4.08-2.39,6.47-2.44-.22-4.65-1.28-6.33-2.83.09-2.3.89-4.61,2.48-6.51,1.82,1.55,3.99,2.52,6.25,2.88ZM57.55,99.07c.97-1.06,1.82-2.35,2.39-3.68.58,1.33,1.42,2.61,2.39,3.68-.04,2.3-.84,4.56-2.39,6.47-1.55-1.9-2.35-4.16-2.39-6.47ZM53.12,80.69c.84.4,1.64.97,2.3,1.59.04,1.51.35,2.92.89,4.34-.18-.09-.35-.13-.53-.18-1.2-.44-2.48-.66-3.77-.75-1.59-1.68-2.61-3.85-2.88-6.25,1.46.13,2.79.58,3.99,1.24ZM49.05,71.21c-1.15,1.77-1.86,3.85-2.04,6.07-2.26.18-4.3.93-6.07,2.08.44-1.9,1.37-3.77,2.88-5.23,1.51-1.51,3.32-2.48,5.23-2.92ZM47.01,79.4c.18,2.39,1.06,4.61,2.39,6.47-2.26.35-4.43,1.33-6.25,2.88-1.59-1.9-2.39-4.16-2.48-6.51,1.68-1.55,3.9-2.61,6.33-2.83ZM38.81,96.01c-1.06-1.68-1.68-3.68-1.68-5.76s.62-4.12,1.68-5.76c.44,2.08,1.37,4.03,2.84,5.76-1.46,1.68-2.39,3.68-2.84,5.76ZM47.63,108.81c-1.37-.53-2.66-1.33-3.81-2.44-1.51-1.51-2.44-3.32-2.88-5.27,1.77,1.15,3.81,1.9,6.07,2.08.18,2.21.89,4.3,2.04,6.07-.49-.09-.93-.27-1.42-.44ZM59.94,113.02c-2.13,0-4.08-.62-5.76-1.64,2.08-.44,4.08-1.37,5.76-2.84,1.68,1.46,3.68,2.39,5.76,2.84-1.68,1.02-3.63,1.64-5.76,1.64Z"/>
                <path class="cls-12" d="M120.54,101.06c-.04-.27-.04-.53-.13-.8-1.37.93-2.83,1.77-4.34,2.48.75.22,1.55.35,2.35.44-.22,2.44-1.28,4.61-2.83,6.33,1.77-1.77,3.41-3.68,4.87-5.67.04-.22.09-.44.09-.66.13,0,.31-.04.44-.04.58-.84,1.15-1.68,1.64-2.52-.66.22-1.37.4-2.08.44ZM111.9,108.68c-.31-.09-.62-.22-.93-.44-.66-.27-1.28-.71-1.9-1.2.53-.66,1.02-1.37,1.37-2.08-1.59.58-3.19,1.02-4.87,1.33.13.27.31.53.53.75-1.9,1.55-4.16,2.39-6.51,2.48-.66-.75-1.24-1.55-1.64-2.44-.27.04-.58.04-.89.04-.49,0-.97,0-1.46-.04.27.75.62,1.42,1.06,2.08,0,.04.04.04.04.09-.53-.13-1.06-.27-1.55-.53-.04.04-.09.04-.09,0-1.15-.44-2.17-1.06-3.1-1.9-.58-.04-1.2-.13-1.77-.27-.49-.04-1.02-.13-1.51-.27.35.53.8,1.06,1.28,1.55.93.97,1.99,1.73,3.15,2.35.53.27,1.06.49,1.64.66v.04c.49.18.93.31,1.42.4.04.04.09.04.13.04.8.18,1.59.27,2.39.31,1.28,1.2,2.84,2.17,4.56,2.75.35.13.71.27,1.06.35,1.02.27,2.13.4,3.23.4.62,0,1.24-.04,1.86-.13,2.21-1.68,4.3-3.5,6.16-5.49-1.28-.04-2.52-.31-3.68-.84ZM107.56,113.02c-.22,0-.49,0-.71-.04-1.82-.09-3.54-.71-5.01-1.59,1.59-.35,3.15-.97,4.56-1.95.4-.27.8-.58,1.15-.89.22.18.4.35.62.49.62.49,1.28.89,1.95,1.24,1.02.49,2.13.89,3.19,1.11-1.64,1.02-3.63,1.64-5.76,1.64Z"/>
              </g>
            </g>
          </g>
          <path class="cls-13" d="M75.18,14.02c-31.11,0-56.33,25.22-56.33,56.33s25.22,56.33,56.33,56.33c21.4,0,40.01-11.93,49.54-29.51-7.5,6.23-17.14,9.98-27.65,9.98-23.91,0-44.74-19.43-43.3-43.3,1.32-21.78,21.23-40.31,43.3-43.3.4-.05.8-.08,1.19-.08,1.27,0,2.54.23,3.79.37-7.99-4.35-17.15-6.82-26.88-6.82h0Z"/>
          <path class="cls-23" d="M75.18,17.25c4.61,0,9.2.6,13.63,1.77-20.83,6.1-37.03,24.45-38.25,44.63-.7,11.66,3.47,22.93,11.77,31.74,8.96,9.52,21.63,14.98,34.75,14.98,5.51,0,10.94-.98,16.04-2.86-9.85,10.06-23.45,15.94-37.94,15.94-29.28,0-53.1-23.82-53.1-53.1s23.82-53.1,53.1-53.1M75.18,14.02c-31.11,0-56.33,25.22-56.33,56.33s25.22,56.33,56.33,56.33c21.4,0,40.01-11.93,49.54-29.51-7.5,6.23-17.14,9.98-27.65,9.98-23.91,0-44.74-19.43-43.3-43.3,1.32-21.78,21.23-40.31,43.3-43.3.4-.05.8-.08,1.19-.08,1.27,0,2.54.23,3.79.37-7.99-4.35-17.15-6.82-26.88-6.82h0Z"/>
        </g>
        <g>
          <g>
            <ellipse class="cls-19" cx="100.4" cy="20.27" rx="34.19" ry="35.35"/>
            <g>
              <path class="cls-9" d="M105.64,20.27c0,6.71-2.35,12.15-5.24,12.15s-5.24-5.44-5.24-12.15,2.35-12.15,5.24-12.15,5.24,5.44,5.24,12.15Z"/>
              <ellipse class="cls-5" cx="100.4" cy="20.27" rx="12.15" ry="5.24"/>
            </g>
          </g>
          <g>
            <g>
              <path class="cls-7" d="M122.43,103.94c-17.96-3.74-32-9.26-31.36-12.32.64-3.06,15.71-2.51,33.67,1.23,17.96,3.74,32,9.26,31.36,12.32-.64,3.06-15.71,2.51-33.67-1.23Z"/>
              <path class="cls-3" d="M118.04,97.24c3.74-17.96,9.26-32,12.32-31.36,3.06.64,2.51,15.71-1.23,33.67-3.74,17.96-9.26,32-12.32,31.36-3.06-.64-2.51-15.71,1.23-33.67Z"/>
            </g>
            <g>
              <path class="cls-2" d="M119.85,100.84c-7.93-12.11-12.69-23.02-10.62-24.37,2.07-1.35,10.17,7.37,18.1,19.47,7.93,12.11,12.69,23.02,10.62,24.37-2.07,1.35-10.17-7.37-18.1-19.47Z"/>
              <path class="cls-8" d="M121.14,94.65c12.11-7.93,23.02-12.69,24.37-10.62,1.35,2.07-7.37,10.17-19.47,18.1-12.11,7.93-23.02,12.69-24.37,10.62-1.35-2.07,7.37-10.17,19.47-18.1Z"/>
            </g>
          </g>
          <g>
            <g>
              <path class="cls-10" d="M20.87,60.85c-16.96,0-30.7-2.34-30.7-5.24s13.74-5.24,30.7-5.24,30.7,2.34,30.7,5.24-13.75,5.24-30.7,5.24Z"/>
              <path class="cls-1" d="M15.63,55.61c0-16.96,2.34-30.7,5.24-30.7s5.24,13.75,5.24,30.7-2.34,30.7-5.24,30.7-5.24-13.74-5.24-30.7Z"/>
            </g>
            <g>
              <path class="cls-4" d="M17.95,58.54c-9.46-9.46-15.82-18.44-14.21-20.05,1.61-1.61,10.59,4.75,20.05,14.21,9.46,9.46,15.82,18.44,14.21,20.05-1.61,1.61-10.59-4.75-20.05-14.21Z"/>
              <path class="cls-6" d="M17.95,52.69c9.46-9.46,18.44-15.82,20.05-14.21,1.61,1.61-4.75,10.59-14.21,20.05-9.46,9.46-18.44,15.82-20.05,14.21s4.75-10.59,14.21-20.05Z"/>
            </g>
          </g>
        </g>
      </g>
    </g>
  </g>
</svg>