<?xml version="1.0" encoding="UTF-8"?>
<svg xmlns="http://www.w3.org/2000/svg" xmlns:xlink="http://www.w3.org/1999/xlink" viewBox="0 0 161.85 310.51">
  <defs>
    <style>
      .cls-1 {
        fill: url(#radial-gradient-9);
      }

      .cls-1, .cls-2, .cls-3, .cls-4, .cls-5, .cls-6, .cls-7, .cls-8, .cls-9, .cls-10, .cls-11 {
        mix-blend-mode: screen;
      }

      .cls-12 {
        fill: url(#linear-gradient-2);
      }

      .cls-13 {
        fill: url(#linear-gradient-10);
      }

      .cls-14 {
        fill: url(#linear-gradient-12);
      }

      .cls-15 {
        fill: #f9dea4;
      }

      .cls-2 {
        fill: url(#radial-gradient-6);
      }

      .cls-3 {
        fill: url(#radial-gradient-5);
      }

      .cls-16 {
        fill: none;
      }

      .cls-17 {
        fill: url(#linear-gradient-4);
      }

      .cls-18 {
        fill: url(#radial-gradient);
      }

      .cls-4 {
        fill: url(#radial-gradient-10);
      }

      .cls-19 {
        fill: url(#linear-gradient-3);
      }

      .cls-20 {
        filter: url(#drop-shadow-1);
      }

      .cls-21 {
        fill: url(#linear-gradient-5);
      }

      .cls-22 {
        isolation: isolate;
      }

      .cls-23 {
        fill: url(#linear-gradient-8);
      }

      .cls-5 {
        fill: url(#radial-gradient-3);
      }

      .cls-7 {
        fill: url(#radial-gradient-11);
      }

      .cls-8 {
        fill: url(#radial-gradient-4);
      }

      .cls-24 {
        fill: url(#linear-gradient-7);
      }

      .cls-9 {
        fill: url(#radial-gradient-7);
      }

      .cls-25 {
        fill: url(#linear-gradient-9);
      }

      .cls-26 {
        fill: url(#linear-gradient-11);
      }

      .cls-27 {
        fill: url(#linear-gradient-6);
      }

      .cls-10 {
        fill: url(#radial-gradient-2);
      }

      .cls-28 {
        fill: url(#linear-gradient);
      }

      .cls-11 {
        fill: url(#radial-gradient-8);
      }
    </style>
    <filter id="drop-shadow-1" x="16.35" y="-2.85" width="129" height="317" filterUnits="userSpaceOnUse">
      <feOffset dx="5.94" dy="2.97"/>
      <feGaussianBlur result="blur" stdDeviation="3.65"/>
      <feFlood flood-color="#000" flood-opacity=".65"/>
      <feComposite in2="blur" operator="in"/>
      <feComposite in="SourceGraphic"/>
    </filter>
    <linearGradient id="linear-gradient" x1="74.53" y1="182.71" x2="74.53" y2="5.6" gradientUnits="userSpaceOnUse">
      <stop offset="0" stop-color="#fde7a4"/>
      <stop offset=".19" stop-color="#e6ba6b"/>
      <stop offset=".29" stop-color="#dda853"/>
      <stop offset=".58" stop-color="#c5862d"/>
      <stop offset=".85" stop-color="#b46d11"/>
    </linearGradient>
    <linearGradient id="linear-gradient-2" x1="62.56" y1="205.11" x2="2.35" y2="272.62" xlink:href="#linear-gradient"/>
    <linearGradient id="linear-gradient-3" x1="72.31" y1="206.52" x2="44.97" y2="237.18" xlink:href="#linear-gradient"/>
    <linearGradient id="linear-gradient-4" x1="58.3" y1="204.11" x2="12.16" y2="255.85" xlink:href="#linear-gradient"/>
    <linearGradient id="linear-gradient-5" x1="85.41" y1="198.97" x2="72.71" y2="213.21" xlink:href="#linear-gradient"/>
    <linearGradient id="linear-gradient-6" x1="92.75" y1="206.35" x2="78.36" y2="222.48" xlink:href="#linear-gradient"/>
    <linearGradient id="linear-gradient-7" x1="52.72" y1="231.78" x2="24.14" y2="263.83" xlink:href="#linear-gradient"/>
    <linearGradient id="linear-gradient-8" x1="62.52" y1="272.28" x2="49.52" y2="286.86" xlink:href="#linear-gradient"/>
    <linearGradient id="linear-gradient-9" x1="112.69" y1="260.98" x2="68.09" y2="310.98" xlink:href="#linear-gradient"/>
    <linearGradient id="linear-gradient-10" x1="80.92" y1="242.87" x2="34.77" y2="294.62" xlink:href="#linear-gradient"/>
    <linearGradient id="linear-gradient-11" x1="112.8" y1="272.17" x2="79.95" y2="309.01" xlink:href="#linear-gradient"/>
    <linearGradient id="linear-gradient-12" x1="90.16" y1="229.71" x2="29.9" y2="297.27" xlink:href="#linear-gradient"/>
    <radialGradient id="radial-gradient" cx="-113.83" cy="186.18" fx="-113.83" fy="186.18" r="28.77" gradientTransform="translate(242.08 -94.03) scale(1.47 1.52)" gradientUnits="userSpaceOnUse">
      <stop offset="0" stop-color="#fff"/>
      <stop offset="0" stop-color="#f9edd7"/>
      <stop offset=".02" stop-color="#f4daad"/>
      <stop offset=".03" stop-color="#f0ca89"/>
      <stop offset=".04" stop-color="#ecbd6c"/>
      <stop offset=".06" stop-color="#e9b356"/>
      <stop offset=".07" stop-color="#e7ac46"/>
      <stop offset=".08" stop-color="#e6a83c"/>
      <stop offset=".11" stop-color="#e6a73a"/>
      <stop offset=".14" stop-color="#c58f31" stop-opacity=".86"/>
      <stop offset=".21" stop-color="#916924" stop-opacity=".63"/>
      <stop offset=".27" stop-color="#644919" stop-opacity=".44"/>
      <stop offset=".34" stop-color="#402e10" stop-opacity=".28"/>
      <stop offset=".41" stop-color="#241a09" stop-opacity=".16"/>
      <stop offset=".47" stop-color="#100b04" stop-opacity=".07"/>
      <stop offset=".54" stop-color="#040201" stop-opacity=".02"/>
      <stop offset=".6" stop-color="#000" stop-opacity="0"/>
    </radialGradient>
    <radialGradient id="radial-gradient-2" cx="783.16" cy="189.25" fx="783.16" fy="189.25" r="15.04" gradientTransform="translate(-263.48) scale(.43 1)" gradientUnits="userSpaceOnUse">
      <stop offset="0" stop-color="#fff"/>
      <stop offset=".01" stop-color="#f9edd7"/>
      <stop offset=".02" stop-color="#f4daad"/>
      <stop offset=".04" stop-color="#f0ca89"/>
      <stop offset=".05" stop-color="#ecbd6c"/>
      <stop offset=".07" stop-color="#e9b356"/>
      <stop offset=".09" stop-color="#e7ac46"/>
      <stop offset=".1" stop-color="#e6a83c"/>
      <stop offset=".13" stop-color="#e6a73a"/>
      <stop offset=".16" stop-color="#c58f31" stop-opacity=".86"/>
      <stop offset=".21" stop-color="#916924" stop-opacity=".63"/>
      <stop offset=".26" stop-color="#644919" stop-opacity=".44"/>
      <stop offset=".31" stop-color="#402e10" stop-opacity=".28"/>
      <stop offset=".35" stop-color="#241a09" stop-opacity=".16"/>
      <stop offset=".4" stop-color="#100b04" stop-opacity=".07"/>
      <stop offset=".45" stop-color="#040201" stop-opacity=".02"/>
      <stop offset=".5" stop-color="#000" stop-opacity="0"/>
    </radialGradient>
    <radialGradient id="radial-gradient-3" cx="-808.71" cy="-200.12" fx="-808.71" fy="-200.12" r="15.04" gradientTransform="translate(-125.59 538.29) rotate(90) scale(.43 1)" xlink:href="#radial-gradient-2"/>
    <radialGradient id="radial-gradient-4" cx="-1629.03" cy="-232.37" fx="-1629.03" fy="-232.37" r="33.22" gradientTransform="translate(-158.98 496.39) rotate(101.77) scale(.17 1)" gradientUnits="userSpaceOnUse">
      <stop offset="0" stop-color="#e6a73a"/>
      <stop offset=".05" stop-color="#c79032" stop-opacity=".87"/>
      <stop offset=".15" stop-color="#936a25" stop-opacity=".64"/>
      <stop offset=".25" stop-color="#664a19" stop-opacity=".44"/>
      <stop offset=".35" stop-color="#412f10" stop-opacity=".28"/>
      <stop offset=".45" stop-color="#241a09" stop-opacity=".16"/>
      <stop offset=".54" stop-color="#100b04" stop-opacity=".07"/>
      <stop offset=".64" stop-color="#040201" stop-opacity=".02"/>
      <stop offset=".74" stop-color="#000" stop-opacity="0"/>
    </radialGradient>
    <radialGradient id="radial-gradient-5" cx="-5625.75" cy="787.38" fx="-5625.75" fy="787.38" r="33.22" gradientTransform="translate(-974.93 846.82) rotate(-168.23) scale(.17 1)" xlink:href="#radial-gradient-4"/>
    <radialGradient id="radial-gradient-6" cx="-4865.81" cy="136.46" fx="-4865.81" fy="136.46" r="26.21" gradientTransform="translate(-494.37 840.85) rotate(146.77) scale(.17 1) skewX(-.03)" xlink:href="#radial-gradient-4"/>
    <radialGradient id="radial-gradient-7" cx="-3464.94" cy="1339.64" fx="-3464.94" fy="1339.64" r="26.21" gradientTransform="translate(-1319.38 511.42) rotate(-123.23) scale(.17 1) skewX(-.03)" xlink:href="#radial-gradient-4"/>
    <radialGradient id="radial-gradient-8" cx="-851.19" cy="-148.56" fx="-851.19" fy="-148.56" r="18.85" gradientTransform="translate(-125.59 372.24) rotate(90) scale(.17 1)" xlink:href="#radial-gradient-4"/>
    <radialGradient id="radial-gradient-9" cx="-5134.65" cy="655" fx="-5134.65" fy="655" r="18.85" gradientTransform="translate(-853 882.03) rotate(-180) scale(.17 1)" xlink:href="#radial-gradient-4"/>
    <radialGradient id="radial-gradient-10" cx="-3966.91" cy="101.96" fx="-3966.91" fy="101.96" r="14.88" gradientTransform="translate(-383.35 777.52) rotate(135) scale(.17 1)" xlink:href="#radial-gradient-4"/>
    <radialGradient id="radial-gradient-11" cx="-3665.08" cy="1186.89" fx="-3665.08" fy="1186.89" r="14.88" gradientTransform="translate(-1258.29 624.27) rotate(-135) scale(.17 1)" xlink:href="#radial-gradient-4"/>
  </defs>
  <g class="cls-22">
    <g id="Layer_1" data-name="Layer 1">
      <g>
        <g class="cls-20">
          <path class="cls-28" d="M73.61,181.8c0-.5.41-.91.92-.91h0c.5,0,.91.41.91.91h0c0,.51-.41.91-.91.91h0c-.51,0-.92-.4-.92-.91ZM73.61,178.15c0-.5.41-.91.92-.91h0c.5,0,.91.41.91.91h0c0,.51-.41.91-.91.91h0c-.51,0-.92-.4-.92-.91ZM73.61,174.5c0-.51.41-.91.92-.91h0c.5,0,.91.4.91.91h0c0,.5-.41.91-.91.91h0c-.51,0-.92-.41-.92-.91ZM73.61,170.85c0-.51.41-.92.92-.92h0c.5,0,.91.41.91.92h0c0,.5-.41.91-.91.91h0c-.51,0-.92-.41-.92-.91ZM73.61,167.19c0-.5.41-.91.92-.91h0c.5,0,.91.41.91.91h0c0,.51-.41.92-.91.92h0c-.51,0-.92-.41-.92-.92ZM73.61,163.54c0-.5.41-.91.92-.91h0c.5,0,.91.41.91.91h0c0,.51-.41.92-.91.92h0c-.51,0-.92-.41-.92-.92ZM73.61,159.89c0-.5.41-.91.92-.91h0c.5,0,.91.41.91.91h0c0,.51-.41.91-.91.91h0c-.51,0-.92-.4-.92-.91ZM73.61,156.24c0-.51.41-.91.92-.91h0c.5,0,.91.4.91.91h0c0,.5-.41.91-.91.91h0c-.51,0-.92-.41-.92-.91ZM73.61,152.59c0-.51.41-.92.92-.92h0c.5,0,.91.41.91.92h0c0,.5-.41.91-.91.91h0c-.51,0-.92-.41-.92-.91ZM73.61,148.94c0-.51.41-.92.92-.92h0c.5,0,.91.41.91.92h0c0,.5-.41.91-.91.91h0c-.51,0-.92-.41-.92-.91ZM73.61,145.28c0-.5.41-.91.92-.91h0c.5,0,.91.41.91.91h0c0,.51-.41.92-.91.92h0c-.51,0-.92-.41-.92-.92ZM73.61,141.63c0-.5.41-.91.92-.91h0c.5,0,.91.41.91.91h0c0,.51-.41.91-.91.91h0c-.51,0-.92-.4-.92-.91ZM73.61,137.98c0-.5.41-.91.92-.91h0c.5,0,.91.41.91.91h0c0,.5-.41.91-.91.91h0c-.51,0-.92-.41-.92-.91ZM73.61,134.33c0-.51.41-.91.92-.91h0c.5,0,.91.4.91.91h0c0,.5-.41.91-.91.91h0c-.51,0-.92-.41-.92-.91ZM73.61,130.68c0-.51.41-.92.92-.92h0c.5,0,.91.41.91.92h0c0,.5-.41.91-.91.91h0c-.51,0-.92-.41-.92-.91ZM73.61,127.03c0-.51.41-.92.92-.92h0c.5,0,.91.41.91.92h0c0,.5-.41.91-.91.91h0c-.51,0-.92-.41-.92-.91ZM73.61,123.37c0-.5.41-.91.92-.91h0c.5,0,.91.41.91.91h0c0,.51-.41.92-.91.92h0c-.51,0-.92-.41-.92-.92ZM73.61,119.72c0-.5.41-.91.92-.91h0c.5,0,.91.41.91.91h0c0,.5-.41.91-.91.91h0c-.51,0-.92-.41-.92-.91ZM73.61,116.07c0-.51.41-.91.92-.91h0c.5,0,.91.4.91.91h0c0,.5-.41.91-.91.91h0c-.51,0-.92-.41-.92-.91ZM73.61,112.42c0-.51.41-.92.92-.92h0c.5,0,.91.41.91.92h0c0,.5-.41.91-.91.91h0c-.51,0-.92-.41-.92-.91ZM73.61,108.77c0-.51.41-.92.92-.92h0c.5,0,.91.41.91.92h0c0,.5-.41.91-.91.91h0c-.51,0-.92-.41-.92-.91ZM73.61,105.11c0-.5.41-.91.92-.91h0c.5,0,.91.41.91.91h0c0,.51-.41.91-.91.91h0c-.51,0-.92-.4-.92-.91ZM73.61,101.46c0-.5.41-.91.92-.91h0c.5,0,.91.41.91.91h0c0,.51-.41.92-.91.92h0c-.51,0-.92-.41-.92-.92ZM73.61,97.81c0-.5.41-.91.92-.91h0c.5,0,.91.41.91.91h0c0,.5-.41.91-.91.91h0c-.51,0-.92-.41-.92-.91ZM73.61,94.16c0-.51.41-.92.92-.92h0c.5,0,.91.41.91.92h0c0,.5-.41.91-.91.91h0c-.51,0-.92-.41-.92-.91ZM73.61,90.51c0-.51.41-.92.92-.92h0c.5,0,.91.41.91.92h0c0,.5-.41.91-.91.91h0c-.51,0-.92-.41-.92-.91ZM73.61,86.85c0-.5.41-.91.92-.91h0c.5,0,.91.41.91.91h0c0,.51-.41.92-.91.92h0c-.51,0-.92-.41-.92-.92ZM73.61,83.2c0-.5.41-.91.92-.91h0c.5,0,.91.41.91.91h0c0,.51-.41.92-.91.92h0c-.51,0-.92-.41-.92-.92ZM73.61,79.55c0-.5.41-.91.92-.91h0c.5,0,.91.41.91.91h0c0,.5-.41.91-.91.91h0c-.51,0-.92-.41-.92-.91ZM73.61,75.9c0-.5.41-.91.92-.91h0c.5,0,.91.41.91.91h0c0,.5-.41.91-.91.91h0c-.51,0-.92-.41-.92-.91ZM73.61,72.25c0-.51.41-.92.92-.92h0c.5,0,.91.41.91.92h0c0,.5-.41.91-.91.91h0c-.51,0-.92-.41-.92-.91ZM73.61,68.6c0-.51.41-.92.92-.92h0c.5,0,.91.41.91.92h0c0,.5-.41.91-.91.91h0c-.51,0-.92-.41-.92-.91ZM73.61,64.94c0-.5.41-.91.92-.91h0c.5,0,.91.41.91.91h0c0,.51-.41.92-.91.92h0c-.51,0-.92-.41-.92-.92ZM73.61,61.29c0-.5.41-.91.92-.91h0c.5,0,.91.41.91.91h0c0,.5-.41.91-.91.91h0c-.51,0-.92-.41-.92-.91ZM73.61,57.64c0-.5.41-.91.92-.91h0c.5,0,.91.41.91.91h0c0,.51-.41.91-.91.91h0c-.51,0-.92-.4-.92-.91ZM73.61,53.99c0-.51.41-.92.92-.92h0c.5,0,.91.41.91.92h0c0,.5-.41.91-.91.91h0c-.51,0-.92-.41-.92-.91ZM73.61,50.34c0-.51.41-.92.92-.92h0c.5,0,.91.41.91.92h0c0,.5-.41.91-.91.91h0c-.51,0-.92-.41-.92-.91ZM73.61,46.68c0-.5.41-.91.92-.91h0c.5,0,.91.41.91.91h0c0,.51-.41.92-.91.92h0c-.51,0-.92-.41-.92-.92ZM73.61,43.03c0-.5.41-.91.92-.91h0c.5,0,.91.41.91.91h0c0,.51-.41.92-.91.92h0c-.51,0-.92-.41-.92-.92ZM73.61,39.38c0-.5.41-.91.92-.91h0c.5,0,.91.41.91.91h0c0,.5-.41.91-.91.91h0c-.51,0-.92-.41-.92-.91ZM73.61,35.73c0-.51.41-.92.92-.92h0c.5,0,.91.41.91.92h0c0,.5-.41.91-.91.91h0c-.51,0-.92-.41-.92-.91ZM73.61,32.08c0-.51.41-.92.92-.92h0c.5,0,.91.41.91.92h0c0,.5-.41.91-.91.91h0c-.51,0-.92-.41-.92-.91ZM73.61,28.42c0-.5.41-.91.92-.91h0c.5,0,.91.41.91.91h0c0,.51-.41.92-.91.92h0c-.51,0-.92-.41-.92-.92ZM73.61,24.77c0-.5.41-.91.92-.91h0c.5,0,.91.41.91.91h0c0,.51-.41.92-.91.92h0c-.51,0-.92-.41-.92-.92ZM73.61,21.12c0-.5.41-.91.92-.91h0c.5,0,.91.41.91.91h0c0,.51-.41.91-.91.91h0c-.51,0-.92-.4-.92-.91ZM73.61,17.47c0-.51.41-.91.92-.91h0c.5,0,.91.4.91.91h0c0,.5-.41.91-.91.91h0c-.51,0-.92-.41-.92-.91ZM73.61,13.82c0-.51.41-.91.92-.91h0c.5,0,.91.4.91.91h0c0,.5-.41.91-.91.91h0c-.51,0-.92-.41-.92-.91ZM73.61,10.16c0-.5.41-.91.92-.91h0c.5,0,.91.41.91.91h0c0,.51-.41.92-.91.92h0c-.51,0-.92-.41-.92-.92ZM73.61,6.51c0-.5.41-.91.92-.91h0c.5,0,.91.41.91.91h0c0,.51-.41.92-.91.92h0c-.51,0-.92-.41-.92-.92Z"/>
          <g>
            <g>
              <g>
                <path class="cls-12" d="M60.56,215.19c-.09-.18-.27-.31-.4-.49-.09-2.44-.84-4.74-2.17-6.73-.44-.75-1.02-1.42-1.64-2.04-1.33-1.37-2.88-2.35-4.56-2.97-.49-.09-.93-.27-1.42-.44-.93-.22-1.82-.31-2.75-.35-.49-.44-.97-.84-1.51-1.2-.84-.62-1.77-1.11-2.75-1.51-.18-.04-.31-.09-.49-.13-.66.53-1.33,1.06-1.99,1.68,1.28.22,2.44.71,3.46,1.37.04,0,.09,0,.13.04-.09,0-.22.04-.31.09-1.95.4-3.81,1.37-5.45,2.75-.4-.35-.84-.66-1.28-.97-.53.49-1.02,1.02-1.46,1.55.44.27.89.58,1.28.89-1.55,1.86-2.52,4.03-2.88,6.25-.89-.62-1.86-1.15-2.88-1.51-.4.58-.8,1.2-1.2,1.82,1.06.35,2.04.89,2.92,1.55.35.22.66.49.97.8.09,1.46.35,2.92.89,4.3-1.37-.58-2.83-.84-4.3-.93-.84-.93-1.55-1.99-2.04-3.15-.4.75-.8,1.51-1.2,2.3.18.35.4.71.62,1.02-.44.09-.89.18-1.28.31-.4.89-.8,1.77-1.15,2.7,1.28-.66,2.66-.97,4.03-1.06h.13c1.06,1.02,2.35,1.82,3.68,2.44-1.33.58-2.61,1.37-3.68,2.39-.66-.04-1.33-.13-1.99-.31-1.06-.18-2.08-.58-3.06-1.15-.27.66-.49,1.33-.71,1.99.97.58,1.99.97,3.06,1.2.31.09.66.18.97.22-1.33,1.86-2.17,4.08-2.39,6.47-.04,0-.13,0-.18-.04-1.11-.09-2.17-.4-3.15-.84-.13.71-.27,1.42-.31,2.17.97.4,2.04.66,3.15.75.18.04.31.09.49.09.18,2.21.93,4.3,2.08,6.07-1.06-.22-2.04-.62-2.97-1.2-.84-.44-1.59-1.02-2.3-1.68-.27-.31-.53-.58-.8-.93-.09.53-.13,1.11-.13,1.64-.04.4-.04.8-.04,1.2.97.93,2.04,1.59,3.19,2.13,1.59.75,3.32,1.15,5.05,1.24,1.15,1.06,2.52,1.95,4.03,2.57h.04c1.46.62,3.1.93,4.78.93s3.32-.31,4.78-.89c1.55-.62,2.92-1.51,4.12-2.61,1.99-.09,3.99-.62,5.76-1.55,1.06-.62,2.08-1.33,2.97-2.26.04-.04.09-.09.13-.13,0-.35-.04-.66-.04-1.02,0-.8,0-1.59.04-2.44-.44.75-.97,1.46-1.64,2.13-.49.49-1.02.93-1.59,1.28-1.11.75-2.35,1.28-3.63,1.59,1.15-1.77,1.9-3.85,2.08-6.07.53-.04,1.11-.13,1.64-.22,1.2-.27,2.3-.66,3.37-1.24.09-.93.22-1.86.4-2.79-1.06.8-2.26,1.42-3.54,1.77-.58.18-1.24.31-1.86.35-.22-2.39-1.06-4.61-2.39-6.47,2.21-.35,4.39-1.33,6.25-2.88.04.04.09.13.13.18,1.02,1.28,1.73,2.75,2.04,4.3.31-1.15.62-2.26,1.06-3.37-.44-.93-1.06-1.77-1.73-2.57,1.42-1.68,2.39-3.63,2.83-5.76.53.89.97,1.86,1.24,2.88.4-.84.89-1.68,1.37-2.48-.49-1.11-1.15-2.13-1.95-3.01ZM50.1,204.69c.31.09.62.18.93.27,1.37.53,2.7,1.37,3.81,2.48,1.46,1.46,2.48,3.28,2.92,5.23-1.77-1.15-3.85-1.9-6.07-2.08-.18-2.21-.93-4.3-2.08-6.07.18.04.31.13.49.18ZM46.74,204.25c1.55,1.73,2.61,3.94,2.83,6.38-2.39.18-4.61,1.02-6.47,2.35-.35-2.21-1.33-4.39-2.88-6.25,1.9-1.55,4.16-2.35,6.51-2.48ZM49.53,212.76c-.22,2.39-1.28,4.56-2.83,6.25-1.51.09-2.92.35-4.34.93.58-1.37.84-2.83.93-4.3,1.68-1.59,3.85-2.66,6.25-2.88ZM38.72,218.43c-.58-1.37-1.37-2.61-2.39-3.72.09-2.3.89-4.56,2.39-6.47,1.55,1.9,2.35,4.16,2.44,6.47-1.02,1.11-1.82,2.35-2.44,3.72ZM41.16,232.38c-.09,2.3-.89,4.56-2.44,6.47-1.51-1.9-2.3-4.16-2.39-6.47,1.02-1.06,1.82-2.35,2.39-3.68.62,1.33,1.42,2.61,2.44,3.68ZM30.79,228.08c1.46-.04,2.92-.35,4.3-.89-.53,1.37-.8,2.84-.89,4.3-1.68,1.55-3.85,2.61-6.29,2.88.27-2.44,1.33-4.61,2.88-6.29ZM34.38,234.11c.35,2.26,1.33,4.39,2.88,6.25-1.9,1.55-4.21,2.39-6.51,2.48-1.55-1.73-2.61-3.9-2.84-6.33,2.39-.22,4.61-1.06,6.47-2.39ZM38.72,246.33c-2.08,0-4.08-.62-5.76-1.64,2.08-.44,4.08-1.37,5.76-2.84,1.73,1.46,3.68,2.39,5.76,2.84-1.64,1.02-3.63,1.64-5.76,1.64ZM46.74,242.83c-2.35-.09-4.61-.93-6.51-2.48,1.55-1.86,2.53-3.99,2.88-6.25,1.86,1.33,4.08,2.17,6.47,2.39-.22,2.44-1.28,4.61-2.83,6.33ZM49.53,234.37c-2.39-.27-4.56-1.33-6.25-2.88-.09-1.46-.35-2.92-.93-4.3,1.42.53,2.84.84,4.34.89,1.55,1.68,2.61,3.85,2.83,6.29ZM47.58,225.96c-1.11-1.02-2.35-1.82-3.72-2.39,1.37-.62,2.61-1.42,3.72-2.44,2.3.09,4.56.89,6.47,2.44-1.9,1.51-4.16,2.3-6.47,2.39ZM55.55,222.06c-1.86-1.55-4.03-2.52-6.25-2.88,1.33-1.86,2.17-4.08,2.39-6.47,2.44.27,4.61,1.28,6.33,2.84-.09,2.44-.97,4.7-2.48,6.51Z"/>
                <path class="cls-19" d="M81.95,199.51c-1.55.58-2.97,1.51-4.21,2.66-.93.04-1.82.13-2.75.35-.49.18-.93.35-1.42.44-1.68.62-3.23,1.59-4.56,2.97-.66.62-1.2,1.33-1.68,2.04-1.2,1.86-1.9,3.94-2.04,6.07,1.02-1.33,2.08-2.66,3.23-3.9.49-.97,1.15-1.9,1.99-2.7.93-.93,1.99-1.68,3.15-2.17.09-.09.18-.13.27-.22,2.44-1.99,5.09-3.81,7.89-5.32.27-.18.53-.35.84-.49-.22.09-.49.18-.71.27Z"/>
              </g>
              <path class="cls-17" d="M85.94,187.68c-.35-.04-.71-.09-1.11-.18-.22.75-.58,1.51-1.02,2.17-.18-.8-.4-1.55-.71-2.3-.8-.09-1.64-.18-2.48-.18.62,1.02.97,2.17,1.15,3.32.13.49.18.93.18,1.42-1.68,1.55-3.9,2.61-6.33,2.84-.13-1.51-.53-2.97-1.15-4.3-.31-.75-.75-1.51-1.24-2.17,1.24-.18,2.48-.58,3.63-1.15-3.1.04-6.11.31-9.04.89.89.27,1.86.4,2.79.44.62.66,1.15,1.37,1.55,2.17.75,1.24,1.2,2.61,1.33,4.12-2.44-.27-4.61-1.33-6.29-2.88,0-.18,0-.31-.04-.49-.04-1.06-.27-2.13-.62-3.14-1.28.27-2.57.58-3.81.93.44,1.02,1.06,1.99,1.77,2.88.18.22.35.49.58.71-.04,2.3-.84,4.56-2.39,6.47-1.42-1.73-2.21-3.81-2.35-5.89-.04-.18-.04-.4-.04-.58.93-1.06,1.73-2.26,2.3-3.54-1.46.4-2.88.84-4.3,1.42-.09.4-.13.8-.13,1.24-1.68,1.55-3.85,2.61-6.29,2.88.04-.49.13-.97.27-1.42-.84.4-1.64.84-2.39,1.28v.13s-.09,0-.13-.04c-.89.53-1.77,1.06-2.61,1.64.89.27,1.77.44,2.75.53.04.49.09.97.18,1.46.35,1.68.97,3.23,1.86,4.61-.49-.09-.93-.27-1.42-.44-1.24-.44-2.39-1.15-3.41-2.17-.13-.04-.27-.18-.4-.31-.71-.66-1.24-1.42-1.73-2.21-.58.4-1.11.84-1.68,1.28.04.13.13.22.22.35.49.75,1.02,1.42,1.68,2.08.04.04.13.13.18.13,1.28,1.28,2.79,2.21,4.39,2.84.18.04.31.13.49.18.31.09.62.18.93.27.93.22,1.86.35,2.79.4,1.2,1.11,2.61,1.99,4.16,2.61,1.46.58,3.06.89,4.7.89,1.02,0,2.04-.13,3.01-.35.58-.13,1.11-.31,1.64-.53,1.59-.58,3.01-1.51,4.21-2.61.8-.04,1.59-.13,2.39-.31,2.44-1.99,5.09-3.81,7.89-5.32.04-.04.09-.13.13-.22.93-1.37,1.55-2.88,1.86-4.47.18-.75.27-1.46.27-2.21.58-.58,1.06-1.24,1.51-1.9.35-.53.66-1.11.93-1.73.18-.44.35-.89.49-1.33-.35-.09-.71-.13-1.06-.18ZM67.07,194.5c1.82,1.33,4.03,2.17,6.42,2.39-.22,2.44-1.24,4.61-2.83,6.33-2.3-.09-4.61-.93-6.47-2.48,1.55-1.86,2.48-4.03,2.88-6.25ZM51.87,196.9c.22-.04.49-.04.71-.09.04,0,.04-.04.04-.04,2.13-.27,4.03-1.06,5.67-2.26.4,2.21,1.33,4.39,2.88,6.25-1.86,1.55-4.16,2.39-6.47,2.48-1.55-1.68-2.52-3.72-2.79-6.07-.04-.09-.04-.18-.04-.27ZM62.68,206.73c-2.13,0-4.08-.62-5.76-1.64,2.08-.44,4.08-1.42,5.76-2.84,1.68,1.42,3.68,2.39,5.76,2.84-1.68,1.02-3.63,1.64-5.76,1.64ZM78.81,200.04c-1.15,1.15-2.44,1.95-3.81,2.48-.49.18-.93.35-1.42.44.53-.84.97-1.73,1.28-2.66.4-1.06.66-2.21.75-3.41,2.26-.18,4.3-.93,6.07-2.08-.13.53-.27,1.06-.49,1.55-.53,1.37-1.33,2.61-2.39,3.68Z"/>
              <path class="cls-21" d="M98.34,190.96c-.44.97-.71,1.95-.84,3.01.75-.13,1.46-.22,2.21-.35.13-.66.31-1.28.58-1.86-.62-.31-1.28-.58-1.95-.8ZM95.51,194.42c-1.55-.44-2.97-1.2-4.16-2.21-.09-.09-.18-.13-.22-.18s-.04-.04-.09-.09c.04-1.06.22-2.13.62-3.14-.66-.18-1.37-.31-2.08-.44-.18.44-.31.89-.4,1.33-.31-.49-.58-1.02-.8-1.59-.44-.09-.89-.18-1.37-.22-.35-.09-.71-.13-1.06-.18.18.53.35,1.02.58,1.51.31.75.71,1.42,1.2,2.08.35.58.75,1.06,1.2,1.55v.18c.09,1.06.27,2.13.58,3.19.66-.22,1.37-.49,2.04-.71-.09-.22-.18-.44-.22-.66.27.18.53.35.84.49,1.11-.35,2.26-.62,3.37-.89Z"/>
              <path class="cls-27" d="M103.7,193.35c-.22.18-.4.27-.66.35.62.09,1.2.18,1.77.22-.35-.18-.71-.4-1.11-.58Z"/>
            </g>
            <g>
              <path class="cls-24" d="M38.72,258.43c-.58-1.46-1.46-2.79-2.52-3.94-.09-2.52-.84-4.92-2.26-6.95h-.04c-.4-.66-.89-1.24-1.46-1.82-2.13-2.13-4.83-3.37-7.57-3.68-.4-.04-.8-.09-1.2-.09-.62-.58-1.28-1.11-1.99-1.55-.04.4-.04.8-.04,1.2-.04.62-.04,1.24-.04,1.86,0,.22,0,.49.04.71.4-.09.75-.09,1.15-.13.97,1.11,1.77,2.35,2.21,3.77.35.8.53,1.68.62,2.57-.09,0-.22,0-.31.04-1.11.13-2.13.35-3.15.8.04.71.18,1.46.31,2.17.97-.44,2.04-.75,3.15-.84-.22,1.99-1.02,3.85-2.17,5.36.27,1.06.58,2.08.93,3.1,1.33.09,2.66.49,3.9,1.2.62.27,1.24.66,1.82,1.15-.35.27-.71.53-1.06.71v.04c-.93.58-1.95,1.02-3.01,1.24.27.66.58,1.33.89,1.99,1.06-.31,2.08-.75,3.01-1.33.58-.35,1.15-.75,1.68-1.2,1.51,1.86,2.39,4.12,2.48,6.51-.27.27-.58.49-.89.71-.84.66-1.82,1.2-2.88,1.51.4.62.8,1.24,1.2,1.86.84-.31,1.59-.71,2.3-1.2-.22,1.02-.58,1.99-1.11,2.88.44.58.93,1.2,1.42,1.77.66-1.02,1.2-2.17,1.55-3.32.31-1.06.49-2.17.53-3.32,1.06-1.15,1.95-2.52,2.57-3.99.58-1.51.93-3.15.93-4.87s-.35-3.41-.97-4.92ZM33.8,252.45c-1.77-1.15-3.85-1.9-6.07-2.08-.18-2.21-.89-4.3-2.08-6.07,1.95.44,3.77,1.42,5.27,2.92s2.44,3.28,2.88,5.23ZM27.29,259.44c-.62-.22-1.28-.4-1.95-.49.49-.66.89-1.37,1.2-2.13.66-1.33,1.06-2.79,1.2-4.34,2.44.22,4.65,1.28,6.33,2.83-.09,2.44-.97,4.7-2.48,6.51-1.28-1.11-2.75-1.9-4.3-2.39ZM35.93,269.06c-.44-2.13-1.42-4.08-2.83-5.71,1.42-1.68,2.39-3.63,2.83-5.76,1.06,1.68,1.64,3.63,1.64,5.76s-.58,4.03-1.64,5.71Z"/>
              <g>
                <g>
                  <path class="cls-23" d="M62.51,297.58c-.62-1.33-1.37-2.48-2.35-3.5,0-.22-.04-.44-.04-.66-.18-2.21-.93-4.25-2.13-6.07-.44-.75-1.02-1.42-1.64-2.04-1.33-1.37-2.88-2.35-4.56-2.97-.49-.09-.93-.27-1.42-.44-.93-.22-1.82-.31-2.75-.35-1.24-1.15-2.66-2.08-4.25-2.7-1.46-.53-3.01-.84-4.65-.84-.35,0-.66,0-1.02.04-1.24.09-2.48.35-3.59.8.49.62.97,1.2,1.51,1.77.97-.31,2.04-.49,3.1-.49.35,0,.66,0,.97.09,1.77.13,3.41.71,4.78,1.59-.84.18-1.64.4-2.39.75-1.02.4-1.99,1.02-2.92,1.73.53.49,1.06.97,1.59,1.46.97-.75,2.04-1.28,3.19-1.59.89-.31,1.82-.44,2.79-.49,1.11,1.24,1.99,2.7,2.48,4.39.18.62.31,1.28.35,1.95-.89.04-1.73.22-2.57.49,1.46.97,2.97,1.86,4.52,2.7.09-.35.13-.71.18-1.06,2.44.22,4.61,1.24,6.33,2.83,0,.35-.04.75-.13,1.11,1.51.58,3.06,1.11,4.61,1.51ZM51.7,290.01c0-.18-.04-.35-.04-.49-.27-2.08-.97-3.94-2.04-5.58,1.9.44,3.77,1.37,5.23,2.88,1.46,1.46,2.48,3.28,2.92,5.23-1.51-.97-3.23-1.64-5.05-1.9-.35-.09-.66-.13-1.02-.13Z"/>
                  <path class="cls-25" d="M106.45,288.24c-.13-.27-.27-.53-.44-.75-.49-.8-1.11-1.51-1.77-2.17-.71-.75-1.51-1.37-2.35-1.9h-.04c-.8-.49-1.59-.84-2.44-1.15-.49-.18-1.02-.31-1.51-.44-.04.04-.09.04-.09,0-.75-.18-1.55-.27-2.3-.27-.75-.75-1.64-1.37-2.57-1.9-.49-.04-1.02-.13-1.51-.27-1.82-.31-3.63-.75-5.36-1.37-1.46.09-2.83.35-4.12.89-.44.18-.84.35-1.28.58-1.06.53-2.04,1.24-2.92,2.08-.93.04-1.82.13-2.75.35-.49.18-.93.35-1.42.44-1.68.62-3.23,1.59-4.56,2.97-.62.62-1.2,1.33-1.64,2.04-1.37,2.04-2.08,4.34-2.13,6.69-.22.22-.44.49-.66.75-.71.89-1.33,1.86-1.77,2.92.71.18,1.42.35,2.13.53.18-.4.35-.71.58-1.06.09.4.18.84.31,1.24.8.22,1.64.35,2.48.49-.53-1.11-.8-2.26-.93-3.41,0-.18-.04-.35-.04-.53,1.73-1.59,3.94-2.61,6.38-2.83.13,1.55.49,2.97,1.15,4.3.31.75.71,1.46,1.2,2.13-1.06.18-2.08.49-3.1.93,1.64.18,3.28.27,4.96.27,4.39,0,8.64-.49,12.71-1.46.31-1.06.49-2.17.53-3.28.09-.09.18-.18.27-.22,1.64-1.46,3.72-2.44,6.02-2.66-.04.27-.04.49-.13.75-.22,1.42-.8,2.79-1.59,3.99,1.02-.31,1.99-.66,2.97-1.11.49-1.11.75-2.35.89-3.63,1.51.13,2.92.58,4.21,1.33,1.33-.66,2.61-1.37,3.85-2.17-.27-1.06-.66-2.08-1.2-3.06ZM86.65,280.13c2.08,0,4.08.62,5.76,1.68-.71.13-1.46.35-2.13.66-1.33.49-2.52,1.2-3.63,2.17-1.73-1.46-3.68-2.44-5.76-2.84.8-.53,1.68-.93,2.66-1.24.97-.27,2.04-.44,3.1-.44ZM78.63,283.67c2.35.09,4.61.89,6.51,2.48-1.55,1.82-2.52,3.99-2.88,6.25-1.86-1.33-4.08-2.21-6.47-2.39.22-2.44,1.28-4.65,2.84-6.33ZM73.67,290.01c-2.21.13-4.3.89-6.07,2.04.44-1.9,1.42-3.72,2.92-5.23,1.46-1.51,3.32-2.44,5.23-2.88-1.15,1.77-1.91,3.81-2.08,6.07ZM78.72,298.43c-.53-.58-1.02-1.2-1.42-1.9-.8-1.33-1.33-2.84-1.46-4.39,2.39.22,4.56,1.28,6.25,2.88.04.44.09.89.13,1.33.13,1.02.4,1.99.8,2.97-1.37-.53-2.83-.84-4.3-.89ZM86.65,297.81c-.31-.66-.62-1.28-1.02-1.86-.4-.66-.89-1.24-1.42-1.82.09-2.3.89-4.61,2.44-6.47,1.51,1.86,2.3,4.16,2.39,6.47-.44.44-.84.93-1.15,1.46-.49.66-.93,1.42-1.24,2.21ZM90.99,292.4c-.35-2.26-1.33-4.43-2.88-6.25,1.9-1.59,4.21-2.39,6.51-2.48,1.55,1.68,2.61,3.9,2.84,6.33-2.39.18-4.61,1.06-6.47,2.39ZM102.42,290.54c-.89-.31-1.86-.49-2.83-.53-.18-2.26-.93-4.25-2.08-6.02v-.04c.49.09.97.27,1.42.44.04.04.09.04.13.04,1.37.49,2.61,1.28,3.72,2.39.75.75,1.37,1.59,1.86,2.52.49.84.8,1.77,1.02,2.7-.97-.62-2.08-1.15-3.23-1.51Z"/>
                </g>
                <path class="cls-13" d="M81.07,276.06c-.4,1.02-.97,1.95-1.73,2.79-.13.22-.35.44-.53.62-1.15,1.11-2.44,1.9-3.81,2.44-.49.18-.93.35-1.42.44,1.06-1.64,1.73-3.5,1.95-5.54.04-.18.09-.35.09-.53,1.37-.09,2.7-.44,3.9-.97-.89-.4-1.73-.89-2.52-1.37-.44.09-.89.18-1.37.22-.04-.4-.09-.8-.18-1.2-.93-.58-1.86-1.24-2.75-1.9.44.97.71,1.99.8,3.1-1.11-.13-2.21-.4-3.19-.89-1.15-.49-2.21-1.15-3.1-1.99,0-.27-.04-.49-.04-.75-.13-1.2-.4-2.39-.84-3.54.8.31,1.64.53,2.48.66-4.61-4.43-8.2-9.83-10.23-15.9-.13.31-.22.66-.27,1.02-1.02-.75-2.13-1.33-3.37-1.68v-.04c-.97-.35-1.99-.58-3.06-.66.18-1.82.8-3.5,1.77-4.96v-.04c.31-.49.66-.93,1.06-1.33.71.04,1.37.13,2.08.31-.18-1.11-.27-2.21-.31-3.32,0-.35-.04-.66-.04-1.02-.97.53-1.82,1.15-2.61,1.9-.18,0-.35,0-.53.04-3.01.22-5.94,1.46-8.24,3.77-.58.58-1.11,1.2-1.55,1.86-1.42,2.08-2.13,4.47-2.21,6.87-1.06,1.15-1.95,2.53-2.57,3.99-.62,1.51-.97,3.19-.97,4.92s.35,3.37,1.02,4.87c.58,1.51,1.46,2.84,2.52,3.99.04,2.35.75,4.61,2.08,6.64.49.75,1.02,1.42,1.68,2.08,2.44,2.44,5.58,3.68,8.77,3.81,1.2,1.11,2.61,1.99,4.16,2.61,1.46.58,3.06.89,4.7.89s3.23-.31,4.7-.89c1.55-.62,2.97-1.51,4.16-2.61,3.19-.13,6.33-1.37,8.77-3.81.35-.35.71-.75,1.02-1.2.22-.27.44-.53.62-.84.44-.62.8-1.24,1.11-1.95-.66-.27-1.37-.58-1.99-.89ZM73.49,276.28c-.22,2.44-1.24,4.61-2.83,6.33-2.3-.09-4.61-.93-6.47-2.48,1.55-1.86,2.48-4.03,2.88-6.25,1.82,1.33,4.03,2.17,6.42,2.39ZM51.87,276.28c2.39-.22,4.61-1.06,6.42-2.39.4,2.21,1.33,4.39,2.88,6.25-1.86,1.55-4.16,2.39-6.47,2.48-1.59-1.73-2.61-3.9-2.84-6.33ZM53.87,265.73c-2.3-.09-4.61-.89-6.47-2.39,1.86-1.55,4.16-2.35,6.47-2.44,1.06,1.02,2.3,1.82,3.68,2.44-1.37.58-2.61,1.37-3.68,2.39ZM59.05,266.97c-.53,1.37-.84,2.84-.89,4.3-1.68,1.55-3.85,2.61-6.29,2.88.27-2.44,1.28-4.61,2.88-6.29,1.46-.09,2.92-.35,4.3-.89ZM52.14,267.68c-1.33,1.86-2.21,4.08-2.39,6.47-2.44-.22-4.65-1.28-6.33-2.83.09-2.3.89-4.61,2.48-6.51,1.82,1.55,3.99,2.52,6.25,2.88ZM60.29,272.16c.97-1.06,1.82-2.35,2.39-3.68.58,1.33,1.42,2.61,2.39,3.68-.04,2.3-.84,4.56-2.39,6.47-1.55-1.9-2.35-4.16-2.39-6.47ZM55.86,253.77c.84.4,1.64.97,2.3,1.59.04,1.51.35,2.92.89,4.34-.18-.09-.35-.13-.53-.18-1.2-.44-2.48-.66-3.77-.75-1.59-1.68-2.61-3.85-2.88-6.25,1.46.13,2.79.58,3.99,1.24ZM51.79,244.29c-1.15,1.77-1.86,3.85-2.04,6.07-2.26.18-4.3.93-6.07,2.08.44-1.9,1.37-3.77,2.88-5.23,1.51-1.51,3.32-2.48,5.23-2.92ZM49.75,252.49c.18,2.39,1.06,4.61,2.39,6.47-2.26.35-4.43,1.33-6.25,2.88-1.59-1.9-2.39-4.16-2.48-6.51,1.68-1.55,3.9-2.61,6.33-2.83ZM41.55,269.1c-1.06-1.68-1.68-3.68-1.68-5.76s.62-4.12,1.68-5.76c.44,2.08,1.37,4.03,2.84,5.76-1.46,1.68-2.39,3.68-2.84,5.76ZM50.37,281.9c-1.37-.53-2.66-1.33-3.81-2.44-1.51-1.51-2.44-3.32-2.88-5.27,1.77,1.15,3.81,1.9,6.07,2.08.18,2.21.89,4.3,2.04,6.07-.49-.09-.93-.27-1.42-.44ZM62.68,286.11c-2.13,0-4.08-.62-5.76-1.64,2.08-.44,4.08-1.37,5.76-2.84,1.68,1.46,3.68,2.39,5.76,2.84-1.68,1.02-3.63,1.64-5.76,1.64Z"/>
                <path class="cls-26" d="M123.28,274.15c-.04-.27-.04-.53-.13-.8-1.37.93-2.83,1.77-4.34,2.48.75.22,1.55.35,2.35.44-.22,2.44-1.28,4.61-2.83,6.33,1.77-1.77,3.41-3.68,4.87-5.67.04-.22.09-.44.09-.66.13,0,.31-.04.44-.04.58-.84,1.15-1.68,1.64-2.52-.66.22-1.37.4-2.08.44ZM114.64,281.77c-.31-.09-.62-.22-.93-.44-.66-.27-1.28-.71-1.9-1.2.53-.66,1.02-1.37,1.37-2.08-1.59.58-3.19,1.02-4.87,1.33.13.27.31.53.53.75-1.9,1.55-4.16,2.39-6.51,2.48-.66-.75-1.24-1.55-1.64-2.44-.27.04-.58.04-.89.04-.49,0-.97,0-1.46-.04.27.75.62,1.42,1.06,2.08,0,.04.04.04.04.09-.53-.13-1.06-.27-1.55-.53-.04.04-.09.04-.09,0-1.15-.44-2.17-1.06-3.1-1.9-.58-.04-1.2-.13-1.77-.27-.49-.04-1.02-.13-1.51-.27.35.53.8,1.06,1.28,1.55.93.97,1.99,1.73,3.15,2.35.53.27,1.06.49,1.64.66v.04c.49.18.93.31,1.42.4.04.04.09.04.13.04.8.18,1.59.27,2.39.31,1.28,1.2,2.84,2.17,4.56,2.75.35.13.71.27,1.06.35,1.02.27,2.13.4,3.23.4.62,0,1.24-.04,1.86-.13,2.21-1.68,4.3-3.5,6.16-5.49-1.28-.04-2.52-.31-3.68-.84ZM110.3,286.11c-.22,0-.49,0-.71-.04-1.82-.09-3.54-.71-5.01-1.59,1.59-.35,3.15-.97,4.56-1.95.4-.27.8-.58,1.15-.89.22.18.4.35.62.49.62.49,1.28.89,1.95,1.24,1.02.49,2.13.89,3.19,1.11-1.64,1.02-3.63,1.64-5.76,1.64Z"/>
              </g>
            </g>
          </g>
          <path class="cls-16" d="M77.92,187.11c-31.11,0-56.33,25.22-56.33,56.33s25.22,56.33,56.33,56.33c21.4,0,40.01-11.93,49.54-29.51-7.5,6.23-17.14,9.98-27.65,9.98-23.91,0-44.74-19.43-43.3-43.3,1.32-21.78,21.23-40.31,43.3-43.3.4-.05.8-.08,1.19-.08,1.27,0,2.54.23,3.79.37-7.99-4.35-17.15-6.82-26.88-6.82h0Z"/>
          <path class="cls-14" d="M77.92,190.34c4.61,0,9.2.6,13.63,1.77-20.83,6.1-37.03,24.45-38.25,44.63-.7,11.66,3.47,22.93,11.77,31.74,8.96,9.52,21.63,14.98,34.75,14.98,5.51,0,10.94-.98,16.04-2.86-9.85,10.06-23.45,15.94-37.94,15.94-29.28,0-53.1-23.82-53.1-53.1s23.82-53.1,53.1-53.1M77.92,187.11c-31.11,0-56.33,25.22-56.33,56.33s25.22,56.33,56.33,56.33c21.4,0,40.01-11.93,49.54-29.51-7.5,6.23-17.14,9.98-27.65,9.98-23.91,0-44.74-19.43-43.3-43.3,1.32-21.78,21.23-40.31,43.3-43.3.4-.05.8-.08,1.19-.08,1.27,0,2.54.23,3.79.37-7.99-4.35-17.15-6.82-26.88-6.82h0Z"/>
          <path class="cls-15" d="M74.53,187.77c-1.82,0-3.31-1.48-3.31-3.31s1.48-3.31,3.31-3.31,3.31,1.48,3.31,3.31-1.48,3.31-3.31,3.31ZM74.53,182.46c-1.1,0-2,.9-2,2s.9,2,2,2,2-.9,2-2-.9-2-2-2Z"/>
        </g>
        <g>
          <g>
            <g class="cls-6">
              <ellipse class="cls-18" cx="74.53" cy="189.25" rx="42.34" ry="43.77"/>
            </g>
            <g>
              <path class="cls-10" d="M81.02,189.25c0,8.31-2.91,15.04-6.49,15.04s-6.49-6.73-6.49-15.04,2.91-15.04,6.49-15.04,6.49,6.73,6.49,15.04Z"/>
              <ellipse class="cls-5" cx="74.53" cy="189.25" rx="15.04" ry="6.49"/>
            </g>
          </g>
          <g>
            <g>
              <path class="cls-8" d="M124.04,277.3c-17.96-3.74-32-9.26-31.36-12.32.64-3.06,15.71-2.51,33.67,1.23,17.96,3.74,32,9.26,31.36,12.32-.64,3.06-15.71,2.51-33.67-1.23Z"/>
              <path class="cls-3" d="M119.65,270.59c3.74-17.96,9.26-32,12.32-31.36,3.06.64,2.51,15.71-1.23,33.67-3.74,17.96-9.26,32-12.32,31.36-3.06-.64-2.51-15.71,1.23-33.67Z"/>
            </g>
            <g>
              <path class="cls-2" d="M121.46,274.2c-7.93-12.11-12.69-23.02-10.62-24.37,2.07-1.35,10.17,7.37,18.1,19.47,7.93,12.11,12.69,23.02,10.62,24.37-2.07,1.35-10.17-7.37-18.1-19.47Z"/>
              <path class="cls-9" d="M122.75,268.01c12.11-7.93,23.02-12.69,24.37-10.62,1.35,2.07-7.37,10.17-19.47,18.1-12.11,7.93-23.02,12.69-24.37,10.62-1.35-2.07,7.37-10.17,19.47-18.1Z"/>
            </g>
          </g>
          <g>
            <g>
              <path class="cls-11" d="M22.97,230.24c-10.41,0-18.86-1.44-18.86-3.22s8.44-3.22,18.86-3.22,18.86,1.44,18.86,3.22-8.44,3.22-18.86,3.22Z"/>
              <path class="cls-1" d="M19.75,227.02c0-10.41,1.44-18.86,3.22-18.86s3.22,8.44,3.22,18.86-1.44,18.86-3.22,18.86-3.22-8.44-3.22-18.86Z"/>
            </g>
            <g>
              <path class="cls-4" d="M21.17,228.82c-5.81-5.81-9.72-11.32-8.73-12.31.99-.99,6.5,2.92,12.31,8.73,5.81,5.81,9.72,11.32,8.73,12.31-.99.99-6.5-2.92-12.31-8.73Z"/>
              <path class="cls-7" d="M21.17,225.23c5.81-5.81,11.32-9.72,12.31-8.73.99.99-2.92,6.5-8.73,12.31-5.81,5.81-11.32,9.72-12.31,8.73s2.92-6.5,8.73-12.31Z"/>
            </g>
          </g>
        </g>
      </g>
    </g>
  </g>
</svg>