<?xml version="1.0" encoding="UTF-8"?>
<svg id="Layer_1" xmlns="http://www.w3.org/2000/svg" version="1.1" xmlns:xlink="http://www.w3.org/1999/xlink" viewBox="0 0 188.04 192">
  <!-- Generator: Adobe Illustrator 29.3.1, SVG Export Plug-In . SVG Version: 2.1.0 Build 151)  -->
  <defs>
    <style>
      .st0 {
        filter: url(#drop-shadow-6);
      }

      .st1 {
        fill: #fff;
      }

      .st2 {
        fill: url(#linear-gradient1);
        filter: url(#drop-shadow-2);
      }

      .st3 {
        fill: url(#linear-gradient2);
        filter: url(#drop-shadow-4);
      }

      .st4 {
        fill: url(#linear-gradient);
        filter: url(#drop-shadow-1);
      }

      .st5 {
        fill: url(#linear-gradient4);
      }

      .st6 {
        filter: url(#drop-shadow-3);
      }

      .st7 {
        fill: url(#linear-gradient3);
        filter: url(#drop-shadow-5);
      }

      .st8 {
        fill: #d09d2c;
      }
    </style>
    <linearGradient id="linear-gradient" x1="15.89" y1="96" x2="172.14" y2="96" gradientUnits="userSpaceOnUse">
      <stop offset="0" stop-color="#fde7a4"/>
      <stop offset=".19" stop-color="#e6ba6b"/>
      <stop offset=".29" stop-color="#dda853"/>
      <stop offset=".58" stop-color="#c5862d"/>
      <stop offset=".85" stop-color="#b46d11"/>
    </linearGradient>
    <filter id="drop-shadow-1" x="-8.72" y="-10.31" width="205" height="213" filterUnits="userSpaceOnUse">
      <feOffset dx="0" dy="0"/>
      <feGaussianBlur result="blur" stdDeviation="7.96"/>
      <feFlood flood-color="#000" flood-opacity=".75"/>
      <feComposite in2="blur" operator="in"/>
      <feComposite in="SourceGraphic"/>
    </filter>
    <linearGradient id="linear-gradient1" x1="36.09" y1="154.46" x2="141.13" y2="48.51" gradientUnits="userSpaceOnUse">
      <stop offset=".15" stop-color="#b46d11"/>
      <stop offset=".42" stop-color="#c5862d"/>
      <stop offset=".71" stop-color="#dda853"/>
      <stop offset=".81" stop-color="#e6ba6b"/>
      <stop offset="1" stop-color="#fde7a4"/>
    </linearGradient>
    <filter id="drop-shadow-2" x="12.51" y="10.92" width="164" height="171" filterUnits="userSpaceOnUse">
      <feOffset dx="0" dy="0"/>
      <feGaussianBlur result="blur1" stdDeviation="3.55"/>
      <feFlood flood-color="#000" flood-opacity=".75"/>
      <feComposite in2="blur1" operator="in"/>
      <feComposite in="SourceGraphic"/>
    </filter>
    <filter id="drop-shadow-3" x="19.71" y="19.12" width="148" height="154" filterUnits="userSpaceOnUse">
      <feOffset dx="0" dy="0"/>
      <feGaussianBlur result="blur2" stdDeviation="3.48"/>
      <feFlood flood-color="#000" flood-opacity=".75"/>
      <feComposite in2="blur2" operator="in"/>
      <feComposite in="SourceGraphic"/>
    </filter>
    <linearGradient id="linear-gradient2" x1="41.51" y1="95.91" x2="146.8" y2="95.91" xlink:href="#linear-gradient"/>
    <filter id="drop-shadow-4" x="30.51" y="28.92" width="128" height="134" filterUnits="userSpaceOnUse">
      <feOffset dx="0" dy="0"/>
      <feGaussianBlur result="blur3" stdDeviation="3.55"/>
      <feFlood flood-color="#000" flood-opacity=".75"/>
      <feComposite in2="blur3" operator="in"/>
      <feComposite in="SourceGraphic"/>
    </filter>
    <linearGradient id="linear-gradient3" x1="70.17" y1="96" x2="117.86" y2="96" xlink:href="#linear-gradient"/>
    <filter id="drop-shadow-5" x="51.12" y="51.53" width="86" height="89" filterUnits="userSpaceOnUse">
      <feOffset dx="0" dy="0"/>
      <feGaussianBlur result="blur4" stdDeviation="6.35"/>
      <feFlood flood-color="#000" flood-opacity=".75"/>
      <feComposite in2="blur4" operator="in"/>
      <feComposite in="SourceGraphic"/>
    </filter>
    <filter id="drop-shadow-6" x="60.51" y="61.92" width="68" height="69" filterUnits="userSpaceOnUse">
      <feOffset dx="0" dy="0"/>
      <feGaussianBlur result="blur5" stdDeviation="3.55"/>
      <feFlood flood-color="#000" flood-opacity=".75"/>
      <feComposite in2="blur5" operator="in"/>
      <feComposite in="SourceGraphic"/>
    </filter>
    <linearGradient id="linear-gradient4" x1="90.79" y1="96" x2="97.25" y2="96" gradientUnits="userSpaceOnUse">
      <stop offset="0" stop-color="#b57837"/>
      <stop offset=".2" stop-color="#d2a24d"/>
      <stop offset=".44" stop-color="#f2d166"/>
      <stop offset=".57" stop-color="#ffe370"/>
      <stop offset=".64" stop-color="#f8d96a"/>
      <stop offset=".76" stop-color="#e5be5c"/>
      <stop offset=".91" stop-color="#c89445"/>
      <stop offset="1" stop-color="#b57837"/>
    </linearGradient>
  </defs>
  <polygon class="st4" points="163.88 96.06 172.14 70.62 150.6 54.97 142.41 29.64 115.67 29.6 94.04 13.88 72.5 29.53 45.87 29.48 37.57 54.9 15.93 70.62 24.16 95.94 15.89 121.25 37.5 137.01 45.77 162.44 72.39 162.44 93.91 178.12 115.57 162.44 142.31 162.44 150.54 137.12 172.1 121.5 163.88 96.06"/>
  <polygon class="st2" points="156.79 96.05 164.21 73.2 144.86 59.14 137.5 36.37 113.47 36.34 94.04 22.21 74.68 36.27 50.76 36.24 43.3 59.08 23.86 73.2 31.25 95.95 23.82 118.69 43.24 132.84 50.66 155.7 74.59 155.7 93.92 169.79 113.38 155.7 137.41 155.7 144.8 132.94 164.18 118.91 156.79 96.05"/>
  <g class="st6">
    <polygon class="st1" points="36.59 114.56 42.09 97.72 37.01 97.72 32 113.06 30.9 116.4 33.74 118.47 46.87 128.04 50.98 125.05 36.59 114.56"/>
    <polygon class="st1" points="37.01 94.19 42.1 94.2 36.62 77.35 51.03 66.88 46.92 63.89 33.78 73.43 30.94 75.5 32.02 78.84 37.01 94.19"/>
    <polygon class="st1" points="135.04 64.08 139.16 61.09 134.19 45.73 133.11 42.39 129.6 42.38 113.37 42.36 111.79 47.19 129.59 47.22 135.04 64.08"/>
    <polygon class="st1" points="151.44 77.35 145.94 94.28 151.03 94.28 156.04 78.84 157.13 75.5 154.29 73.43 141.23 63.95 137.11 66.93 151.44 77.35"/>
    <polygon class="st1" points="53.05 127.9 48.93 130.89 53.95 146.33 55.04 149.67 74.69 149.67 76.27 144.84 58.55 144.84 53.05 127.9"/>
    <polygon class="st1" points="58.64 42.27 55.12 42.27 54.03 45.61 48.99 61.04 53.1 64.03 58.63 47.11 76.35 47.14 74.78 42.3 58.64 42.27"/>
    <polygon class="st1" points="129.51 144.84 111.71 144.84 113.28 149.67 133.03 149.67 134.11 146.33 139.1 130.98 134.99 127.99 129.51 144.84"/>
    <polygon class="st1" points="151.02 97.81 145.94 97.8 151.41 114.74 137.06 125.14 141.18 128.13 154.25 118.66 157.1 116.6 156.02 113.26 151.02 97.81"/>
    <polygon class="st1" points="94.03 29.66 91.19 31.72 78.13 41.21 79.7 46.05 94.03 35.64 108.44 46.1 110.01 41.27 96.88 31.72 94.03 29.66"/>
    <polygon class="st1" points="93.94 156.36 79.62 145.93 78.05 150.77 91.09 160.27 93.93 162.34 96.77 160.28 109.93 150.76 108.36 145.92 93.94 156.36"/>
  </g>
  <polygon class="st3" points="141.23 95.94 146.8 78.81 132.29 68.26 126.77 51.19 108.75 51.16 94.17 40.57 79.66 51.11 61.71 51.09 56.12 68.21 41.54 78.81 47.08 95.87 41.51 112.92 56.07 123.54 61.64 140.68 79.58 140.68 94.08 151.25 108.68 140.68 126.7 140.68 132.24 123.61 146.77 113.09 141.23 95.94"/>
  <g>
    <g>
      <path class="st1" d="M123.01,136.02h-57.68c-.18,0-.34-.12-.4-.29l-17.82-54.86c-.06-.17,0-.36.15-.47l46.66-33.9c.15-.11.35-.11.5,0l46.67,33.9c.15.11.21.3.15.47l-17.82,54.86c-.05.17-.22.29-.4.29ZM65.63,135.18h57.07l17.64-54.28-46.17-33.54-46.17,33.54,17.64,54.28Z"/>
      <path class="st1" d="M94.09,145.39c-.09,0-.17-.03-.25-.08l-46.61-33.98c-.15-.11-.21-.3-.15-.47l17.91-54.83c.05-.17.22-.29.4-.29h0l57.68.09c.18,0,.34.12.4.29l17.74,54.89c.05.17,0,.36-.16.47l-46.72,33.83c-.07.05-.16.08-.25.08ZM47.97,110.84l46.12,33.62,46.22-33.47-17.55-54.31-57.07-.09-17.73,54.25Z"/>
    </g>
    <path class="st1" d="M94.16,145.47c-.22,0-.42-.14-.48-.36l-7.38-25.04-20.68,15.92c-.17.13-.42.14-.6,0-.18-.13-.25-.36-.18-.57l8.75-24.59-26.09.72c-.18,0-.42-.13-.49-.34-.07-.21.01-.44.19-.56l21.53-14.75-21.53-14.75c-.18-.12-.26-.35-.19-.56.07-.21.31-.35.49-.34l26.09.72-8.75-24.59c-.08-.21,0-.44.18-.57s.42-.13.6,0l20.68,15.92,7.38-25.04c.12-.42.83-.42.95,0l7.38,25.04,20.68-15.92c.17-.14.42-.14.6,0,.18.13.25.36.18.57l-8.75,24.59,26.09-.72c.22,0,.42.13.49.34.07.21-.01.44-.19.56l-21.53,14.75,21.53,14.75c.18.12.26.35.19.56-.07.21-.27.33-.49.34l-26.09-.72,8.75,24.59c.08.21,0,.44-.18.57-.18.13-.42.13-.6,0l-20.68-15.92-7.38,25.04c-.06.21-.26.36-.48.36ZM86.57,118.74c.05,0,.1,0,.15.02.16.05.28.18.32.33l7.11,24.11,7.11-24.11c.05-.16.17-.28.32-.33.16-.05.33-.02.46.08l19.92,15.33-8.43-23.68c-.05-.15-.03-.33.07-.46.1-.14.25-.23.42-.21l25.13.69-20.74-14.21c-.14-.09-.22-.25-.22-.41s.08-.32.22-.41l20.74-14.21-25.13.69c-.18-.03-.32-.07-.42-.21-.1-.13-.12-.3-.07-.46l8.43-23.68-19.92,15.33c-.13.1-.31.13-.46.08-.16-.05-.28-.18-.32-.33l-7.11-24.11-7.11,24.11c-.05.16-.17.28-.32.33-.15.05-.33.02-.46-.08l-19.92-15.33,8.43,23.68c.05.15.03.33-.07.46-.1.13-.24.18-.42.21l-25.13-.69,20.73,14.21c.14.09.22.25.22.41s-.08.32-.22.41l-20.73,14.21,25.13-.69c.17-.03.32.07.42.21.1.13.12.3.07.46l-8.43,23.68,19.92-15.33c.09-.07.19-.1.3-.1Z"/>
    <path class="st1" d="M78.52,96.06l-4.69-14.42c-.05-.15-.02-.32.07-.45.09-.13.24-.21.4-.21h15.16v.99h-14.48l4.47,13.77-.95.31Z"/>
    <path class="st1" d="M106.71,105.22l-.58-.81,11.71-8.51-7.03-5.1c-.18-.13-.25-.35-.18-.56l2.69-8.27h-14.48v-.99h15.16c.16,0,.31.08.4.21.1.13.12.29.07.45l-2.79,8.57,7.29,5.29c.13.09.21.24.21.4s-.08.31-.21.4l-12.27,8.91Z"/>
    <path class="st1" d="M86.57,119.74c-.05,0-.1,0-.15-.02-.15-.05-.27-.17-.32-.32l-4.69-14.42.95-.31,4.47,13.77,11.71-8.51.58.81-12.27,8.91c-.09.06-.19.09-.29.09Z"/>
    <path class="st1" d="M101.74,119.74c-.1,0-.21-.03-.29-.09l-12.27-8.91.58-.81,11.71,8.51,4.47-13.77.95.31-4.69,14.42c-.05.15-.17.27-.32.32-.05.02-.1.02-.15.02Z"/>
    <path class="st1" d="M109.79,96.06l-.95-.31,1.68-5.16-4.39-3.19c-.09-.06-.15-.15-.18-.25l-4.47-13.77-11.71,8.51-.58-.81,12.27-8.91c.13-.09.29-.12.45-.07.15.05.27.17.32.32l4.64,14.27,4.55,3.31c.18.13.25.35.18.56l-1.79,5.51Z"/>
    <path class="st1" d="M81.6,105.22l-12.27-8.91c-.13-.09-.21-.24-.21-.4s.08-.31.21-.4l12.27-8.91.58.81-11.71,8.51,11.71,8.51-.58.81Z"/>
    <path class="st1" d="M89.47,110.83h-15.16c-.16,0-.31-.08-.4-.21-.1-.13-.12-.29-.07-.45l4.69-14.42.95.31-4.47,13.77h14.48v.99Z"/>
    <path class="st1" d="M82.36,87.15l-.95-.31,4.69-14.42c.05-.15.17-.27.32-.32.15-.05.31-.02.45.07l12.27,8.91-.58.81-11.71-8.51-4.47,13.77Z"/>
    <path class="st1" d="M114,110.83h-15.16v-.99h14.48l-4.47-13.77.95-.31,4.69,14.42c.05.15.02.32-.07.45-.09.13-.24.21-.4.21Z"/>
  </g>
  <g>
    <path class="st7" d="M117.86,88.26l-6.57-4.78-2.5-7.73h-8.16s-6.6-4.81-6.6-4.81l-6.57,4.77h-8.13s-2.54,7.75-2.54,7.75l-6.6,4.8,2.51,7.73-2.52,7.72,6.6,4.81,2.52,7.76h8.13l6.57,4.79,6.61-4.79h8.17l2.51-7.73,6.58-4.76-2.51-7.76,2.52-7.76Z"/>
    <g class="st0">
      <polygon class="st1" points="73.77 102.55 75.71 96.61 73.91 96.61 72.15 102.02 71.76 103.19 72.76 103.92 77.39 107.3 78.84 106.24 73.77 102.55"/>
      <polygon class="st1" points="73.92 95.36 75.71 95.36 73.78 89.42 78.86 85.73 77.41 84.68 72.78 88.04 71.77 88.77 72.16 89.95 73.92 95.36"/>
      <polygon class="st1" points="114.27 89.42 112.33 95.39 114.12 95.39 115.89 89.95 116.27 88.77 115.27 88.04 110.66 84.7 109.21 85.75 114.27 89.42"/>
      <polygon class="st1" points="114.12 96.64 112.32 96.64 114.26 102.61 109.2 106.27 110.65 107.33 115.26 103.99 116.26 103.26 115.88 102.09 114.12 96.64"/>
      <polygon class="st1" points="79.57 107.25 78.12 108.3 79.89 113.75 80.27 114.93 87.2 114.93 87.76 113.22 81.51 113.22 79.57 107.25"/>
      <polygon class="st1" points="108.48 84.74 109.93 83.69 108.18 78.28 107.8 77.1 106.56 77.09 100.84 77.08 100.28 78.79 106.56 78.8 108.48 84.74"/>
      <polygon class="st1" points="94.02 72.61 93.02 73.33 88.42 76.68 88.97 78.39 94.02 74.71 99.1 78.4 99.66 76.7 95.02 73.33 94.02 72.61"/>
      <polygon class="st1" points="81.54 77.05 80.3 77.05 79.92 78.23 78.14 83.67 79.59 84.73 81.54 78.76 87.79 78.77 87.23 77.06 81.54 77.05"/>
      <polygon class="st1" points="106.53 113.22 100.26 113.22 100.81 114.93 107.77 114.93 108.16 113.75 109.91 108.33 108.46 107.28 106.53 113.22"/>
      <polygon class="st1" points="93.99 117.29 88.94 113.61 88.39 115.31 92.98 118.66 93.99 119.39 94.99 118.67 99.63 115.31 99.07 113.6 93.99 117.29"/>
    </g>
    <g>
      <rect class="st1" x="102.97" y="90.12" width=".36" height="11.8" transform="translate(6.9 198.95) rotate(-89.87)"/>
      <path class="st1" d="M109.8,96.02l1.71-5.25.16-.49-.42-.3-4.45-3.23-1.69-5.23-.16-.49h-.52s-5.52-.01-5.52-.01l-4.47-3.24-.42-.3-.42.3-4.45,3.23h-5.5s-.52-.01-.52-.01l-.16.49-1.72,5.25-4.47,3.25-.42.3.16.49,1.7,5.23-1.71,5.22-.16.49.42.3,4.46,3.26,1.71,5.25.16.49h6.01l4.44,3.24.42.3.42-.3,4.47-3.24h6.04l.16-.49,1.7-5.23,4.45-3.22.42-.3-.16-.49-1.7-5.25ZM110.83,90.55h0s0,0,0,0h0ZM104.44,81.76l-.05-.04h.04s.01.04.01.04ZM94.03,78.34h-.01,0s0,0,0,0ZM83.7,81.69l-.05.04v-.04h.05ZM77.23,90.53v.02s-.01-.01-.01-.01h.01ZM77.21,101.43h0s0,0,0,0h0ZM93.98,113.66h.04-.02s-.02,0-.02,0ZM104.41,110.3h0s0,0,0,0h0ZM106.32,104.74l-9.58-6.98-.05-.03h-.07v.19s-.09.13-.09.13l9.54,6.95.1-.14h0s-1.7,5.23-1.7,5.23l-8.41-11.57-.29.21,8.41,11.57h-5.5l.13-.04-3.64-11.24-.34.11,3.64,11.24.15-.05-4.44,3.22v-14.3h-.35v14.32l-4.32-3.15,3.67-11.28-.34-.11-3.65,11.22.16.05h0s-5.5,0-5.5,0l8.4-11.58-.29-.21-8.4,11.58-1.7-5.24.08.11,9.55-6.92-.21-.29-9.55,6.92.11.15-4.44-3.24,13.59-4.41-.11-.34-13.62,4.42,1.71-5.25v.16s11.8.01,11.8.01v-.35s-11.8-.01-11.8-.01v.18s-1.7-5.25-1.7-5.25l13.6,4.43.11-.34-13.58-4.42,4.43-3.22-.08.1,9.52,6.95.05.03h.07v-.19s.09-.13.09-.13l-9.52-6.95-.08.12,1.69-5.18,8.4,11.57h.01s.25-.23.25-.23l-8.41-11.58h5.52s-.13.05-.13.05l3.63,11.24.34-.11-3.63-11.24-.16.05,4.43-3.22v14.3h.35v-14.3l4.47,3.25-.16-.05-3.67,11.21.34.11,3.67-11.21-.17-.06h5.5s-8.4,11.56-8.4,11.56l-.03.05v.07h.19s.13.09.13.09l8.42-11.58,1.7,5.25-.09-.12-9.56,6.93.21.29,9.56-6.93-.09-.13,4.44,3.23-13.62,4.42.11.34,13.62-4.42-1.71,5.26,1.69,5.24-13.6-4.42-.11.34,13.62,4.43-4.34,3.14ZM110.8,101.5v-.04s.02.02.02.02h-.02Z"/>
    </g>
    <g>
      <path class="st5" d="M97.25,96c0,1.79-1.45,3.23-3.23,3.23s-3.23-1.45-3.23-3.23,1.45-3.23,3.23-3.23,3.23,1.45,3.23,3.23Z"/>
      <path class="st8" d="M94.02,99.49c-1.92,0-3.49-1.56-3.49-3.49s1.56-3.49,3.49-3.49,3.49,1.56,3.49,3.49-1.56,3.49-3.49,3.49ZM94.02,93.02c-1.64,0-2.98,1.34-2.98,2.98s1.34,2.98,2.98,2.98,2.98-1.34,2.98-2.98-1.34-2.98-2.98-2.98Z"/>
    </g>
  </g>
</svg>