<?xml version="1.0" encoding="UTF-8"?>
<svg id="Layer_1" xmlns="http://www.w3.org/2000/svg" version="1.1" xmlns:xlink="http://www.w3.org/1999/xlink" viewBox="0 0 152.93 156.16">
  <!-- Generator: Adobe Illustrator 29.3.1, SVG Export Plug-In . SVG Version: 2.1.0 Build 151)  -->
  <defs>
    <style>
      .st0 {
        filter: url(#drop-shadow-6);
      }

      .st1 {
        fill: #fff;
      }

      .st2 {
        fill: url(#linear-gradient1);
        filter: url(#drop-shadow-2);
      }

      .st3 {
        fill: url(#linear-gradient2);
        filter: url(#drop-shadow-4);
      }

      .st4 {
        fill: url(#linear-gradient);
        filter: url(#drop-shadow-1);
      }

      .st5 {
        fill: url(#linear-gradient4);
      }

      .st6 {
        filter: url(#drop-shadow-3);
      }

      .st7 {
        fill: url(#linear-gradient3);
        filter: url(#drop-shadow-5);
      }

      .st8 {
        fill: #d09d2c;
      }
    </style>
    <linearGradient id="linear-gradient" x1="15.53" y1="78.08" x2="137.41" y2="78.08" gradientUnits="userSpaceOnUse">
      <stop offset="0" stop-color="#fde7a4"/>
      <stop offset=".19" stop-color="#e6ba6b"/>
      <stop offset=".29" stop-color="#dda853"/>
      <stop offset=".58" stop-color="#c5862d"/>
      <stop offset=".85" stop-color="#b46d11"/>
    </linearGradient>
    <filter id="drop-shadow-1" x="-3.91" y="-5.55" width="161" height="168" filterUnits="userSpaceOnUse">
      <feOffset dx="0" dy="0"/>
      <feGaussianBlur result="blur" stdDeviation="6.21"/>
      <feFlood flood-color="#000" flood-opacity=".75"/>
      <feComposite in2="blur" operator="in"/>
      <feComposite in="SourceGraphic"/>
    </filter>
    <linearGradient id="linear-gradient1" x1="31.28" y1="123.68" x2="113.22" y2="41.04" gradientUnits="userSpaceOnUse">
      <stop offset=".15" stop-color="#b46d11"/>
      <stop offset=".42" stop-color="#c5862d"/>
      <stop offset=".71" stop-color="#dda853"/>
      <stop offset=".81" stop-color="#e6ba6b"/>
      <stop offset="1" stop-color="#fde7a4"/>
    </linearGradient>
    <filter id="drop-shadow-2" x="12.41" y="11.77" width="128" height="133" filterUnits="userSpaceOnUse">
      <feOffset dx="0" dy="0"/>
      <feGaussianBlur result="blur1" stdDeviation="2.77"/>
      <feFlood flood-color="#000" flood-opacity=".75"/>
      <feComposite in2="blur1" operator="in"/>
      <feComposite in="SourceGraphic"/>
    </filter>
    <filter id="drop-shadow-3" x="18.57" y="17.93" width="116" height="121" filterUnits="userSpaceOnUse">
      <feOffset dx="0" dy="0"/>
      <feGaussianBlur result="blur2" stdDeviation="2.72"/>
      <feFlood flood-color="#000" flood-opacity=".75"/>
      <feComposite in2="blur2" operator="in"/>
      <feComposite in="SourceGraphic"/>
    </filter>
    <linearGradient id="linear-gradient2" x1="35.51" y1="78.01" x2="117.64" y2="78.01" xlink:href="#linear-gradient"/>
    <filter id="drop-shadow-4" x="26.41" y="25.77" width="100" height="105" filterUnits="userSpaceOnUse">
      <feOffset dx="0" dy="0"/>
      <feGaussianBlur result="blur3" stdDeviation="2.77"/>
      <feFlood flood-color="#000" flood-opacity=".75"/>
      <feComposite in2="blur3" operator="in"/>
      <feComposite in="SourceGraphic"/>
    </filter>
    <linearGradient id="linear-gradient3" x1="57.87" y1="78.08" x2="95.07" y2="78.08" xlink:href="#linear-gradient"/>
    <filter id="drop-shadow-5" x="42.87" y="43.23" width="68" height="70" filterUnits="userSpaceOnUse">
      <feOffset dx="0" dy="0"/>
      <feGaussianBlur result="blur4" stdDeviation="4.95"/>
      <feFlood flood-color="#000" flood-opacity=".75"/>
      <feComposite in2="blur4" operator="in"/>
      <feComposite in="SourceGraphic"/>
    </filter>
    <filter id="drop-shadow-6" x="50.41" y="50.77" width="53" height="55" filterUnits="userSpaceOnUse">
      <feOffset dx="0" dy="0"/>
      <feGaussianBlur result="blur5" stdDeviation="2.77"/>
      <feFlood flood-color="#000" flood-opacity=".75"/>
      <feComposite in2="blur5" operator="in"/>
      <feComposite in="SourceGraphic"/>
    </filter>
    <linearGradient id="linear-gradient4" x1="73.95" y1="78.08" x2="78.99" y2="78.08" gradientUnits="userSpaceOnUse">
      <stop offset="0" stop-color="#b57837"/>
      <stop offset=".2" stop-color="#d2a24d"/>
      <stop offset=".44" stop-color="#f2d166"/>
      <stop offset=".57" stop-color="#ffe370"/>
      <stop offset=".64" stop-color="#f8d96a"/>
      <stop offset=".76" stop-color="#e5be5c"/>
      <stop offset=".91" stop-color="#c89445"/>
      <stop offset="1" stop-color="#b57837"/>
    </linearGradient>
  </defs>
  <polygon class="st4" points="130.96 78.12 137.41 58.28 120.6 46.08 114.22 26.31 93.36 26.28 76.48 14.02 59.68 26.23 38.91 26.19 32.43 46.02 15.56 58.28 21.98 78.04 15.53 97.78 32.38 110.07 38.83 129.9 59.6 129.9 76.38 142.14 93.28 129.9 114.14 129.9 120.55 110.15 137.37 97.97 130.96 78.12"/>
  <polygon class="st2" points="125.43 78.12 131.22 60.29 116.12 49.32 110.39 31.57 91.64 31.54 76.48 20.52 61.38 31.49 42.72 31.46 36.9 49.28 21.74 60.29 27.51 78.04 21.71 95.78 36.86 106.82 42.65 124.64 61.31 124.64 76.39 135.64 91.57 124.64 110.31 124.64 116.08 106.9 131.19 95.95 125.43 78.12"/>
  <g class="st6">
    <polygon class="st1" points="31.67 92.56 35.96 79.42 32 79.42 28.09 91.39 27.24 93.99 29.45 95.61 39.69 103.07 42.9 100.74 31.67 92.56"/>
    <polygon class="st1" points="32 76.67 35.97 76.67 31.7 63.53 42.93 55.37 39.73 53.03 29.48 60.48 27.26 62.09 28.11 64.69 32 76.67"/>
    <polygon class="st1" points="108.47 53.18 111.68 50.85 107.81 38.87 106.96 36.26 104.22 36.26 91.56 36.24 90.33 40.01 104.22 40.03 108.47 53.18"/>
    <polygon class="st1" points="121.26 63.53 116.97 76.74 120.93 76.74 124.85 64.69 125.7 62.09 123.48 60.48 113.29 53.08 110.08 55.41 121.26 63.53"/>
    <polygon class="st1" points="44.51 102.97 41.3 105.29 45.21 117.34 46.06 119.95 61.39 119.95 62.62 116.17 48.8 116.17 44.51 102.97"/>
    <polygon class="st1" points="48.87 36.17 46.13 36.16 45.28 38.77 41.34 50.81 44.55 53.14 48.86 39.94 62.68 39.96 61.46 36.19 48.87 36.17"/>
    <polygon class="st1" points="104.16 116.17 90.27 116.17 91.49 119.95 106.9 119.95 107.74 117.34 111.63 105.36 108.43 103.03 104.16 116.17"/>
    <polygon class="st1" points="120.93 79.49 116.97 79.49 121.24 92.7 110.04 100.81 113.25 103.14 123.45 95.76 125.67 94.15 124.83 91.54 120.93 79.49"/>
    <polygon class="st1" points="76.48 26.33 74.26 27.94 64.08 35.34 65.3 39.12 76.48 30.99 87.71 39.16 88.94 35.39 78.7 27.94 76.48 26.33"/>
    <polygon class="st1" points="76.4 125.17 65.24 117.02 64.01 120.8 74.18 128.21 76.4 129.83 78.62 128.22 88.88 120.79 87.65 117.02 76.4 125.17"/>
  </g>
  <polygon class="st3" points="113.3 78.04 117.64 64.67 106.32 56.44 102.01 43.12 87.96 43.1 76.59 34.84 65.26 43.07 51.27 43.04 46.9 56.41 35.53 64.67 39.86 77.98 35.51 91.28 46.87 99.56 51.21 112.93 65.21 112.93 76.52 121.17 87.9 112.93 101.96 112.93 106.28 99.62 117.62 91.41 113.3 78.04"/>
  <g>
    <g>
      <path class="st1" d="M99.08,109.3h-45c-.14,0-.27-.09-.31-.23l-13.9-42.79c-.05-.14,0-.28.12-.37l36.4-26.45c.12-.08.27-.08.39,0l36.4,26.45c.12.08.16.23.12.37l-13.9,42.79c-.04.14-.17.23-.31.23ZM54.33,108.64h44.52l13.76-42.34-36.02-26.17-36.01,26.17,13.76,42.34Z"/>
      <path class="st1" d="M76.52,116.61c-.07,0-.14-.02-.19-.06l-36.36-26.5c-.11-.08-.16-.23-.12-.37l13.97-42.77c.04-.14.17-.23.31-.23h0l44.99.07c.14,0,.27.09.31.23l13.84,42.82c.04.14,0,.28-.12.37l-36.44,26.39c-.06.04-.12.06-.19.06ZM40.55,89.65l35.97,26.22,36.06-26.11-13.69-42.36-44.52-.07-13.83,42.32Z"/>
    </g>
    <path class="st1" d="M76.58,116.67c-.17,0-.32-.11-.37-.28l-5.75-19.53-16.13,12.42c-.14.1-.32.11-.46,0-.14-.1-.2-.28-.14-.44l6.82-19.18-20.35.56c-.14,0-.33-.1-.38-.27-.05-.16,0-.34.15-.44l16.79-11.51-16.79-11.51c-.14-.1-.2-.28-.15-.44.05-.16.24-.27.38-.27l20.35.56-6.82-19.18c-.06-.16,0-.34.14-.44.14-.1.33-.1.46,0l16.13,12.42,5.75-19.53c.09-.33.65-.33.74,0l5.75,19.53,16.13-12.42c.14-.11.32-.11.46,0,.14.1.2.28.14.44l-6.82,19.18,20.35-.56c.17,0,.33.1.38.27.05.16,0,.34-.15.44l-16.8,11.51,16.8,11.51c.14.1.2.28.15.44-.05.17-.21.26-.38.27l-20.35-.56,6.82,19.18c.06.16,0,.34-.14.44-.14.1-.33.1-.46,0l-16.13-12.42-5.75,19.53c-.05.17-.2.28-.37.28ZM70.66,95.82s.08,0,.12.02c.12.04.22.14.25.26l5.54,18.81,5.54-18.81c.04-.12.13-.22.25-.26.12-.04.26-.02.36.06l15.54,11.96-6.57-18.48c-.04-.12-.02-.25.05-.36.07-.11.19-.18.32-.16l19.6.54-16.18-11.08c-.11-.07-.17-.19-.17-.32s.06-.25.17-.32l16.18-11.08-19.6.54c-.14-.02-.25-.06-.32-.16-.08-.1-.09-.24-.05-.36l6.57-18.47-15.54,11.96c-.1.08-.24.1-.36.06-.12-.04-.22-.14-.25-.26l-5.54-18.81-5.54,18.81c-.04.12-.13.22-.25.26-.12.04-.25.02-.36-.06l-15.54-11.96,6.57,18.47c.04.12.02.25-.05.36-.07.1-.19.14-.32.16l-19.6-.54,16.17,11.08c.11.07.17.19.17.32s-.06.25-.17.32l-16.17,11.08,19.6-.54c.13-.02.25.05.32.16.08.1.09.24.05.36l-6.57,18.48,15.54-11.96c.07-.05.15-.08.24-.08Z"/>
    <path class="st1" d="M64.38,78.13l-3.66-11.25c-.04-.12-.02-.25.06-.35.07-.1.19-.16.31-.16h11.83v.78h-11.29l3.49,10.74-.74.24Z"/>
    <path class="st1" d="M86.37,85.27l-.46-.63,9.14-6.64-5.48-3.98c-.14-.1-.19-.27-.14-.43l2.09-6.45h-11.29v-.78h11.83c.12,0,.24.06.31.16.07.1.09.23.06.35l-2.17,6.69,5.69,4.13c.1.07.16.19.16.31s-.06.24-.16.31l-9.57,6.95Z"/>
    <path class="st1" d="M70.66,96.6s-.08,0-.12-.02c-.12-.04-.21-.13-.25-.25l-3.66-11.25.74-.24,3.49,10.74,9.14-6.64.46.63-9.57,6.95c-.07.05-.15.07-.23.07Z"/>
    <path class="st1" d="M82.49,96.6c-.08,0-.16-.02-.23-.07l-9.57-6.95.46-.63,9.13,6.64,3.49-10.74.74.24-3.66,11.25c-.04.12-.13.21-.25.25-.04.01-.08.02-.12.02Z"/>
    <path class="st1" d="M88.77,78.13l-.74-.24,1.31-4.03-3.43-2.49c-.07-.05-.12-.12-.14-.2l-3.49-10.74-9.13,6.64-.46-.63,9.57-6.95c.1-.07.23-.09.35-.06.12.04.21.13.25.25l3.62,11.13,3.55,2.58c.14.1.19.28.14.43l-1.4,4.29Z"/>
    <path class="st1" d="M66.78,85.27l-9.57-6.95c-.1-.07-.16-.19-.16-.31s.06-.24.16-.31l9.57-6.95.46.63-9.13,6.63,9.13,6.64-.46.63Z"/>
    <path class="st1" d="M72.92,89.64h-11.83c-.12,0-.24-.06-.31-.16-.07-.1-.09-.23-.06-.35l3.66-11.25.74.24-3.49,10.74h11.29v.78Z"/>
    <path class="st1" d="M67.38,71.18l-.74-.24,3.66-11.25c.04-.12.13-.21.25-.25.11-.04.24-.02.35.06l9.57,6.95-.46.63-9.14-6.64-3.49,10.74Z"/>
    <path class="st1" d="M92.06,89.64h-11.83v-.78h11.29l-3.49-10.74.74-.24,3.66,11.25c.04.12.02.25-.06.35-.07.1-.19.16-.31.16Z"/>
  </g>
  <g>
    <path class="st7" d="M95.07,72.04l-5.13-3.73-1.95-6.03h-6.37s-5.15-3.75-5.15-3.75l-5.13,3.72h-6.34s-1.98,6.04-1.98,6.04l-5.15,3.74,1.96,6.03-1.97,6.02,5.14,3.75,1.97,6.05h6.34l5.12,3.73,5.16-3.73h6.37l1.96-6.03,5.13-3.72-1.96-6.05,1.97-6.05Z"/>
    <g class="st0">
      <polygon class="st1" points="60.67 83.18 62.18 78.55 60.79 78.55 59.41 82.77 59.11 83.69 59.89 84.26 63.5 86.89 64.63 86.07 60.67 83.18"/>
      <polygon class="st1" points="60.79 77.58 62.19 77.58 60.68 72.95 64.64 70.07 63.51 69.25 59.9 71.87 59.12 72.44 59.41 73.36 60.79 77.58"/>
      <polygon class="st1" points="92.26 72.95 90.75 77.61 92.15 77.61 93.53 73.36 93.82 72.44 93.04 71.87 89.45 69.26 88.32 70.08 92.26 72.95"/>
      <polygon class="st1" points="92.15 78.58 90.75 78.58 92.25 83.23 88.31 86.09 89.44 86.92 93.03 84.31 93.82 83.75 93.52 82.83 92.15 78.58"/>
      <polygon class="st1" points="65.2 86.85 64.07 87.68 65.45 91.92 65.74 92.84 71.15 92.84 71.58 91.51 66.71 91.51 65.2 86.85"/>
      <polygon class="st1" points="87.75 69.3 88.88 68.48 87.52 64.25 87.22 63.33 86.25 63.33 81.79 63.32 81.35 64.65 86.25 64.66 87.75 69.3"/>
      <polygon class="st1" points="76.47 59.83 75.69 60.4 72.1 63.01 72.53 64.34 76.47 61.48 80.43 64.35 80.87 63.02 77.25 60.4 76.47 59.83"/>
      <polygon class="st1" points="66.73 63.3 65.77 63.3 65.47 64.22 64.08 68.46 65.21 69.29 66.73 64.63 71.61 64.64 71.17 63.31 66.73 63.3"/>
      <polygon class="st1" points="86.23 91.51 81.33 91.51 81.76 92.84 87.2 92.84 87.49 91.92 88.87 87.7 87.74 86.88 86.23 91.51"/>
      <polygon class="st1" points="76.44 94.68 72.51 91.81 72.07 93.14 75.66 95.76 76.44 96.33 77.22 95.76 80.84 93.14 80.41 91.81 76.44 94.68"/>
    </g>
    <g>
      <rect class="st1" x="83.45" y="73.49" width=".28" height="9.2" transform="translate(5.31 161.5) rotate(-89.87)"/>
      <path class="st1" d="M88.77,78.09l1.33-4.1.12-.38-.33-.24-3.47-2.52-1.32-4.08-.12-.38h-.4s-4.31,0-4.31,0l-3.49-2.53-.33-.24-.33.24-3.47,2.52h-4.29s-.4,0-.4,0l-.12.38-1.34,4.1-3.49,2.53-.33.24.12.38,1.32,4.08-1.33,4.07-.12.38.32.24,3.48,2.54,1.33,4.1.12.38h4.69l3.47,2.53.32.24.33-.24,3.49-2.53h4.71l.12-.38,1.32-4.08,3.47-2.51.33-.24-.12-.38-1.32-4.1ZM89.58,73.83h0s0,0,0,0h0ZM84.6,66.97l-.04-.03h.03s0,.03,0,.03ZM76.48,64.3h-.01,0s0,0,0,0ZM68.42,66.91l-.04.03v-.03h.04ZM63.37,73.82v.02s0-.01,0-.01h0ZM63.36,82.31h0s0,0,0,0h0ZM76.43,91.85h.03-.01s-.01,0-.01,0ZM84.57,89.23h0s0,0,0,0h0ZM86.07,84.9l-7.47-5.44-.04-.03h-.06v.15s-.07.11-.07.11l7.44,5.42.08-.11h0s-1.32,4.08-1.32,4.08l-6.56-9.03-.22.16,6.56,9.03h-4.29l.1-.03-2.84-8.77-.26.09,2.84,8.77.12-.04-3.46,2.51v-11.15h-.28v11.17l-3.37-2.46,2.86-8.8-.26-.09-2.85,8.76.13.04h0s-4.29,0-4.29,0l6.55-9.04-.22-.16-6.55,9.03-1.33-4.09.06.09,7.45-5.4-.16-.22-7.45,5.4.08.11-3.46-2.53,10.6-3.44-.09-.26-10.62,3.44,1.34-4.09v.12s9.2.01,9.2.01v-.28s-9.2-.01-9.2-.01v.14s-1.33-4.09-1.33-4.09l10.61,3.45.09-.26-10.6-3.45,3.45-2.51-.06.08,7.43,5.42.04.03h.06v-.15s.07-.11.07-.11l-7.43-5.42-.07.09,1.32-4.04,6.56,9.02h.01s.2-.18.2-.18l-6.56-9.04h4.31s-.1.04-.1.04l2.83,8.77.26-.08-2.83-8.77-.12.04,3.46-2.51v11.15h.28v-11.16l3.49,2.53-.12-.04-2.86,8.75.26.09,2.86-8.75-.13-.04h4.29s-6.55,9.02-6.55,9.02l-.03.04v.06h.15s.11.07.11.07l6.57-9.03,1.32,4.09-.07-.09-7.46,5.41.16.22,7.46-5.41-.07-.1,3.46,2.52-10.62,3.45.09.26,10.62-3.45-1.33,4.1,1.32,4.09-10.61-3.45-.09.26,10.63,3.46-3.38,2.45ZM89.56,82.37v-.03s.01.02.01.02h-.01Z"/>
    </g>
    <g>
      <path class="st5" d="M78.99,78.08c0,1.39-1.13,2.52-2.52,2.52s-2.52-1.13-2.52-2.52,1.13-2.52,2.52-2.52,2.52,1.13,2.52,2.52Z"/>
      <path class="st8" d="M76.47,80.8c-1.5,0-2.72-1.22-2.72-2.72s1.22-2.72,2.72-2.72,2.72,1.22,2.72,2.72-1.22,2.72-2.72,2.72ZM76.47,75.75c-1.28,0-2.32,1.04-2.32,2.32s1.04,2.32,2.32,2.32,2.32-1.04,2.32-2.32-1.04-2.32-2.32-2.32Z"/>
    </g>
  </g>
</svg>