<svg fill="none" height="512" viewBox="0 0 512 512" width="512" xmlns="http://www.w3.org/2000/svg"><path d="m44.0342 398.855-1.0188-11.716c-.0093-.107.0528-.211.1489-.259 37.8584-18.84 47.797-42.761 41.5585-56.726-5.1011-11.42-21.0184-16.184-41.3317-6.074-.1743.087-.3911-.034-.3911-.228v-12.204c0-.103.0608-.196.1552-.238l92.7188-42.194c.069-.032.149-.031.219.001l92.789 43.428c1.213.567 1.201 2.297-.02 2.848z" fill="#831e00"/><path d="m467.966 398.855 1.019-11.716c.009-.107-.053-.211-.149-.259-37.859-18.84-47.797-42.761-41.559-56.726 5.101-11.42 21.019-16.184 41.332-6.074.174.087.391-.034.391-.228v-12.204c0-.103-.061-.196-.155-.238l-92.719-42.194c-.069-.032-.149-.031-.219.001l-92.789 43.428c-1.213.567-1.201 2.297.02 2.848z" fill="#831e00"/><path d="m74.0815 133.217-15.8019-6.661v83.205c0 .86.2589 1.68.718 2.367.4281.64 1.03 1.166 1.7583 1.501l183.9401 84.81c4.264 1.966 8.904 2.984 13.599 2.984 4.767 0 9.476-1.05 13.792-3.074l180.619-84.712c.679-.318 1.247-.803 1.665-1.391.501-.707.786-1.564.786-2.466v-83.354l-199.904 68.301z" fill="#831e00"/><path d="m43 138.702v86.426c0 .918.2946 1.788.8118 2.501l15.1858-15.501c-.4591-.687-.718-1.507-.718-2.367v-83.205z" fill="#a13109"/><path d="m469 138.702v86.429c0 .916-.294 1.786-.81 2.498l-13.819-15.383c.501-.707.786-1.564.786-2.466v-83.354z" fill="#a13109"/><path d="m63.2493 412.342-19.1046-13.296c-.0636-.044-.1043-.115-.111-.192l184.8273-83.362c1.221-.551 1.233-2.28.02-2.848l-92.789-43.428c-.003-.001-.006-.003-.009-.004l-90.5516-40.191c-.7007-.311-1.288-.797-1.72-1.392l15.1858-15.502c.428.64 1.03 1.166 1.7583 1.502l183.9395 84.809c4.264 1.966 8.904 2.984 13.6 2.984 4.767 0 9.475-1.049 13.791-3.074l180.619-84.712c.68-.318 1.248-.802 1.665-1.391l13.82 15.384c-.432.595-1.019 1.081-1.719 1.393l-90.345 40.193c-.07-.032-.15-.031-.219.001l-92.789 43.428c-1.213.568-1.201 2.297.02 2.848l184.827 83.362c-.006.077-.047.148-.111.192l-19.104 13.296c-.076.053-.175.061-.259.022l-191.744-88.838c-.234-.108-.489-.164-.747-.164-.259 0-.514.056-.748.164l-191.7437 88.838c-.0842.039-.1828.031-.259-.022z" fill="#360701"/><path d="m62.4582 337.466-19.0676-13.386c20.3134-10.111 36.2307-5.347 41.3318 6.073-9.7703-.941-18.9138 4.484-22.2642 7.313z" fill="#360701"/><path d="m449.541 337.466 19.067-13.386c-20.313-10.111-36.23-5.347-41.331 6.073 9.77-.941 18.913 4.484 22.264 7.313z" fill="#360701"/><path d="m253.168 167.57c-25.675-51.48-86.727-43.131-132.924-68.5374-.146-.08-.328-.0066-.377.1521l-.771 2.5173-20.3143 66.293-5.5922 18.25c10.7085 1.828 131.7705 40.876 163.3735 74.177 22.724-31.734 105.129-54.719 164.027-74.569l-9.58-24.458-21.596-55.131-.83-2.119c-.061-.156-.214-.24-.356-.15-10.012 6.387-98.928 38.191-135.06 63.575z" fill="#fff9e6"/><path d="m243.847 166.918c-25.088-33.85-77.096-42.864-117.349-54.216-.223-.063-.453.063-.522.285l-19.849 63.492c-.061.193.018.399.194.498 37.147 20.683 104.888 33.671 136.834 58.541.515.401 1.264.028 1.264-.625v-66.226c0-.628-.198-1.244-.572-1.749z" fill="#fadbbc"/><path d="m262.712 171.98 2.954 67.164c.016.361.426.56.7.323 21.603-18.706 90.101-44.478 141.493-59.747.245-.073.368-.342.267-.578l-26.153-61.196c-.093-.217-.303-.336-.521-.244-11.591 4.865-87.57 31.846-118.567 53.916-.117.084-.179.218-.173.362z" fill="#fadbbc"/><path clip-rule="evenodd" d="m121.618 166.451c.257-.455.834-.617 1.289-.36 20.44 11.508 39.991 16.655 56.907 21.107 1.408.371 2.799.737 4.17 1.102 17.749 4.718 32.49 9.216 41.338 20.878.316.417.235 1.011-.182 1.327-.416.316-1.01.234-1.326-.182-8.391-11.061-22.445-15.443-40.316-20.193-1.374-.366-2.77-.733-4.185-1.105-16.904-4.449-36.674-9.652-57.335-21.285-.455-.256-.616-.833-.36-1.289z" fill="#fff9e6" fill-rule="evenodd"/><path d="m235.97 277.053c-20.217-10.694-109.734-51.632-163.4818-77.003-.0696-.033-.1173-.093-.1366-.162l20.8376-13.643c10.7088 1.829 131.7698 40.876 163.3738 74.178 22.724-31.734 105.129-54.719 164.027-74.569l18.717 14.104c-.025.038-.061.071-.105.092-53.661 25.329-142.974 66.175-163.383 76.95-1.34.708-2.962.136-3.748-1.16-8.754-14.447-24.866-10.678-32.389.181-.839 1.21-2.41 1.72-3.712 1.032z" fill="#ffc78e"/><path d="m72.3524 199.745 23.7564-87.235c.3173-1.165.8647-2.222 1.8583-2.909.3797-.262.8262-.556 1.326-.875 3.1809-2.032 8.5229-5.08 12.5719-7.369l-13.0828 66.637-5.5922 18.25-20.8376 13.643c-.0125-.045-.0131-.094 0-.142z" fill="#ffc78e"/><path d="m439.339 199.745-27.729-85.292c-.317-1.166-.865-2.223-1.858-2.909-.437-.302-.953-.632-1.532-.985-3.133-1.91-8.096-4.486-12.05-6.721l14.84 57.556 9.581 24.458 18.717 14.104c.039-.06.051-.136.031-.211z" fill="#ffc78e"/><g fill="#fff9e6"><path clip-rule="evenodd" d="m387.069 173.242c-.256-.455-.833-.617-1.289-.36-20.44 11.508-39.991 16.655-56.906 21.107-1.409.371-2.799.737-4.171 1.102-17.748 4.718-32.49 9.216-41.338 20.879-.316.416-.234 1.01.182 1.326.417.316 1.011.234 1.327-.182 8.39-11.061 22.445-15.443 40.316-20.193 1.374-.366 2.769-.733 4.185-1.105 16.904-4.449 36.674-9.652 57.334-21.285.456-.256.617-.833.36-1.289z" fill-rule="evenodd"/><path clip-rule="evenodd" d="m128.148 149.998c.257-.456.834-.617 1.29-.36 20.44 11.508 39.99 16.655 56.906 21.107 1.409.371 2.799.737 4.17 1.102 17.749 4.717 32.491 9.215 41.338 20.878.316.417.235 1.011-.182 1.327-.416.316-1.01.234-1.326-.182-8.391-11.061-22.445-15.443-40.316-20.194-1.374-.365-2.77-.732-4.185-1.105-16.904-4.448-36.674-9.651-57.334-21.284-.456-.256-.617-.833-.361-1.289z" fill-rule="evenodd"/><path clip-rule="evenodd" d="m380.539 156.787c-.256-.456-.834-.617-1.289-.36-20.44 11.508-39.991 16.655-56.906 21.107-1.409.371-2.8.737-4.171 1.102-17.749 4.717-32.49 9.216-41.338 20.878-.316.417-.234 1.011.182 1.327.417.316 1.01.234 1.326-.182 8.391-11.061 22.446-15.443 40.317-20.194 1.374-.365 2.769-.732 4.184-1.104 16.904-4.449 36.674-9.652 57.335-21.285.455-.256.617-.833.36-1.289z" fill-rule="evenodd"/><path clip-rule="evenodd" d="m134.155 128.58c.257-.456.834-.617 1.289-.36 20.441 11.508 39.991 16.655 56.907 21.107 1.408.371 2.799.737 4.17 1.102 17.749 4.717 32.491 9.215 41.338 20.878.316.417.235 1.011-.182 1.327-.416.316-1.01.234-1.326-.182-8.391-11.061-22.445-15.443-40.316-20.194-1.374-.365-2.77-.732-4.185-1.105-16.904-4.448-36.674-9.651-57.334-21.284-.456-.256-.617-.833-.361-1.289z" fill-rule="evenodd"/><path clip-rule="evenodd" d="m374.532 135.371c-.256-.456-.833-.617-1.289-.36-20.44 11.508-39.991 16.655-56.906 21.107-1.409.371-2.799.737-4.171 1.102-17.748 4.717-32.49 9.216-41.338 20.878-.316.417-.234 1.011.182 1.327.417.316 1.011.234 1.327-.182 8.39-11.061 22.445-15.443 40.316-20.194 1.374-.365 2.769-.732 4.185-1.104 16.903-4.449 36.673-9.652 57.334-21.285.455-.256.617-.833.36-1.289z" fill-rule="evenodd"/><path d="m98.5883 130.251c-.9075 7.735-8.6976 36.02-12.7113 49.987 2.1871-13.208 7.7068-38.932 12.318-50.079.1076-.26.4261-.188.3933.092z"/><path d="m408.271 131.556c.908 7.735 8.698 36.02 12.711 49.986-2.187-13.207-7.706-38.931-12.318-50.078-.107-.26-.426-.188-.393.092z"/><path d="m96.489 120.048c-.8629 6.657-7.2865 29.692-10.612 41.122 1.8184-10.847 6.3901-31.909 10.2335-41.215.1072-.259.4146-.186.3785.093z"/><path d="m410.37 121.354c.863 6.658 7.287 29.692 10.612 41.123-1.818-10.847-6.39-31.909-10.233-41.215-.107-.26-.415-.186-.379.092z"/></g><path d="m72.3523 199.746 23.7564-87.235c.3173-1.165.8647-2.222 1.8584-2.909.3797-.262.8261-.556 1.326-.875l-4.2288-1.166c-.5512-.13-1.1329-.222-1.5753.132-5.8528 4.681-21.6708 58.464-27.8514 94.721-.2397 1.406.4772 2.76 1.7816 3.337 50.4438 22.308 141.4138 63.652 166.7658 75.938 4.275 2.071 8.968 3.285 13.719 3.285h15.884c4.75 0 9.443-1.212 13.719-3.281 25.389-12.28 116.576-53.631 167.026-75.942 1.305-.577 2.022-1.932 1.776-3.337-6.338-36.206-25.731-88.312-31.884-92.782-.458-.332-1.034-.242-1.585-.112l-4.62 1.04c.579.353 1.095.683 1.531.984.994.687 1.542 1.744 1.859 2.909l27.729 85.293c.02.074.008.151-.031.211-.025.039-.061.071-.106.092-53.66 25.33-142.973 66.176-163.382 76.951-1.34.707-2.963.135-3.748-1.161-8.754-14.447-24.866-10.678-32.389.181-.839 1.211-2.411 1.72-3.712 1.032-20.217-10.694-109.734-51.632-163.4821-77.003-.0696-.033-.1173-.092-.1366-.162-.0125-.044-.0131-.093 0-.141z" fill="#f5a46c"/><path d="m119.096 101.703c-2.295-1.31-5.553-1.292-7.231-.344l-13.0828 66.637z" fill="#f5a46c"/><path d="m411.01 161.396-14.84-57.556-6.756 2.425z" fill="#f5a46c"/><path d="m100.898 259.139c-1.66-9.038-1.516-41.309 5.896-58.34.273-.63.996-.909 1.635-.659l21.829 8.547c.839.328 1.171 1.432.755 2.232-3.427 6.594-11.301 29.908-6.725 48.403.049.197-.132.37-.321.293-3.791-1.548-9.178-8.835-11.59-12.586-.07-.11-.207-.15-.323-.091-3.651 1.843-8.423 8.594-10.69 12.273-.123.201-.423.16-.466-.072z" fill="#df6236"/><path d="m134.327 216.803c39.57 15.149 80.838 30.298 107.349 47.928-21.809-18.414-80.446-41.137-107.349-47.928z" fill="#fff9e6"/><path d="m386.375 208.184c-39.57 15.149-80.838 30.298-107.349 47.928 21.809-18.414 80.446-41.137 107.349-47.928z" fill="#fff9e6"/><path d="m228.727 267.084c-20.868-11.924-65.166-31.484-69.191-32.364-.045-.008-.09-.017-.135-.025.039.005.083.014.135.025 22.375 4.104 56.41 21.528 69.459 31.995.246.197.005.525-.268.369z" fill="#fff9e6"/><path d="m291.975 258.465c20.869-11.925 65.167-31.484 69.191-32.364.045-.009.09-.017.135-.025-.038.005-.083.013-.135.025-22.375 4.104-56.41 21.528-69.459 31.995-.246.197-.005.525.268.369z" fill="#fff9e6"/></svg>