<svg id="Layer_1" height="512" viewBox="0 0 512 512" width="512" xmlns="http://www.w3.org/2000/svg"><g><g><g><path clip-rule="evenodd" d="m130.441 134.007c123.237-30.609 236.032-29.227 339.737 0 50.281 29.031 45.452 211.31 0 237.553-113.247 30.471-226.494 29.22-339.737 0z" fill="#0c907d" fill-rule="evenodd"/><path d="m302.086 399.844c-56.824 0-115.07-7.596-173.12-22.575-2.603-.671-4.423-3.021-4.423-5.71v-237.551c0-2.71 1.846-5.071 4.475-5.724 60.42-15.008 119.855-22.615 176.656-22.615 56.861 0 112.746 7.625 166.105 22.664.469.132.924.323 1.348.567 28.659 16.548 38.873 73.337 38.873 120.964 0 51.946-12.019 111.298-38.873 126.804-.443.256-.921.452-1.417.587-55.709 14.988-112.777 22.589-169.624 22.589zm-165.749-32.869c55.623 13.986 111.361 21.072 165.749 21.072 55.542 0 111.309-7.392 165.769-21.97 18.783-11.728 32.351-60.308 32.348-116.213 0-55.151-12.681-98.305-32.368-110.388-52.093-14.608-106.647-22.014-162.161-22.014-54.442 0-111.39 7.121-169.336 21.17v228.343z"/></g><g><path clip-rule="evenodd" d="m130.441 134.007c19.008-4.721 37.765-8.679 56.283-11.894 15.964 34.572 25.688 80.396 25.688 130.671 0 50.41-9.776 96.35-25.815 130.951-18.719-3.286-37.436-7.346-56.155-12.175v-237.553z" fill="#034561" fill-rule="evenodd"/><path d="m186.599 389.631c-.34 0-.68-.029-1.022-.089-18.76-3.291-37.807-7.42-56.61-12.272-2.603-.671-4.423-3.021-4.423-5.71v-237.552c0-2.71 1.846-5.071 4.475-5.724 18.99-4.717 38.067-8.748 56.697-11.982 2.623-.441 5.241.916 6.361 3.337 16.92 36.63 26.235 83.914 26.235 133.144 0 49.374-9.364 96.762-26.365 133.429-.98 2.112-3.085 3.419-5.348 3.419zm-50.262-22.656c15.555 3.91 31.248 7.314 46.771 10.144 15.114-34.557 23.407-78.489 23.407-124.336 0-45.712-8.253-89.549-23.292-124.062-15.448 2.779-31.182 6.104-46.887 9.911v228.343z"/></g><g><path clip-rule="evenodd" d="m130.441 371.557c20.238 0 36.744-53.355 36.744-118.775s-16.506-118.777-36.744-118.777-36.746 53.357-36.746 118.777 16.508 118.775 36.746 118.775z" fill="#f6ec72" fill-rule="evenodd"/><path d="m130.44 377.453c-27.698 0-42.642-64.235-42.642-124.673s14.944-124.673 42.642-124.673 42.642 64.235 42.642 124.673-14.944 124.673-42.642 124.673zm0-237.551c-12.88 0-30.848 42.942-30.848 112.878s17.968 112.878 30.848 112.878 30.848-42.942 30.848-112.878-17.968-112.878-30.848-112.878z"/></g><g><path clip-rule="evenodd" d="m433.981 125.023c16.733 34.211 26.862 78.886 26.862 127.76 0 48.705-10.058 93.237-26.688 127.404 12.009-2.522 24.014-5.398 36.023-8.627 45.452-26.243 50.281-208.522 0-237.553-11.945-3.367-24.009-6.363-36.197-8.984z" fill="#034561" fill-rule="evenodd"/><path d="m434.156 386.083c-1.794 0-3.519-.821-4.65-2.269-1.385-1.777-1.638-4.184-.654-6.208 16.828-34.571 26.094-78.901 26.094-124.822 0-46.089-9.327-90.542-26.264-125.168-.99-2.03-.737-4.446.654-6.226s3.677-2.617 5.883-2.131c12.249 2.632 24.55 5.684 36.561 9.073.472.132.924.323 1.348.567 28.658 16.549 38.872 73.338 38.872 120.965 0 51.946-12.019 111.298-38.873 126.804-.443.256-.921.452-1.417.587-12.025 3.234-24.251 6.162-36.342 8.702-.403.086-.809.126-1.212.126zm10.11-252.694c14.544 34.364 22.474 76.246 22.474 119.395 0 43.022-7.89 84.809-22.356 119.118 7.844-1.794 15.696-3.743 23.471-5.825 18.783-11.728 32.351-60.308 32.348-116.213 0-55.151-12.684-98.305-32.371-110.391-7.766-2.177-15.653-4.215-23.566-6.084z"/></g><g><path d="m428.797 382.651c-.87-1.895-88.938-190.198-244.347-255.093l4.544-10.884c159.71 66.692 249.631 259.116 250.52 261.051z"/></g><g><path d="m188.914 389.156-4.636-10.844c182.167-77.824 243.517-253.414 244.116-255.179l11.172 3.781c-.613 1.813-63.5 182.29-250.652 262.242z"/></g><g><g><path clip-rule="evenodd" d="m25.151 233.203h14.971v81.03h-14.971z" fill="#034561" fill-rule="evenodd" transform="matrix(-.866 -.5 .5 -.866 -75.96 527.082)"/><path d="m18.855 318.444c-.999 0-2.013-.253-2.943-.789l-12.963-7.484c-1.353-.783-2.344-2.07-2.747-3.582-.406-1.512-.193-3.121.587-4.475l40.514-70.176c.783-1.353 2.07-2.344 3.582-2.747 1.515-.4 3.121-.19 4.475.587l12.966 7.487c2.822 1.63 3.787 5.238 2.16 8.057l-40.517 70.173c-1.094 1.893-3.075 2.949-5.114 2.949zm-4.901-15.54 2.747 1.587 34.62-59.956-2.75-1.589z"/></g><g><circle clip-rule="evenodd" cx="57.857" cy="230.035" fill="#f6ec72" fill-rule="evenodd" r="20.989"/><path d="m57.837 256.924c-4.696 0-9.338-1.247-13.424-3.605-12.84-7.415-17.254-23.891-9.842-36.728 4.792-8.296 13.721-13.447 23.307-13.447 4.696 0 9.338 1.247 13.424 3.605 6.22 3.594 10.668 9.39 12.526 16.327 1.86 6.939.904 14.184-2.689 20.404-4.787 8.293-13.716 13.444-23.302 13.444zm.041-41.985c-5.385 0-10.403 2.894-13.09 7.55-4.161 7.205-1.685 16.453 5.523 20.614 6.997 4.043 16.617 1.408 20.614-5.523 2.018-3.493 2.554-7.559 1.512-11.452-1.045-3.893-3.542-7.147-7.032-9.163-2.295-1.324-4.899-2.026-7.527-2.026z"/></g></g><g><g><path clip-rule="evenodd" d="m121.007 247.839h14.97v81.031h-14.97z" fill="#034561" fill-rule="evenodd"/><path d="m135.978 334.768h-14.97c-3.257 0-5.897-2.64-5.897-5.897v-81.031c0-3.257 2.641-5.897 5.897-5.897h14.97c3.257 0 5.897 2.64 5.897 5.897v81.031c0 3.257-2.641 5.897-5.897 5.897zm-9.074-11.794h3.176v-69.237h-3.176z"/></g><g><path clip-rule="evenodd" d="m128.494 258.902c11.561 0 20.989-9.428 20.989-20.989s-9.428-20.991-20.989-20.991-20.991 9.43-20.991 20.991c0 11.56 9.43 20.989 20.991 20.989z" fill="#f6ec72" fill-rule="evenodd"/><path d="m128.494 264.8c-14.826 0-26.889-12.062-26.889-26.889 0-14.824 12.062-26.886 26.889-26.886 14.824 0 26.886 12.062 26.886 26.886 0 14.827-12.063 26.889-26.886 26.889zm0-41.98c-8.322 0-15.094 6.77-15.094 15.091 0 8.322 6.773 15.094 15.094 15.094 8.322 0 15.091-6.773 15.091-15.094 0-8.322-6.769-15.091-15.091-15.091z"/></g></g></g><g><g><path d="m73.032 113.106c-3.257 0-5.897-2.64-5.897-5.897v-22.895c0-3.257 2.641-5.897 5.897-5.897 3.257 0 5.897 2.641 5.897 5.897v22.895c0 3.256-2.64 5.897-5.897 5.897zm0-46.302c-3.257 0-5.897-2.641-5.897-5.897v-22.895c0-3.257 2.641-5.897 5.897-5.897 3.257 0 5.897 2.64 5.897 5.897v22.895c0 3.256-2.64 5.897-5.897 5.897z"/></g><g><path d="m107.632 78.506h-22.895c-3.257 0-5.897-2.64-5.897-5.897s2.641-5.897 5.897-5.897h22.895c3.257 0 5.897 2.641 5.897 5.897 0 3.257-2.64 5.897-5.897 5.897zm-46.302 0h-22.895c-3.257 0-5.897-2.64-5.897-5.897s2.64-5.897 5.897-5.897h22.895c3.257 0 5.897 2.641 5.897 5.897 0 3.257-2.64 5.897-5.897 5.897z"/></g></g><g><g><path d="m465.859 82.952c-3.257 0-5.897-2.641-5.897-5.897v-22.895c0-3.257 2.641-5.897 5.897-5.897 3.257 0 5.897 2.64 5.897 5.897v22.895c0 3.257-2.64 5.897-5.897 5.897zm0-46.302c-3.257 0-5.897-2.64-5.897-5.897v-22.895c0-3.257 2.641-5.897 5.897-5.897 3.257 0 5.897 2.64 5.897 5.897v22.895c0 3.257-2.64 5.897-5.897 5.897z"/></g><g><path d="m500.459 48.352h-22.895c-3.257 0-5.897-2.64-5.897-5.897s2.641-5.897 5.897-5.897h22.895c3.257 0 5.897 2.641 5.897 5.897 0 3.257-2.64 5.897-5.897 5.897zm-46.302 0h-22.895c-3.257 0-5.897-2.64-5.897-5.897s2.64-5.897 5.897-5.897h22.895c3.257 0 5.897 2.641 5.897 5.897 0 3.257-2.64 5.897-5.897 5.897z"/></g></g><g><g><path d="m255.997 510.039c-3.257 0-5.897-2.64-5.897-5.897v-22.895c0-3.257 2.64-5.897 5.897-5.897s5.897 2.641 5.897 5.897v22.895c0 3.257-2.64 5.897-5.897 5.897zm0-46.305c-3.257 0-5.897-2.641-5.897-5.897v-22.895c0-3.257 2.64-5.897 5.897-5.897s5.897 2.64 5.897 5.897v22.895c0 3.257-2.64 5.897-5.897 5.897z"/></g><g><path d="m290.597 475.439h-22.895c-3.257 0-5.897-2.64-5.897-5.897s2.641-5.897 5.897-5.897h22.895c3.257 0 5.897 2.64 5.897 5.897s-2.64 5.897-5.897 5.897zm-46.302 0h-22.895c-3.257 0-5.897-2.64-5.897-5.897s2.64-5.897 5.897-5.897h22.895c3.257 0 5.897 2.64 5.897 5.897s-2.64 5.897-5.897 5.897z"/></g></g></g></svg>