<svg id="Filled_Line" viewBox="0 0 64 64" xmlns="http://www.w3.org/2000/svg"><path d="m57.12 38.84c-4.59 4.42-11.05 6.9-18.08 6.14-10.4-1.13-18.78-9.55-19.84-19.96-.73-7.12 1.87-13.66 6.44-18.24.84-.84.04-2.25-1.1-1.93-12.64 3.53-21.69 15.68-20.4 29.72 1.26 13.76 12.67 24.69 26.47 25.41 13.37.7 24.83-7.96 28.43-20.01.34-1.14-1.06-1.95-1.92-1.13z" fill="#ecc865"/><path d="m53.49 16.56h-7.89l-2.44-7.51c-.35-1.09-1.9-1.09-2.25 0l-2.44 7.51h-7.89c-1.15 0-1.62 1.47-.7 2.14l6.39 4.64-2.44 7.51c-.35 1.09.89 2 1.82 1.32l6.39-4.64 6.39 4.64c.93.67 2.18-.23 1.82-1.32l-2.44-7.51 6.39-4.64c.93-.67.45-2.14-.7-2.14z" fill="#d88852"/><path d="m20.52 49.9-1.29-.48c-2.23-.83-4.03-2.52-4.99-4.69l-.57-1.28c-.28-.64-1.2-.61-1.45.04l-.33.88c-.89 2.4-2.79 4.3-5.19 5.19l-.84.31c-.66.25-.68 1.18-.03 1.45l1.04.44c2.24.94 3.99 2.77 4.84 5.05l.49 1.32c.25.66 1.18.68 1.45.03l.6-1.42c.87-2.07 2.5-3.73 4.55-4.64l1.76-.78c.64-.28.61-1.2-.04-1.45z" fill="#d88852"/><path d="m28.5 17.07c-.3.92.01 1.87.79 2.44l5.8 4.21-2.21 6.82c-.3.92.01 1.88.79 2.44s1.79.57 2.57 0l5.8-4.21 5.8 4.21c.39.28.84.43 1.28.43s.89-.14 1.28-.42c.78-.57 1.09-1.52.79-2.44l-2.21-6.81 5.8-4.21c.78-.57 1.09-1.52.79-2.44s-1.11-1.51-2.08-1.51h-7.17l-2.21-6.81c-.3-.92-1.11-1.51-2.08-1.51s-1.78.59-2.08 1.51l-2.21 6.81h-7.17c-.96 0-1.78.59-2.08 1.51zm2.08.49h7.89c.43 0 .82-.28.95-.69l2.44-7.51s.04-.13.17-.13.16.09.17.13l2.44 7.51c.13.41.52.69.95.69h7.89s.13 0 .17.13-.04.18-.07.21l-6.38 4.64c-.35.25-.5.71-.36 1.12l2.44 7.51s.04.13-.07.21-.18.02-.21 0l-6.39-4.64c-.35-.25-.82-.25-1.18 0l-6.38 4.64s-.11.08-.21 0c-.11-.08-.08-.17-.07-.21l2.44-7.51c.13-.41-.01-.86-.36-1.12l-6.39-4.64s-.11-.08-.07-.2c.04-.13.13-.13.17-.13zm29.76 16.99c-.43-.17-.92-.02-1.18.36-4.02 5.76-10.61 9.21-17.62 9.21-11.84 0-21.47-9.63-21.47-21.47 0-7.17 3.56-13.84 9.52-17.84.38-.26.54-.74.38-1.17s-.59-.7-1.05-.65c-14.76 1.61-25.9 14.04-25.9 28.92 0 5.75 1.68 11.26 4.84 16.02-.37.22-.76.42-1.17.57l-3.02 1.12c-.38.14-.64.51-.65.92 0 .41.23.78.61.94l3.17 1.34c1.78.75 3.19 2.22 3.86 4.03l1.3 3.49c.14.38.51.64.92.65h.02c.4 0 .77-.24.92-.61l1.48-3.52c.13-.32.31-.61.48-.9 4.83 3.29 10.45 5.05 16.34 5.05 14.61 0 27.02-10.92 28.86-25.4.06-.46-.2-.89-.63-1.06zm-46.88 21.54-.5 1.2-.42-1.12c-.87-2.33-2.67-4.21-4.96-5.18l-.84-.36.66-.24c2.46-.92 4.4-2.86 5.32-5.32l.27-.72.48 1.09c.98 2.21 2.84 3.96 5.11 4.81l1.1.41-1.55.69c-2.11.94-3.77 2.62-4.66 4.75zm18.66 2.92c-5.42 0-10.59-1.6-15.06-4.6.55-.5 1.17-.94 1.87-1.25l3.8-1.68c.37-.16.61-.54.59-.94-.01-.41-.27-.76-.65-.91l-3.4-1.27c-1.77-.66-3.22-2.02-3.98-3.74l-1.48-3.33c-.16-.37-.54-.61-.94-.59-.41.01-.76.27-.91.65l-1.12 3.02c-.32.86-.81 1.64-1.42 2.3-2.87-4.4-4.4-9.47-4.4-14.75 0-12.55 8.51-23.23 20.34-26.25-4.61 4.39-7.28 10.5-7.28 16.99 0 12.94 10.53 23.47 23.47 23.47 6.31 0 12.31-2.55 16.69-6.98-3.19 11.56-13.81 19.87-26.12 19.87z" fill="#1a2c3d"/></svg>