<svg id="Layer_1" height="512" viewBox="0 0 512 512" width="512" xmlns="http://www.w3.org/2000/svg"><g><g><g><path clip-rule="evenodd" d="m170.312 216.068h149.629v174.527h-149.629z" fill="#0c907d" fill-rule="evenodd"/><path d="m319.941 396.473h-149.63c-3.246 0-5.878-2.632-5.878-5.878v-174.53c0-3.246 2.632-5.878 5.878-5.878h149.63c3.246 0 5.878 2.632 5.878 5.878v174.53c-.001 3.247-2.632 5.878-5.878 5.878zm-143.753-11.755h137.875v-162.774h-137.875z"/></g><g><path clip-rule="evenodd" d="m319.941 243.852v146.743h-27.775v-111.509h.002c0-20.276 18.515-23.49 27.773-35.234z" fill="#f6ec72" fill-rule="evenodd"/><path d="m319.941 396.473h-27.775c-3.246 0-5.878-2.632-5.878-5.878v-111.508c.003-16.528 10.481-24.084 18.901-30.154 3.886-2.804 7.559-5.45 10.137-8.719 1.556-1.963 4.184-2.729 6.541-1.914 2.365.821 3.952 3.051 3.952 5.553v146.743c-.001 3.246-2.632 5.877-5.878 5.877zm-21.898-11.755h16.02v-127.698c-.669.488-1.334.97-1.997 1.447-7.832 5.648-14.02 10.108-14.02 20.62z"/></g><g><path clip-rule="evenodd" d="m170.987 216.068h148.282c7.767 0 14.122-6.356 14.122-14.122v-.002c0-7.766-6.354-14.122-14.122-14.122h-148.282c-7.767 0-14.122 6.357-14.122 14.122v.002c0 7.765 6.354 14.122 14.122 14.122z" fill="#034561" fill-rule="evenodd"/><path d="m319.269 221.944h-148.284c-11.026 0-19.998-8.971-19.998-19.998 0-11.029 8.971-20.001 19.998-20.001h148.284c11.026 0 19.998 8.971 19.998 19.998 0 11.029-8.971 20.001-19.998 20.001zm-148.284-28.243c-4.546 0-8.242 3.696-8.242 8.242s3.696 8.245 8.242 8.245h148.284c4.546 0 8.242-3.696 8.242-8.242s-3.696-8.245-8.242-8.245z"/></g><g><path clip-rule="evenodd" d="m170.987 418.841h148.282c7.767 0 14.122-6.355 14.122-14.122v-.002c0-7.766-6.354-14.122-14.122-14.122h-148.282c-7.767 0-14.122 6.356-14.122 14.122v.002c0 7.767 6.354 14.122 14.122 14.122z" fill="#034561" fill-rule="evenodd"/><path d="m319.269 424.719h-148.284c-11.026 0-19.998-8.971-19.998-20.001 0-11.029 8.971-20.001 19.998-20.001h148.284c11.026 0 19.998 8.971 19.998 19.998 0 11.03-8.971 20.004-19.998 20.004zm-148.284-28.246c-4.546 0-8.242 3.697-8.242 8.242 0 4.549 3.696 8.248 8.242 8.248h148.284c4.546 0 8.242-3.699 8.242-8.245s-3.696-8.245-8.242-8.245z"/></g><g><path clip-rule="evenodd" d="m245.126 100.54c24.938 29.093 74.815 37.051 74.815 87.282-49.876 0-99.751 0-149.628 0 .001-50.231 49.877-58.189 74.813-87.282z" fill="#0c907d" fill-rule="evenodd"/><path d="m319.941 193.701h-149.627c-3.246 0-5.878-2.632-5.878-5.878 0-36.643 24.951-53.189 46.964-67.788 11.049-7.324 21.484-14.244 29.265-23.321 2.233-2.606 6.693-2.606 8.926 0 7.78 9.078 18.216 15.997 29.265 23.321 22.012 14.599 46.964 31.145 46.964 67.788-.002 3.246-2.633 5.878-5.879 5.878zm-143.483-11.756h137.338c-2.454-26.263-21.43-38.842-41.439-52.112-9.431-6.251-19.128-12.682-27.23-20.689-8.102 8.007-17.799 14.439-27.23 20.689-20.009 13.271-38.985 25.85-41.439 52.112z"/></g><g><path clip-rule="evenodd" d="m245.126 506.122c24.938-29.093 74.815-37.051 74.815-87.282-49.876 0-99.751 0-149.628 0 .001 50.231 49.877 58.189 74.813 87.282z" fill="#0c907d" fill-rule="evenodd"/><path d="m245.127 512c-1.716 0-3.346-.749-4.463-2.052-7.78-9.078-18.215-15.997-29.265-23.324-22.012-14.596-46.964-31.142-46.964-67.782 0-3.246 2.632-5.878 5.878-5.878h149.627c3.246 0 5.878 2.632 5.878 5.878 0 36.641-24.951 53.186-46.964 67.782-11.049 7.327-21.484 14.246-29.265 23.324-1.115 1.303-2.746 2.052-4.462 2.052zm-68.669-87.281c2.454 26.26 21.43 38.839 41.439 52.109 9.428 6.251 19.128 12.682 27.23 20.689 8.102-8.007 17.802-14.439 27.23-20.689 20.009-13.271 38.985-25.85 41.439-52.109z"/></g><g><path clip-rule="evenodd" d="m217.353 390.595h55.548v-111.509c0-20.277-18.516-23.491-27.774-35.235-9.257 11.744-27.772 14.958-27.772 35.235h-.002z" fill="#f6ec72" fill-rule="evenodd"/><path d="m272.9 396.473h-55.548c-3.246 0-5.878-2.632-5.878-5.878v-111.508c.003-16.528 10.481-24.084 18.901-30.154 3.886-2.804 7.559-5.45 10.137-8.719 2.227-2.83 7.003-2.83 9.23 0 2.577 3.266 6.248 5.915 10.137 8.719 8.42 6.07 18.899 13.626 18.899 30.154v111.509c-.001 3.246-2.632 5.877-5.878 5.877zm-49.67-11.755h43.792v-105.631c0-10.513-6.188-14.972-14.02-20.62-2.649-1.911-5.355-3.86-7.875-6.116-2.52 2.256-5.226 4.204-7.875 6.116-7.832 5.648-14.02 10.108-14.02 20.62z"/></g><g><path clip-rule="evenodd" d="m170.312 243.852v146.743h27.776v-111.509h-.002c0-20.276-18.516-23.49-27.774-35.234z" fill="#f6ec72" fill-rule="evenodd"/><path d="m198.089 396.473h-27.778c-3.246 0-5.878-2.632-5.878-5.878v-146.742c0-2.503 1.587-4.733 3.952-5.553 2.376-.815 4.994-.049 6.541 1.914 2.577 3.266 6.251 5.915 10.137 8.719 8.423 6.07 18.901 13.626 18.901 30.154l.003 111.509c0 1.558-.62 3.054-1.722 4.156s-2.598 1.721-4.156 1.721zm-21.901-11.755h16.023v-105.631c-.003-10.51-6.188-14.972-14.023-20.618-.663-.479-1.332-.961-2-1.449z"/></g><g><path d="m239.25 0h11.755v100.54h-11.755z"/></g></g><g><g><path d="m392.269 148.301c-3.246 0-5.878-2.632-5.878-5.878v-22.819c0-3.246 2.632-5.878 5.878-5.878s5.878 2.632 5.878 5.878v22.819c0 3.246-2.632 5.878-5.878 5.878zm0-46.148c-3.246 0-5.878-2.632-5.878-5.878v-22.819c0-3.246 2.632-5.878 5.878-5.878s5.878 2.632 5.878 5.878v22.819c0 3.246-2.632 5.878-5.878 5.878z"/></g><g><path d="m426.754 113.816h-22.819c-3.246 0-5.878-2.632-5.878-5.878s2.632-5.878 5.878-5.878h22.819c3.246 0 5.878 2.632 5.878 5.878s-2.632 5.878-5.878 5.878zm-46.148 0h-22.822c-3.246 0-5.878-2.632-5.878-5.878s2.632-5.878 5.878-5.878h22.822c3.246 0 5.878 2.632 5.878 5.878-.001 3.246-2.633 5.878-5.878 5.878z"/></g></g><g><g><path d="m86.477 293.423c-3.246 0-5.878-2.632-5.878-5.878v-22.819c0-3.246 2.632-5.878 5.878-5.878s5.878 2.632 5.878 5.878v22.819c0 3.246-2.632 5.878-5.878 5.878zm0-46.149c-3.246 0-5.878-2.632-5.878-5.878v-22.819c0-3.246 2.632-5.878 5.878-5.878s5.878 2.632 5.878 5.878v22.819c0 3.246-2.632 5.878-5.878 5.878z"/></g><g><path d="m120.959 258.937h-22.819c-3.246 0-5.878-2.632-5.878-5.878s2.632-5.878 5.878-5.878h22.819c3.246 0 5.878 2.632 5.878 5.878 0 3.247-2.632 5.878-5.878 5.878zm-46.148 0h-22.819c-3.246 0-5.878-2.632-5.878-5.878s2.632-5.878 5.878-5.878h22.819c3.246 0 5.878 2.632 5.878 5.878-.001 3.247-2.632 5.878-5.878 5.878z"/></g></g><g><g><path d="m425.523 476.175c-3.246 0-5.878-2.632-5.878-5.878v-22.819c0-3.246 2.632-5.878 5.878-5.878s5.878 2.632 5.878 5.878v22.819c0 3.246-2.632 5.878-5.878 5.878zm0-46.149c-3.246 0-5.878-2.632-5.878-5.878v-22.819c0-3.246 2.632-5.878 5.878-5.878s5.878 2.632 5.878 5.878v22.819c0 3.246-2.632 5.878-5.878 5.878z"/></g><g><path d="m460.008 441.689h-22.819c-3.246 0-5.878-2.632-5.878-5.878s2.632-5.878 5.878-5.878h22.819c3.246 0 5.878 2.632 5.878 5.878 0 3.247-2.632 5.878-5.878 5.878zm-46.151 0h-22.819c-3.246 0-5.878-2.632-5.878-5.878s2.632-5.878 5.878-5.878h22.819c3.246 0 5.878 2.632 5.878 5.878-.001 3.247-2.632 5.878-5.878 5.878z"/></g></g></g></svg>