<svg id="Layer_1" enable-background="new 0 0 512 512" height="512" viewBox="0 0 512 512" width="512" xmlns="http://www.w3.org/2000/svg"><g><path d="m287.8863 142.9956c-5.7859-8.1308-10.0368-16.985-13.5-26.2142-6.9691-18.5723-10.2552-37.848-10.3991-57.6441-.0428-5.8922.3062-11.815.9481-17.6719.3059-2.791 1.589-5.5163 2.7202-8.1464.2884-.6706 1.7018-1.2398 2.5694-1.2017 2.0123.0882 4.0068.5761 6.1462.9242.9059-2.1697 1.6678-4.4006 2.7381-6.4722 2.0751-4.017 4.1389-8.0624 6.5677-11.8658 1.5293-2.3948 3.6548-4.4281 5.6509-6.4898.4136-.4273 1.5627-.5704 2.1596-.3254 5.1519 2.1146 10.2631 4.3296 15.3634 6.5673.7035.3088 1.3116.8693 1.9099 1.3766 1.8622 1.5792 2.7134 3.2792 1.8521 5.9369-7.164 22.1073-9.3599 44.9306-9.1759 68.018.0966 12.1145 1.9011 24.0717 5.1046 35.7769.6375 2.3288 1.6123 4.578 2.5739 6.8024 1.426 3.2981 3.6158 5.5778 6.9495 7.4958 5.12 2.9457 9.7298 6.8833 14.2365 10.7706 15.2038 13.1144 30.2904 26.3649 45.3624 39.631 2.9012 2.5537 5.6171 5.3343 8.2716 8.1488 6.1269 6.4961 7.0562 14 3.2438 21.8376-2.716 5.5833-6.1004 10.8508-9.3234 16.1764-7.305 12.0713-14.7298 24.0701-22.0368 36.1402-4.5474 7.5117-8.9685 15.0997-13.4576 22.6727 2.4579 2.1638 4.6652 3.9999 6.7517 5.9641 6.1824 5.8192 11.2239 12.522 14.8911 20.1769 8.1993 17.1156 14.7921 34.8257 18.2231 53.5353 1.6072 8.764 2.3037 17.6952 3.409 26.5511.0813.651-.042 1.3899.2265 1.9444 1.1171 2.3068-.2119 3.5718-1.9987 4.3004-4.0044 1.6325-8.0403 3.2384-12.1731 4.4934-6.3982 1.9431-12.8741 3.6388-19.3507 5.309-1.3734.3541-2.9283.3491-4.324.095-.5216-.0951-1.2035-1.3921-1.1681-2.1092.1678-3.4032.2809-6.8481.9136-10.183 4.5563-24.0124 2.9488-47.7049-3.4214-71.1779-.3125-1.1513-.7587-2.2664-1.1426-3.3983-.1667.0141-.3334.0283-.5002.0425-.0153.684-.1054 1.3761-.0347 2.0511 1.3607 12.988 2.7455 25.9795 1.5495 39.0606-.2498 2.7314-.7759 5.4654-1.4654 8.1227-1.3774 5.3074-4.4981 8.8139-10.2004 9.889-4.2693.8049-8.4881.8763-12.7229.2284-6.992-1.0699-13.6887-3.1147-19.9257-6.5264-.2292-.1254-.4595-.2583-.7044-.3446-2.3578-.8302-2.7034-1.9359-.8584-3.6404 6.0487-5.5881 10.1565-12.4954 13.5446-19.8588 4.8633-10.5686 7.8144-21.5892 7.2193-33.3574-.0193-.382-.0479-.7636-.0755-1.1992-3.063-.052-6.044-.0881-9.0238-.1672-.5085-.0134-1.0628-.1113-1.5108-.3384-15.6844-7.9474-31.7494-15.2719-46.0049-25.7072-10.051-7.3574-19.8353-15.1057-29.4288-23.0533-7.0094-5.8069-10.7591-13.5667-10.5594-22.8081.0546-2.5297.8395-5.2206 1.9458-7.5217 7.2806-15.1409 14.7994-30.1669 22.1254-45.2862 6.7812-13.9949 13.4305-28.0539 20.1076-42.0992.9751-2.0511 1.7118-4.2163 2.7063-6.2568.3134-.6431 1.0303-1.2046 1.6952-1.5429 4.6697-2.3768 9.3744-4.6849 14.0668-7.0173.2283-.1135.4461-.2479.7433-.4143zm2.8382-13.6458c-.0311.0822-.0316.1646-.0017.2472 1.7259 2.9154 3.5096 5.7988 5.1539 8.7596.8611 1.5499 1.815 1.8357 3.1096.8781-2.3312-3.8888-4.6276-7.7198-6.9241-11.5508-.1028-.2292-.2056-.4584-.3085-.6876l.0223.029c-.0757-.2947-.1514-.5895-.2272-.8841l.044.0264c.0008-.502.0016-1.004.0024-1.5061.8622.5507 1.3454 1.2204 1.7948 1.9121 2.1103 3.2468 4.152 6.54 6.3337 9.738 1.8305 2.6834 2.821 2.8134 5.8539 1.1466-.0546-.1174-.0879-.2524-.1677-.3491-.3757-.4556-.7606-.9039-1.1487-1.3493-7.9257-9.0961-13.6266-19.3962-17.0494-30.9894-5.3351-18.0708-5.7429-36.4743-3.8972-55.0361.3353-3.3733.9889-6.7149 1.5184-10.2231-1.2005-.1906-2.3579-.3743-3.515-.5586-.5707-.0852-1.1415-.1702-1.7123-.2554-.2228-.0495-.4456-.0991-.6685-.1486-.2916-.0602-.5833-.1204-.8749-.1807-.7817-.1502-1.5634-.3003-2.345-.4505-1.836-.4029-3.6719-.8058-5.5001-1.207-2.4001 10.6461-3.1729 33.8425 2.7535 59.6755 3.6928 16.0964 9.0858 31.5792 18.4309 45.4392 1.3659-.482 2.5203-.8895 3.8542-1.3601-3.9344-6.0544-7.917-11.8987-9.5829-18.8409.176-.0912.352-.1824.528-.2736.7633 1.2597 1.5266 2.5194 2.2907 3.7788l.0039.0001c.2778.4791.5555.958.8333 1.4371l.0334.0076c.0923.1501.1844.3.2767.45l-.0063.0244c.2598.5943.5197 1.1886.7795 1.7829l.0526.0292c.0887.1426.1773.2851.266.4277zm42.4901 200.4278c-.0264-.5488-.0528-1.0977-.0794-1.6465-.6834-2.8956-1.2272-5.8453-3.0524-8.3312-1.5822.7448-1.6739 1.7504-1.1269 3.1355 2.1055 5.3316 2.6581 10.9137 2.3503 16.5858-.0667 1.2274-.5946 2.4296-.91 3.6435-.2559-.0433-.5118-.0868-.7677-.1302-.1376-6.8822-.0403-13.8014-2.7687-20.3568-1.4915.3923-1.9869 1.0215-1.9633 2.5346.0798 5.0859.4142 10.2455-.2744 15.2496-1.4141 10.278-5.0851 19.8893-10.4696 28.7618-2.3904 3.9387-5.2445 7.5959-8.04 11.5984 3.1227 1.0268 6.3334 2.0826 9.5441 3.1383 3.2592.5899 6.4985 1.4092 9.7841 1.6953 2.5321.2205 5.1227-.2291 7.6871-.3808 4.6779.6074 6.209-.2214 7.0656-4.6619.89-4.614 1.855-9.3112 1.8789-13.9765.0769-15.0619-1.1038-30.0587-3.4983-44.9447-.4555-3.4659-1.4034-6.7716-2.9838-10.0717-1.3969 2.0564-2.6442 3.8099-3.7819 5.632-.2504.4012-.3031 1.1258-.1192 1.5641.9071 2.1626 1.9244 4.2789 2.9027 6.4116.3629 1.4307.7257 2.8614 1.0887 4.2919.0169.3022.0338.6044.0507.9066.0472.1749.0943.3498.1415.5245.0129.778.0258 1.5561.0386 2.3342-.0702.106-.0641.2075.0182.3044-.0256.3797-.0512.7596-.0768 1.1394-.2029.5627-.406 1.1254-.7575 2.1-.606-1.957-1.0753-3.4731-1.5447-4.9893l.0132.0331c-.1195-.7072-.239-1.4145-.3585-2.1217zm19.9319-19.8385c-.3486-.4079-.6972-.8157-1.0458-1.2236-1.2067-1.3293-2.4134-2.6586-3.6201-3.9879-1.864-1.9484-3.7282-3.8969-5.7606-6.0212-.3179.6375-.6066 1.2165-.924 1.8531 2.1037 1.7495 4.0493 3.3676 5.9949 4.9855 1.2893 1.1498 2.5785 2.2997 3.8694 3.4479.2598.3738.5196.7475.7792 1.1212.8752 1.1844 1.7502 2.369 2.6253 3.5535.1014.0849.2027.1698.304.2547.2882.9119.5763 1.8239.8646 2.7358-.6244-.5696-1.265-1.1223-1.8699-1.7119-2.4723-2.4098-4.9336-4.831-7.3989-7.2479-1.9181-1.868-3.8363-3.7359-5.7545-5.6038-.2106.2195-.4213.4394-.6318.6589 1.9399 1.7673 3.8799 3.5345 5.8199 5.3018 3.1407 4.4818 6.3491 8.9189 9.3773 13.4756.8082 1.2161 1.0655 2.7985 1.6349 4.3773-1.8494-2.5982-3.5352-4.9664-5.2211-7.3346-.2681-.4431-.4824-.932-.8134-1.3217-1.839-2.1642-3.685-4.3231-5.5703-6.4469-1.6716-1.8834-3.3563-3.7597-5.1337-5.541-.3652-.366-1.1663-.2973-2.0058-.4816 10.4884 16.5082 14.4414 34.5569 17.0095 52.9698 2.5803 18.5008 1.1201 36.8902-2.9424 55.7004 5.2179-1.6434 9.9899-3.1465 14.762-4.6495 2.7539-.9098 5.5079-1.8194 8.2618-2.7291 2.7636-.7331 5.5272-1.4664 8.3416-2.213-.3031-1.6469-.6288-3.1114-.836-4.5925-1.0352-7.399-1.9188-14.8215-3.0807-22.2003-2.053-13.0381-6.6226-25.3544-11.2606-37.6223-3.4243-9.0577-7.0656-18.0443-13.0149-25.8479.0062-.1103-.029-.2054-.1052-.2853-.8847-1.1244-1.7698-2.249-2.6547-3.3735zm-90.8008-109.4896-.0216.0321c.7679-.1222 1.5331-.265 2.3042-.3628 2.3293-.2953 4.6735-.8639 6.9873-.763 1.756.0764 2.5611-.4795 3.3846-1.8744 3.7937-6.4254 7.6851-12.793 11.5486-19.1771.5975-.9874 1.2319-1.9527 2.0262-3.208-5.5417-.5024-10.5887.2563-15.5568 1.7698-2.8327.7992-5.6805 1.5509-8.486 2.4366-.5851.1848-1.206.7699-1.4841 1.332-2.2291 4.5077-4.3344 9.0769-6.5692 13.5818-1.7806 3.5891-3.69 7.1144-5.668 10.9097 3.8833-1.54 7.4592-2.9582 11.0354-4.3764.1665-.1002.3329-.2002.4994-.3003zm-26.2449 35.0245c4.8669-1.9802 9.7338-3.9604 14.6006-5.9404 2.084-.193 4.1787-.3141 6.2457-.6215.6355-.0947 1.4664-.5558 1.7483-1.0912 3.5131-6.6715 6.9309-13.3932 10.3983-20.0892.9429-1.8209 1.9688-3.5988 3.127-5.7061-4.4183-.1725-8.1961.7433-11.9066 2.068-3.4628 1.3605-6.9571 2.6487-10.3647 4.1353-.7976.348-1.4882 1.2727-1.91 2.0953-2.2943 4.4738-4.536 8.9762-6.7037 13.5129-1.8265 3.8226-3.527 7.7055-5.2824 11.5627-.0613.0573-.1225.1145-.1837.1718.0769-.0326.1541-.0652.2312-.0976zm97.5327-68.2283c.7814-1.6566 1.636-3.2845 2.2986-4.9874.194-.4987.0685-1.4727-.2933-1.7844-5.7505-4.9518-11.4546-9.9698-17.4232-14.6489-1.9814-1.5536-4.6506-2.268-7.0725-3.1889-.4825-.1835-1.6374.2631-1.8586.7206-1.2134 2.5108-2.2329 5.1153-3.3189 7.6875-2.2247 4.367-4.4301 8.744-6.6813 13.0974-1.4039 2.7149-2.8769 5.394-4.4225 8.2829 10.6635 4.5537 20.9818 9.328 29.9205 17.0034 2.8958-7.336 5.6694-14.362 8.4429-21.3882.0782-.0888.1347-.1898.1694-.303.0795-.1636.1592-.3273.2389-.491zm-32.309-54.0599c-4.6491-32.0222-2.0924-63.4345 7.7289-94.4725-.9176-.3295-2.1402-.7688-3.3629-1.208-1.968-.8706-3.936-1.7412-5.904-2.6118-1.7224-.751-3.4381-1.5183-5.1702-2.2463-.9584-.4028-1.6811-.2578-2.2834.7685-.8902 1.5172-1.9987 2.9043-2.963 4.3802-3.3532 5.1322-5.8878 10.6658-8.1352 16.34 2.159.8172 4.161 1.575 6.1631 2.3328.1108.0693.2279.1253.3514.1679.4693.7713 1.4153 1.6044 1.3246 2.3032-.3746 2.8889-1.457 5.7221-1.5648 8.6026-.3786 10.1096-.5161 20.2299-.6169 30.3473-.0239 2.397.4525 4.799.6988 7.1986.1663-.0121.3325-.0241.4988-.0363.3393-2.1906.6788-4.3814 1.0182-6.5722.5404-2.4624 1.0806-4.9247 1.621-7.3871.2025.042.4051.084.6075.1259-.6266 4.4365-1.2534 8.873-1.8801 13.3097-1.3687 4.5592.0938 17.225 2.3913 20.0249.0346-.4779.0872-.8565.0854-1.2349-.0188-3.9018-.0464-7.8034-.0716-11.7052.1839.3797.4661.7422.5359 1.1419.5437 3.1125 1.0468 6.232 1.5624 9.3494.721 4.587 1.442 9.1741 2.163 13.7611 2.2637 5.3185 5.4026 10.0702 9.4177 14.307-.9127-3.3606-1.8255-6.7213-2.7376-10.0812-.4928-2.3016-.9856-4.6035-1.4783-6.9055zm3.0248 29.9375c-6.3705 1.932-12.7411 3.8641-19.1117 5.796-2.6982 1.1463-5.3656 2.3746-8.1071 3.4066-1.4948.5625-2.5363 1.3422-3.1735 2.8637-2.1929 5.236-4.5041 10.4223-6.7375 15.6414-.7433 1.7369-1.3884 3.5158-2.16 5.4837 3.7734-1.108 7.1518-2.0998 10.5302-3.0918 4.3472-.3722 8.6895-.8812 13.0445-1.0373 1.3904-.0498 2.1622-.3297 2.7825-1.5078 4.2057-7.988 8.4425-15.9595 12.6693-23.9364.6772-1.1823 1.3544-2.3646 2.3159-4.0433-1.1106.23-1.5816.3277-2.0526.4252zm-37.9518 136.0811c-4.9865 2.5341-10.3271 3.4215-16.4259 3.1196 9.5782 7.6843 18.9599 14.5601 29.0356 20.4525.3523.206.8977.29 1.2904.1884 5.693-1.4723 10.7765-4.0175 14.7218-8.5187.6193-.544 1.2386-1.0881 1.5454-1.3575-8.2809-6.2622-16.4759-12.4595-24.543-18.5601-1.7363 1.4436-3.6803 3.0597-5.6243 4.6758zm89.6602-22.9814c1.1779 1.3176 2.3557 2.6354 3.64 4.072 4.9545-8.2166 9.7419-16.1563 14.6105-24.2306-2.5323-3.0112-5.0954-6.0586-7.6584-9.106-3.3234-4.3575-7.4717-7.8155-11.997-11.2033-.5508 1.2685-.9767 2.3563-1.4854 3.4038-3.6878 7.5943-7.4113 15.1716-11.0518 22.7884-.2595.5428-.2288 1.6646.1388 1.9998 4.55 4.1478 9.188 8.1994 13.8033 12.2759zm-34.7205 50.048c-1.4785-.839-2.9527-1.6855-4.4364-2.5152-5.5974-3.13-11.1978-6.2547-16.9688-9.4772-.4238.7646-.7943 1.4328-1.1647 2.1012-4.1327 4.1909-8.8497 7.4678-14.8589 9.0937.4867.4072.6575.6088.8743.7229 6.1392 3.2325 12.2346 6.5539 18.4455 9.6428 3.4101 1.6958 6.6463 3.7098 10.6852 4.1327 7.522.7874 14.0233-2.9959 16.2061-9.9113-2.9347-1.2664-5.8585-2.5281-8.7823-3.7896zm40.3341-113.1277c-1.7854 6.0783-3.5956 12.1496-5.3127 18.2473-.149.529.1191 1.446.5264 1.8188 3.5189 3.2212 7.1143 6.3589 10.6868 9.5214 2.7967 3.7141 5.5933 7.4283 8.6237 11.4527 2.8857-5.3015 6.0696-10.5842 8.6946-16.1313 2.6945-5.6942 2.3297-11.4334-2.396-15.9982-6.3586-6.1423-13.0385-11.952-19.5892-17.8949-.0604-.0547-.2378.0194-.4179.04-.2714 2.9757-.5436 5.96-.8157 8.9442zm-25.9392-22.6005c-2.4311 6.2678-4.7719 12.5732-7.3496 18.7802-.7464 1.7974-.3156 2.6374 1.121 3.6523 5.0248 3.55 9.9844 7.193 14.9414 10.8378 2.6768 1.9681 5.2982 4.0115 8.1653 6.1884 2.9077-6.8506 4.5465-13.7511 5.7315-20.7809.2843-2.079.531-4.1642.868-6.2347.1872-1.1509-.1478-1.897-1.06-2.6861-6.0016-5.1919-11.9351-10.4625-17.8921-15.7059-.5573-.4905-1.1238-.9706-1.7921-1.547-.9839 2.6981-1.8587 5.097-2.7334 7.4959zm8.3318 114.1738c.7795 1.3582.968.093 1.2182-.3185 3.6409-5.9874 7.2372-12.0021 10.8872-17.9837 2.3486-3.8489 2.3804-3.8297-1.3913-6.4964-.0519-.0367-.1208-.0495-.1819-.0734-1.163-1.2231-2.248-2.5337-3.5037-3.6528-3.7526-3.3444-7.5721-6.6136-11.3971-9.9398-.3413.2872-.5243.3884-.6349.5419-5.017 6.9591-10.0128 13.9336-15.0545 20.8747-.7803 1.0741-.2751 1.5891.5431 2.22 4.5667 3.5225 9.0951 7.0947 13.6701 10.6063 1.9056 1.4627 3.8942 2.8177 5.8448 4.2217zm-82.7169-7.6404c3.4884-.6846 6.0252-2.8256 8.3722-5.1962-3.1218-3.4673-6.0732-6.7886-9.0715-10.0671-6.8735-7.5156-9.207-15.9532-5.3407-25.7001.4878-1.2298.8424-2.5124 1.2587-3.7706-.1348-.2032-.2694-.4064-.4042-.6096-2.554.6399-5.1081 1.2797-7.662 1.9194-3.2504 1.1638-6.5101 2.3022-9.7487 3.4981-3.6937 1.3639-6.213 3.8548-7.5901 7.6172-.6902 1.8855-1.6603 3.7341-2.8367 5.3585-1.2943 1.7872-1.5491 3.664-.9002 5.5492 1.1426 3.3198 2.1854 6.7705 3.9606 9.7557 3.4806 5.853 9.0452 9.7274 14.3931 13.7321.3746.2806.968.4285 1.4407.3923 2.9341-.2241 5.8851-.3791 8.7853-.8407 1.822-.2899 3.565-1.0752 5.3435-1.6382zm78.8461 16.6856c.9968-1.8793 1.9936-3.7586 2.88-5.4298-7.452-5.6226-14.6508-11.0541-21.7887-16.4397-5.3186 6.8122-10.5604 13.526-15.9174 20.3875 8.2248 4.5928 16.5659 9.2507 24.907 13.9085.5566.378 1.1133.7559 1.7463 1.1858 1.6378-2.9785 3.0831-5.7583 4.6761-8.451 1.0562-1.7851 2.3238-3.4451 3.4967-5.1613zm-61.776-92.8484c-.5233.45-.722.5462-.8057.7035-4.95 9.3109-9.8937 18.6252-14.8278 27.9446-.6349 1.1992-.1569 1.773 1.0305 2.395 5.1024 2.6737 10.1629 5.4333 15.1676 8.2864 4.2718 2.4353 8.4539 5.0289 12.6582 7.5812.8265.5018 1.3981.753 2.0813-.2984 5.496-8.4575 11.6207-16.5221 15.7718-25.8132.6494-1.4538.5416-2.205-.7806-3.0316-6.2803-3.9262-12.4542-8.0277-18.8091-11.8275-3.7386-2.2353-7.7445-4.024-11.4862-5.94zm33.5122 15.6814c1.67-3.3454 3.2497-6.5072 4.8268-9.6703 2.0184-4.048 4.0588-8.0853 6.0347-12.1539.4691-.966.9464-1.8966-.2888-2.9339-8.0267-6.7408-17.2642-11.4183-26.6934-15.753-1.4529-.6679-2.9897-.6824-4.0886 1.284-3.0072 5.3818-6.2647 10.6235-9.4011 15.9337-1.0551 1.7863-2.0439 3.6118-3.1413 5.558 12.0065 4.0113 22.0795 11.1905 32.7517 17.7354zm24.7438 27.3746c-8.0655-7.4169-15.8018-14.5311-23.2637-21.3931-5.8139 9.359-11.5287 18.5582-17.1023 27.5302 8.0872 5.3111 16.1165 10.5843 24.4216 16.0385 5.1946-7.2247 10.5789-14.7134 15.9444-22.1756zm14.8348-30.8304c-8.4145-6.1941-16.6729-12.2733-24.9948-18.3991-3.9445 7.8989-7.6833 15.3246-11.3218 22.799-.2633.5409-.0581 1.7024.3721 2.1261 3.5959 3.543 7.2591 7.0204 10.9741 10.4393 3.8476 3.5411 7.7755 6.9948 11.8512 10.6506 5.3639-8.8459 9.1776-18.0804 13.1192-27.6159zm-74.6871 58.9963c7.4312 6.7244 15.2241 12.55 23.76 17.3693 1.0672.6025 1.7942.333 2.5077-.5981 4.7375-6.1823 9.4905-12.3526 14.2728-18.5002.7453-.9582.3254-1.4535-.4181-2.0892-6.7166-5.7433-14.3552-10.0926-21.9519-14.4973-.3812-.2209-1.4461.0224-1.6901.3863-4.5258 6.7539-10.0981 12.5407-16.4804 17.9292zm14.2878-20.6467c-1.7754-1.1012-3.3638-2.1311-4.9939-3.0898-7.8545-4.6195-15.724-9.2134-23.5782-13.8334-1.1794-.6937-1.9114-.579-2.2953.8689-.621 2.3421-1.4115 4.6412-1.9815 6.9944-1.0476 4.3253-.3705 8.4716 2.3509 11.9604 3.3802 4.3334 6.9241 8.571 10.7249 12.5359 4.0311 4.205 2.8779 3.7817 6.8216.133 4.9279-4.5591 9.3652-9.5328 12.9515-15.5694z" fill="#37441b"/><path d="m200.7199 418.1986c1.0946 15.2413 5.879 29.1733 13.3447 42.2166 2.1139 3.6932 4.5533 7.2133 7.0164 10.6902 2.777 3.9204 2.8253 6.28-.9111 9.3351-3.2839 2.6849-6.8492 5.0974-10.537 7.1968-4.0768 2.3207-7.618 1.5157-10.383-2.3177-1.9394-2.6888-3.3047-5.7928-4.9102-8.7201-.3271-.5964-.5829-1.2321-.8715-1.8494-.1982.049-.3963.0981-.5944.1472.2433 3.2336.4812 6.4677.7338 9.7004.0614.7845.1878 1.5638.2552 2.3478.1744 2.029-.1851 2.3638-2.2515 2.2777-.4244-.0177-.8636.1617-1.2862.2842-6.4203 1.8616-12.8291 3.7644-19.2654 5.5689-1.5731.441-4.5658-1.4182-5.4619-3.4003-.6965-1.5406-1.3022-3.1872-1.569-4.8476-3.6932-22.9904-3.0411-45.6793 5.1762-67.7462 1.4303-3.8412 3.4506-7.4625 5.2783-11.3555-4.1147-3.7761-8.4056-7.8151-12.8062-11.7307-8.5317-7.5912-17.3678-14.8592-25.6136-22.7466-6.1963-5.9269-11.7602-12.5318-17.3841-19.0267-1.1457-1.3231-1.7431-3.4798-1.8371-5.2915-.3609-6.9583 1.8461-13.4848 4.0198-19.9584 7.1186-21.1996 19.0469-39.5166 33.9084-56.0344 7.2358-8.0423 16.1906-13.4847 26.3534-17.0288.6078-.2119 1.2076-.447 1.4847-.5499-3.5172-6.9025-7.14-13.6522-10.4392-20.5566-8.6734-18.1519-14.285-37.2337-16.7876-57.2016-.7958-6.3499-.9863-12.711 1.0848-18.9147.2903-.8692.593-1.7598 1.0644-2.5344.3096-.5085.8993-1.1214 1.4212-1.1808 3.247-.3694 6.5064-.7208 9.7696-.8187 1.7394-.0522 3.5119.3301 5.236.6805 1.0611.2157 1.503.8529 1.7063 2.1783 1.0329 6.7343 2.3526 13.4246 3.6076 20.3273 2.0316-.4368 3.9197-1.0405 5.8463-1.2111 2.9765-.2634 5.998-.4748 8.9646-.2458 2.3458.1812 2.9651 1.3807 3.2202 3.7089 1.2803 11.6791 2.4661 23.3717 3.9778 35.0216 1.4098 10.8657 3.0687 21.7034 4.8671 32.5119.6209 3.7309 1.968 7.3439 3.0416 10.9936.1761.5987.5616 1.2015 1.0066 1.646 9.1399 9.1296 16.8744 19.4183 24.5171 29.7751 7.4075 10.0379 14.8183 20.0763 22.0347 30.2514 5.2634 7.4211 9.5353 15.3986 12.1384 24.1919.4449 1.503 1.2448 2.8985 1.7242 4.394 1.8759 5.8533 1.0625 11.548-1.1957 17.1174-2.9067 7.169-7.4296 13.2538-12.7551 18.7805-9.1778 9.5249-19.0823 18.2155-29.9187 25.8157-7.616 5.3419-15.9131 8.5981-25.412 8.0046-.1866-.0116-.3785.0625-.6089.1039zm-3.0714-185.9499c.0932.1687.1863.3374.2794.5062-.0133.1031.0028.2014.0482.2949-.0295.4402-.1728.9087-.071 1.316 1.025 4.1056 2.0902 8.2012 3.144 12.2996.4959 2.3835.9917 4.7669 1.4877 7.1504.2071-.0373.4143-.0746.6215-.1119.1961-2.3581-.4497-4.5985-1.3143-6.8085-.5757-3.2308-1.1514-6.4615-1.7271-9.6921-2.7939-19.5029-5.2426-39.045-6.5519-58.901-.9664.2626-1.7732.4818-2.5801.7009-2.1446.2735-4.2893.5468-6.4339.8202-1.534.2483-3.0679.4964-4.7557.7695.1076.8611.1616 1.5699.2884 2.2653 1.6437 9.0145 3.2051 18.0454 4.9709 27.0362 2.6992 13.7441 7.2226 26.9237 12.6797 39.7976.3656 1.6293 1.0404 3.0054 3.1871 3.5936-.4046-1.3385-.7469-2.4707-1.0891-3.6027-.4984-2.0804-1.0309-4.1532-1.4892-6.2423-1.7774-8.1004-3.5313-16.2058-5.2938-24.3094-.2861-2.0231-.5722-4.0463-.8582-6.0695.1833-.0647.3667-.1294.55-.1941.2784.6388.6669 1.253.8177 1.9206 1.0103 4.4729 1.9518 8.9613 2.9622 13.4341.1945.8608.5952 1.6751.9008 2.5108-.0182.0952-.0072.1871.0329.2753.0654.1997.1309.3996.1962.5994-.0243.0868-.0122.1683.0368.2449-.0131.1322-.0261.264-.0392.396zm-3.1818 174.3994c.6918-.6424 1.3835-1.2849 2.0751-1.9273 1.9327-1.6186 3.8653-3.2372 5.8553-4.9038-10.9629-4.4057-19.6302-11.7054-28.2587-19.4826-1.0939 2.0489-2.1026 3.938-3.1114 5.8272-1.3675 2.1457-2.6733 4.3343-4.1266 6.4202-.8046 1.1549-.4568 1.8249.4722 2.632 2.2234 1.9312 4.3644 3.9569 6.5621 5.9179 4.3229 3.8575 8.9362 7.2863 14.4311 9.3097.5946.219 1.4001-.1345 2.1077-.2226 1.3311-1.1902 2.6621-2.3805 3.9932-3.5707zm63.3498-32.8074c.721-.4958 1.6815-.8373 2.1191-1.5159 1.4508-2.2492 2.9316-4.5257 3.986-6.9706 1.0432-2.419 1.5828-5.0551 2.3433-7.596-.1709-2.9042.1463-5.9411-.601-8.6885-2.5867-9.5099-7.1353-18.1494-12.6931-26.2558-.4422-.6449-1.2748-1.1286-2.0286-1.4351-3.254-1.323-6.5461-2.5521-9.8244-3.8154-.1517-.0497-.3033-.0995-.4549-.1493-.2119-.0633-.4238-.1266-.6357-.1898-1.7778-.3902-3.5556-.7803-5.8577-1.2854.8839 1.3828 1.4222 2.1916 1.9273 3.0204 4.1574 6.8228 8.6321 13.4771 12.3789 20.5186 4.5682 8.5853 3.6178 16.9818-2.6198 24.5812-2.7019 3.2916-5.5479 6.4651-8.3282 9.6922-.9826 1.0354-1.9652 2.071-3.3269 3.506 8.404-.5266 16.1316-1.1098 23.6157-3.4166zm-39.9139-90.3626c-.2428-.1895-.4855-.3792-.7281-.5687-3.1834-1.3009-6.4254-1.6799-10.1035-.8638 1.0854 1.314 1.9206 2.3089 2.7385 3.3179 6.5484 8.0796 13.2535 16.0399 19.5459 24.3142 1.9924 2.62 4.0163 3.8013 7.1254 3.4359.5913.1713 1.1827.3424 1.774.5137l.4488.1116c.362.0907.7239.1813 1.0859.2721.1435.0401.287.0804.4305.1205 2.7576.8971 5.5151 1.7943 8.2724 2.6916.038.0722.0759.1445.114.2168.008-.0447.038-.1115.0197-.1293-.0386-.0382-.1023-.051-.1559-.0742-.0681-.2351-.0774-.5134-.213-.6994-6.8349-9.3789-13.6756-18.7537-20.5386-28.1122-.375-.5114-.8742-1.0502-1.4371-1.2853-2.7723-1.1576-5.5855-2.2169-8.3843-3.3111zm-.5075-3.4943c.1471.0476.2943.0952.4414.1428 1.5777.5555 3.1554 1.1111 4.7383 1.6641.0701.0841.1332.1766.2158.246.0192.0162.1047-.0467.1599-.0731-.0774-.0845-.1549-.169-.2323-.2535-.0644-.1785-.0836-.3962-.1996-.5298-5.6306-6.4834-11.1498-13.0701-16.9771-19.3719-1.8607-2.0121-4.5114-3.3124-6.87-4.8304-.5275-.3396-1.3843-.4115-2.0247-.2833-1.5947.3192-3.1523.8247-4.7247 1.2555-2.3978.4879-3.0427 1.4695-1.8377 3.0155 4.6245 5.9341 9.2952 11.8326 13.9961 17.7062.3446.4305 1.0782.8094 1.6114.785 2.5212-.1156 5.0356-.3799 7.5525-.5913.9815.2564 1.963.5128 2.9447.7692.1693.0534.3387.1069.5081.1604.2324.063.465.1259.6979.1886zm.0306 196.8862c2.274-1.1545 2.3816-1.8144.9142-4.0958-3.2554-5.0615-6.7592-9.993-9.6273-15.268-6.5544-12.055-10.787-24.8443-11.0114-38.7445-.0075-.4704-.7061-.9296-1.0828-1.3941-.1816.1167-.3632.2332-.5448.3498-.88 4.8139.008 9.6106.3102 14.4131-.6698-1.5234-1.7244-2.9974-1.9271-4.5804-.3875-3.0281-.2625-6.1196-.4201-9.1812-.0279-.5427-.3954-1.0679-.606-1.6013-.2379.0728-.4759.1455-.7137.2184-.0239 4.8756-.3935 9.7812.0252 14.6184.4236 4.8942 1.6275 9.7208 2.4896 14.5769-2.7664-3.4001-3.8629-7.468-4.3666-11.6582-.7208-5.9934-1.2235-12.0255.8222-18.0482-1.1013-.3548-2.3787-.7664-3.7796-1.2178-.071.4968-.1495.7424-.134.9821.41 6.3359.6906 12.6841 1.2762 19.004 1.3182 14.2236 3.7192 28.2186 9.8497 41.2932 1.047 2.2329 2.3105 4.4291 3.835 6.357 1.9865 2.5123 3.2262 2.4691 5.9984.4826 2.8976-2.1689 5.7951-4.3374 8.6927-6.506zm-30.5053-236.4432c1.9438 3.2843 3.8877 6.5687 5.8315 9.8529-.0184.1192.0122.2243.0919.3148.2138 1.5565.8503 2.4011 2.7533 1.4283-.6223-.8011-1.1946-1.5377-1.7669-2.2743-.8566-2.1026-1.7844-4.1795-2.5562-6.3129-2.023-5.5918-3.978-11.2084-5.96-16.8151-6.6583-22.4193-9.158-45.6405-13.1974-68.7433-1.1964.2061-2.3437.404-3.4908.6018-1.1231.1498-2.2462.2998-3.3692.4496-1.366.1188-2.7466.158-4.0893.404-.4128.0756-.9702.6773-1.0387 1.1057-.4633 2.9013-1.0884 5.8152-1.1492 8.7355-.1968 9.4489 1.8694 18.614 3.9393 27.7552 2.9968 13.2348 7.8077 25.8472 13.5656 38.091 2.7261 5.7965 5.8845 11.3914 8.9087 17.0449 1.1734 2.1935 1.7209 2.2959 3.6842 1.0019-4.4527-6.5603-9.3324-12.9011-11.5335-20.7275 4.4588 6.8983 8.9176 13.7966 13.3765 20.6949.1828-.1156.3656-.2312.5486-.3468-3.0722-6.2064-7.4985-11.7325-9.3909-18.552 1.0227 1.16 2.0454 2.3202 3.0681 3.4802.5914.9371 1.1829 1.8741 1.7744 2.8112zm68.9091 136.4628c-7.6637 1.3742-15.3356 2.6508-23.1609 2.662-.5842.0008-1.2452.5768-1.7392 1.0289-4.6302 4.2373-9.1941 8.5476-13.8581 12.747-2.1584 1.9435-4.4959 3.6881-6.8448 5.5983.355.2138.5046.3769.6675.3915 6.0633.5457 12.1397.93 18.169-.1918 2.0887-.3886 4.5411-.714 6.0507-1.9884 5.6915-4.8052 11.1071-9.9428 16.5276-15.0603 1.5936-1.5045 2.8622-3.3533 4.2784-5.0464.0617-.0719.1235-.1439.1854-.2158-.092.0251-.1838.05-.2756.075zm-71.8181 39.1181c.2107-.6713.4214-1.3424.6336-2.0184-2.1902-1.2041-4.3416-2.3871-6.7905-3.7336-12.7505 26.0511-13.2415 53.1297-8.6437 81.024 2.4731-.8326 4.6287-1.5584 6.7843-2.2841 3.9833-.9524 7.9666-1.9049 11.9502-2.8583.7451-.0424 1.49-.0848 2.1507-.1222-.6432-6.1709-1.3714-12.0882-1.8435-18.0258-.3679-4.6275.0047-9.3445-.6893-13.9096-1.9206-12.632-3.4506-25.2795-3.5518-38.072zm-37.6318-65.9055c-4.1255 5.3932-6.9765 11.4305-9.2161 18.3975 8.871 7.8092 17.8996 15.7573 27.1403 23.8921 1.8348-3.3073 3.4169-6.1592 4.999-9.011.5965-1.0085 1.1052-2.0835 1.8096-3.0099 1.1054-1.4539.8691-2.472-.3421-3.867-6.135-7.0659-12.1656-14.2239-18.1482-21.42-1.7817-2.1432-3.2892-4.5142-5.1459-7.0911-.472.9077-.7844 1.5086-1.0966 2.1094zm13.236-60.1344c-1.369-3.2704-2.7381-6.5409-4.3476-10.3857-3.6271 4.7979-6.9651 8.9861-10.0549 13.35-5.6377 7.9623-10.9525 16.1357-14.9066 25.1004-.2623.5947-.2629 1.538.028 2.1086 3.7691 7.3923 8.6873 13.9919 14.1445 20.2095.8255 1.0494 1.651 2.0988 2.5972 3.3015.5038-.8288.8277-1.3127 1.1036-1.8226 5.9785-11.0541 11.9074-22.1362 19.2253-32.3991.321-.4501.3364-1.3875.0999-1.9243-2.5845-5.8661-5.2475-11.6975-7.8894-17.5383zm27.3001-27.0753c-.6906-.9386-1.3812-1.8773-2.0797-2.8269-.7473.2318-1.371.4091-1.9842.6175-9.754 3.3148-18.1718 8.6816-25.0444 16.3906-.4314.4839-.9838 1.3795-.8069 1.8014 1.107 2.6415 2.4055 5.2029 3.6406 7.7907.0343.2585.0093.5436.1117.7715 2.6587 5.9196 5.325 11.8362 8.0145 17.7419.1718.377.5437.6628 1.0557 1.2656 8.6378-10.7733 19.4112-18.671 31.2266-25.3007-4.7642-6.1521-9.4492-12.2018-14.1339-18.2516zm59.7854 90.3417c.1853-.0275.3707-.0551.5559-.0827-.3222-2.6868-.2186-5.5121-1.0408-8.0359-3.3997-10.4368-9.9063-19.1533-16.1291-27.998-.3187-.4529-1.4818-.8166-1.9351-.5895-3.3756 1.6912-7.0307 3.0957-9.9243 5.4266-8.6089 6.9354-16.1297 14.9689-22.5096 24.0471-.8753 1.2455-.8011 2.038.1298 3.0442 3.2032 3.4621 6.2477 7.0833 9.6029 10.3902 6.553 6.4586 13.3939 12.5719 22.046 16.2213 1.071.4517 1.7048.4855 2.5297-.4163 3.3619-3.676 6.8958-7.1981 10.1835-10.9377 2.8571-3.2494 5.5462-6.6699 6.4911-11.0693zm-53.9756-8.2789c.6694-.8618 1.1347-1.4673 1.6064-2.0677 9.2602-11.7849 18.7773-23.2828 32.9654-29.6732.0015.0073.013-.1404-.0518-.237-6.9232-10.3386-15.4312-19.3951-23.431-28.8609-.2955-.3497-1.3479-.4633-1.7962-.2212-11.6109 6.2707-21.8793 14.2168-30.1696 24.5616-.3954.4936-.5468 1.65-.2449 2.1658 5.6 9.5671 11.2569 19.1014 16.9789 28.5961 1.1657 1.9342 2.6446 3.6795 4.1428 5.7365zm-23.5044-33.2699c-1.2067 1.8209-2.5497 3.6548-3.6933 5.6057-5.3731 9.1656-10.6628 18.3799-16.0655 27.5276-.6734 1.1402-.2267 1.7531.3376 2.598 6.4013 9.5846 14.219 18.0161 21.7166 26.7075.5649.6549 1.2409 1.2141 1.8891 1.8407 5.7423-9.2802 11.2938-18.3416 16.9682-27.3254.8407-1.3309.5958-2.0254-.2243-3.1972-2.9702-4.2443-5.8891-8.5353-8.5953-12.9508-4.1752-6.8124-8.159-13.7419-12.3331-20.8061zm58.4105 66.5087c-14.503-6.2006-24.4117-17.1989-34.369-28.3168-.3941.4766-.7704.8376-1.0365 1.2669-5.3502 8.6338-10.6661 17.289-16.054 25.8991-.7037 1.1248-.3282 1.727.4445 2.5044 5.531 5.5649 11.7879 10.2116 18.3806 14.4049 2.0266 1.2892 4.3231 2.1532 6.4929 3.2179 1.9154.9398 3.56.7151 5.1747-.8037 1.6657-1.5671 3.5858-2.8599 5.3118-4.3674 5.1706-4.5156 10.3007-9.0774 15.655-13.8053zm-91.8936-11.152c1.7463-7.3199 5.1624-13.2874 8.8703-19.0763 1.163-1.8156.8616-2.9016-.3785-4.4318-5.0222-6.197-10.335-12.1969-13.9705-19.3983-.4223-.8368-.9375-1.6268-1.5947-2.7563-.6569 1.6045-1.1539 2.8583-1.6812 4.0992-2.8221 6.641-5.1172 13.4433-6.3783 20.5694-.495 2.7977-.3644 5.2297 2.0097 7.424 3.3588 3.1044 6.3663 6.5884 9.5325 9.9019 1.0687 1.1182 2.1632 2.2117 3.5907 3.6682zm57.557 44.9881c6.9579 1.72 13.4914 1.9645 19.934-.3109 6.2752-2.2164 11.622-5.9647 16.9223-10.4075-.5892-.0959-.7805-.1809-.9468-.1463-5.1429 1.0742-10.3185.8451-15.4155-.0597-3.6744-.6522-6.687-.4171-9.6149 2.3521-3.249 3.073-7.0297 5.5836-10.8791 8.5723zm9.821-157.3835c.0453.0272.0908.0543.1361.0816-.0208-.063-.0416-.1261-.0624-.1891-.0245.0357-.0492.0717-.0737.1075zm-9.7856 219.729c-.0409-.0557-.0764-.1441-.1116-.1438-.09.0004-.1799.0403-.2697.0642.031.0508.0621.1442.0932.1443.0901.0001.1802-.0375.2881-.0647z" fill="#37441b"/><g fill="#b3d955"><path d="m278.4171 200.9134c3.7418 1.916 7.7476 3.7046 11.4861 5.94 6.3549 3.7998 12.5288 7.9013 18.8091 11.8275 1.3222.8266 1.43 1.5778.7806 3.0316-4.1511 9.2911-10.2758 17.3556-15.7718 25.8132-.6832 1.0514-1.2548.8002-2.0813.2984-4.2043-2.5522-8.3864-5.1459-12.6582-7.5812-5.0047-2.8531-10.0651-5.6126-15.1676-8.2864-1.1874-.6221-1.6654-1.1958-1.0305-2.395 4.9341-9.3194 9.8779-18.6337 14.8278-27.9446.0838-.1573.2824-.2535.8058-.7035z"/><path d="m311.9293 216.5948c-10.6721-6.5449-20.7452-13.7241-32.7516-17.7355 1.0974-1.9462 2.0862-3.7718 3.1413-5.558 3.1363-5.3102 6.3939-10.5518 9.4011-15.9337 1.0989-1.9664 2.6357-1.9519 4.0886-1.284 9.4292 4.3347 18.6667 9.0123 26.6934 15.753 1.2351 1.0373.7579 1.968.2888 2.9339-1.9759 4.0686-4.0163 8.106-6.0347 12.1539-1.5772 3.1632-3.157 6.325-4.8269 9.6704z"/><path d="m336.6731 243.9694c-5.3654 7.4622-10.7498 14.9509-15.9444 22.1756-8.3052-5.4542-16.3344-10.7274-24.4216-16.0385 5.5736-8.972 11.2883-18.1712 17.1023-27.5302 7.4618 6.862 15.1982 13.9763 23.2637 21.3931z"/><path d="m351.5079 213.139c-3.9416 9.5355-7.7552 18.77-13.1192 27.6159-4.0757-3.6558-8.0037-7.1095-11.8512-10.6506-3.7149-3.4189-7.3781-6.8963-10.9741-10.4393-.4301-.4237-.6353-1.5852-.3721-2.1261 3.6385-7.4744 7.3773-14.9001 11.3218-22.799 8.3218 6.1258 16.5803 12.205 24.9948 18.3991z"/></g><path d="m367.4952 408.803c-4.7721 1.503-9.5441 3.0061-14.762 4.6495 4.0624-18.8102 5.5226-37.1996 2.9424-55.7004-2.5681-18.4129-6.5211-36.4616-17.0095-52.9698.8395.1843 1.6406.1156 2.0058.4816 1.7774 1.7813 3.4621 3.6577 5.1337 5.541 1.8852 2.1238 3.7313 4.2827 5.5703 6.4469.331.3896.5453.8785.8136 1.3219.2434 1.172.1971 2.5164.777 3.4871 3.7232 6.2331 5.6483 13.0773 6.8825 20.1225 1.0038 5.7299 1.5529 11.5383 2.498 17.28.945 5.7411 2.3766 11.4099 3.1479 17.1701.9087 6.7873 1.4572 13.6308 1.9271 20.4659.267 3.8846.0643 7.8014.0732 11.7037z" fill="#8cc41d"/><path d="m276.8208 272.1353c6.3824-5.3885 11.9546-11.1754 16.4805-17.9293.244-.3639 1.3089-.6072 1.6901-.3863 7.5967 4.4047 15.2353 8.7541 21.9519 14.4973.7434.6357 1.1634 1.1311.4181 2.0892-4.7823 6.1476-9.5353 12.318-14.2728 18.5002-.7135.9311-1.4405 1.2005-2.5077.5981-8.536-4.8191-16.3289-10.6448-23.7601-17.3692z" fill="#b3d955"/><path d="m333.225 168.0398c-2.7735 7.0262-5.5471 14.0522-8.4429 21.3882-8.9388-7.6754-19.257-12.4497-29.9205-17.0034 1.5456-2.8889 3.0187-5.568 4.4225-8.2829 2.2513-4.3534 4.4566-8.7303 6.6811-13.0971.6789.3683 1.3766.7067 2.0342 1.1104 1.8857 1.1575 3.7387 2.3689 5.6344 3.5095 4.118 2.4776 8.2915 4.865 12.3696 7.4062 2.4774 1.5436 4.819 3.3053 7.2216 4.9691z" fill="#b4d955"/><path d="m367.4952 408.803c-.0089-3.9023.1938-7.8191-.0732-11.7037-.4698-6.8352-1.0184-13.6786-1.9271-20.4659-.7712-5.7603-2.2029-11.429-3.1479-17.1701-.9452-5.7416-1.4943-11.5501-2.498-17.28-1.2342-7.0452-3.1593-13.8894-6.8825-20.1225-.5798-.9706-.5335-2.3151-.777-3.4871 1.6858 2.368 3.3716 4.7361 5.221 7.3344-.5695-1.5789-.8267-3.1613-1.6349-4.3773-3.0282-4.5567-6.2366-8.9937-9.377-13.4753.1888-.119.3775-.2381.5663-.3571 2.4653 2.4169 4.9266 4.8381 7.3989 7.2479.6049.5896 1.2456 1.1423 1.8698 1.7121 1.2597 2.3181 2.7407 4.5456 3.7331 6.9729 2.0549 5.026 3.7198 10.2117 5.78 15.2353 3.7745 9.2035 6.2147 18.7922 7.7449 28.5502 1.3656 8.7089 2.0615 17.5379 2.6963 26.3394.2937 4.0745-.2607 8.2101-.4307 12.3178-2.7541.9097-5.5081 1.8193-8.262 2.729z" fill="#b4da56"/><path d="m289.4562 84.5285c.6268-4.4367 1.2535-8.8732 1.8801-13.3097-.2024-.042-.4049-.084-.6075-.1259-.5404 2.4624-1.0806 4.9247-1.6211 7.3865-.1721-1.0185-.4886-2.0359-.4943-3.0549-.061-11.1632 1.328-22.1933 3.1766-33.1743.5952-3.5356-.4076-5.0068-4.041-5.6134-.1235-.0427-.2406-.0986-.3511-.1677 1.6-3.4659 2.9535-7.0751 4.8634-10.361 2.2574-3.8839 4.9954-7.4887 7.5251-11.2145 1.968.8706 3.936 1.7412 5.904 2.6119-.1626.4949-.3181.9922-.4885 1.4843-2.0675 5.9705-4.6787 11.8182-6.0578 17.9435-1.4538 6.4569-1.8875 13.1647-2.4783 19.7886-.5674 6.3632-1.202 12.7724-1.0139 19.1379.2293 7.7621 1.081 15.5258 2.0602 23.2384.6229 4.905 1.9665 9.7187 2.9871 14.5732.7009 2.1399 1.402 4.2797 2.1029 6.4195.9127 3.3607 1.8256 6.7214 2.7383 10.082-4.0151-4.2368-7.154-8.9885-9.4173-14.3067 1.6071.0593 2.5144-.8199 2.5698-2.3158.0418-1.1292-.0815-2.3847-.5494-3.3893-1.2763-2.7405-2.7739-5.3781-4.1838-8.0564-.5156-3.1174-1.0187-6.237-1.5624-9.3494-.0699-.3997-.3521-.7622-.5358-1.1423-.8019-2.3616-1.6037-4.7231-2.4053-7.0845z" fill="#b4da56"/><path d="m330.2741 306.1883c-8.3411-4.6578-16.6822-9.3158-24.907-13.9085 5.357-6.8615 10.5988-13.5752 15.9174-20.3875 7.1379 5.3856 14.3367 10.8171 21.7887 16.4397-.8864 1.6712-1.8832 3.5505-2.8795 5.4298-2.229.4044-3.3701 2.0856-4.361 3.8532-1.3952 2.4888-2.6414 5.0615-4.0496 7.5425-.2701.4758-.9944.6939-1.509 1.0308z" fill="#b3d955"/><path d="m261.347 277.0762c-1.7785.563-3.5215 1.3483-5.3435 1.6383-2.9003.4616-5.8512.6166-8.7853.8407-.4728.0362-1.0661-.1117-1.4407-.3923-5.3479-4.0048-10.9125-7.8792-14.3931-13.7321-1.7753-2.9852-2.8181-6.4359-3.9606-9.7557-.6489-1.8852-.3941-3.762.9002-5.5492 1.1764-1.6244 2.1465-3.473 2.8367-5.3585 1.3772-3.7624 3.8964-6.2533 7.5901-7.6172 3.2387-1.1958 6.4984-2.3343 9.7491-3.4977-.9177 2.7765-2.0836 5.4995-2.6935 8.3416-.8275 3.858-1.6631 7.8059-1.6769 11.718-.011 3.1301 1.1109 6.287 1.9032 9.3876.4147 1.6232.7628 3.6766 1.9001 4.6277 4.1804 3.4955 7.9841 7.6233 13.4142 9.3488z" fill="#8cc41d"/><path d="m291.1086 251.4886c-3.5863 6.0366-8.0236 11.0103-12.9516 15.5694-3.9437 3.6487-2.7906 4.072-6.8216-.133-3.8008-3.9649-7.3447-8.2025-10.7249-12.5359-2.7213-3.4888-3.3985-7.6351-2.3509-11.9604.57-2.3532 1.3605-4.6523 1.9815-6.9944.3839-1.4479 1.1159-1.5625 2.2953-.8689 7.8542 4.62 15.7238 9.214 23.5782 13.8334 1.6302.9587 3.2186 1.9887 4.994 3.0898z" fill="#b3d955"/><path d="m344.0639 284.7166c-1.9507-1.404-3.9392-2.759-5.8448-4.2218-4.575-3.5116-9.1033-7.0838-13.6701-10.6063-.8181-.6309-1.3234-1.1459-.5431-2.22 5.0417-6.9411 10.0375-13.9156 15.0545-20.8747.1107-.1534.2936-.2547.6349-.5419 3.825 3.3262 7.6445 6.5955 11.3971 9.9398 1.2556 1.1191 2.3407 2.4298 3.5035 3.6527-.3106 1.1335-.4853 2.3269-.9536 3.3909-3.1579 7.1758-6.3782 14.3241-9.5784 21.4813z" fill="#b4d955"/><path d="m288.4909 125.1295c-.7635-1.2597-1.5267-2.5194-2.29-3.779-.1761.0912-.3521.1824-.528.2736 1.666 6.9422 5.6486 12.7865 9.5829 18.8409-1.3338.4706-2.4883.8781-3.8542 1.3601-9.3451-13.86-14.7381-29.3429-18.4309-45.4392-5.9265-25.833-5.1537-49.0294-2.7535-59.6755 1.8282.4012 3.6641.8041 5.5006 1.2074-.2524 8.2716-.8782 16.5533-.6467 24.8111.2044 7.2928 1.1635 14.5871 2.1728 21.8271.6851 4.9145 1.9723 9.7509 3.1155 14.5926.4203 1.7802 1.2009 3.4754 1.8171 5.2095.2253.9595.4507 1.919.676 2.8787 1.1733 4.0517 2.303 8.1168 3.539 12.1494.5966 1.946 1.3933 3.8308 2.0994 5.7433z" fill="#8cc31d"/><path d="m358.3416 189.2206c-1.185 7.0298-2.8238 13.9303-5.7315 20.7809-2.867-2.177-5.4884-4.2203-8.1653-6.1884-4.9571-3.6448-9.9167-7.2878-14.9414-10.8378-1.4366-1.0149-1.8674-1.8549-1.121-3.6523 2.5777-6.2069 4.9185-12.5123 7.3496-18.7802 5.78 4.9188 11.5397 9.8616 17.3523 14.7414 1.6742 1.4054 3.5007 2.6294 5.2573 3.9364z" fill="#b3d955"/><path d="m361.6713 193.1433c.2721-2.9842.5443-5.9685.8157-8.9443.1801-.0205.3576-.0947.4179-.04 6.5507 5.943 13.2305 11.7526 19.5892 17.8949 4.7257 4.5647 5.0905 10.304 2.396 15.9982-2.6251 5.5472-5.809 10.8299-8.6946 16.1313-3.0304-4.0245-5.827-7.7386-8.6236-11.4526 2.4198-8.7484 1.5122-17.227-2.3433-25.3586-.7633-1.6099-2.3502-2.8293-3.5573-4.2289z" fill="#eaf5c0"/><path d="m321.3372 306.271c2.9238 1.2615 5.8476 2.5233 8.7822 3.7895-2.1827 6.9154-8.6841 10.6987-16.2061 9.9113-4.0388-.4229-7.2751-2.4369-10.6852-4.1327-6.211-3.0889-12.3063-6.4103-18.4455-9.6428-.2169-.1141-.3876-.3157-.8743-.7229 6.0092-1.6258 10.7262-4.9027 14.8603-9.0935.4476.1066.9305.1368 1.3348.331 5.4056 2.5966 10.78 5.2591 16.2098 7.8035 1.5981.7489 3.3452 1.1798 5.024 1.7566z" fill="#8cc41d"/><path d="m315.6564 383.9605c-3.2106-1.0557-6.4214-2.1115-9.5441-3.1383 2.7955-4.0025 5.6497-7.6598 8.04-11.5984 5.3845-8.8725 9.0556-18.4839 10.4696-28.7618.6886-5.0041.3542-10.1637.2744-15.2496-.0236-1.5132.4718-2.1423 1.9633-2.5346 2.7285 6.5554 2.6311 13.4745 2.7687 20.3568.2559.0435.5118.0869.7677.1302.3155-1.2138.8434-2.4161.91-3.6435.3078-5.6721-.2448-11.2541-2.3503-16.5858-.5469-1.3851-.4553-2.3907 1.1269-3.1355 1.8251 2.4858 2.369 5.4356 3.0525 8.3313.0264.549.0529 1.0977.0793 1.6464l-.0095-.0264c.1194.7072.2389 1.4145.3584 2.1217l-.0132-.0331c-.0857 3.7681-.2363 7.536-.2418 11.3041-.0082 5.5933-.6508 10.9899-3.4479 16.0146-2.3434 4.2096-4.6136 8.4882-6.506 12.9116-1.6787 3.9236-3.9078 7.3538-6.8615 10.3791-.3877.3972-.5627 1.0024-.8365 1.5112z" fill="#8cc31d"/><path d="m356.0577 256.223c-4.6153-4.0765-9.2533-8.1281-13.8034-12.276-.3676-.3352-.3983-1.457-.1388-1.9998 3.6405-7.6168 7.364-15.1941 11.0518-22.7884.5087-1.0475.9346-2.1352 1.4854-3.4038 4.5253 3.3878 8.6736 6.8458 11.997 11.2033-1.1702 3.5337-2.2499 7.1007-3.5305 10.594-2.2898 6.247-4.7009 12.4496-7.0615 18.6707z" fill="#b3d955"/><path d="m261.347 277.0762c-5.4301-1.7255-9.2338-5.8533-13.4142-9.3488-1.1374-.9511-1.4854-3.0045-1.9001-4.6277-.7923-3.1006-1.9142-6.2575-1.9032-9.3876.0138-3.9121.8494-7.86 1.6769-11.718.6099-2.8422 1.7758-5.5652 2.6935-8.3416 2.5536-.6402 5.1077-1.2799 7.6616-1.9198.1348.2032.2694.4064.4042.6096-.4163 1.2582-.7709 2.5408-1.2587 3.7706-3.8664 9.7468-1.5329 18.1845 5.3407 25.7001 2.9983 3.2785 5.9497 6.5998 9.0715 10.0671-2.347 2.3705-4.8838 4.5115-8.3722 5.1961z" fill="#b3d955"/><path d="m295.0195 294.4463c-3.9453 4.5012-9.0289 7.0464-14.7218 8.5187-.3927.1015-.9381.0176-1.2904-.1884-10.0757-5.8924-19.4573-12.7682-29.0356-20.4525 6.0988.3019 11.4393-.5854 16.426-3.1197.0801.1024.138.2461.2428.3012 9.4572 4.9846 18.9182 9.9624 28.379 14.9407z" fill="#8cc41d"/><path d="m282.8525 107.2367c-.2253-.9596-.4507-1.9192-.6757-2.8788-.1297-1.0305-.2212-2.0674-.395-3.0902-2.218-13.0508-5.1539-25.9863-3.7541-39.4388.7913-7.6034 1.6492-15.1698 3.1256-22.6662.0813-.0491.1361-.1191.1644-.2098 1.1573.1839 2.3147.3676 3.5152.5582-.5295 3.5083-1.1831 6.8498-1.5184 10.2231-1.8456 18.5618-1.4379 36.9653 3.8972 55.0361 3.4228 11.5932 9.1237 21.8933 17.0494 30.9894.3881.4454.7731.8937 1.1487 1.3493.0798.0967.1131.2318.166.3499-3.0313 1.6659-4.0218 1.536-5.8523-1.1474-2.1817-3.198-4.2234-6.4911-6.3337-9.738-.4494-.6917-.9327-1.3614-1.7948-1.9121-.0008.502-.0016 1.004-.0024 1.5059-.2149-.1306-.5436-.2106-.6277-.3994-1.7793-3.9936-3.5348-7.998-5.2866-12.0039-.9498-2.1723-1.8844-4.3513-2.8258-6.5273z" fill="#e4f0b4"/><path d="m285.2376 148.9193c6.3706-1.9319 12.7411-3.864 19.1117-5.796-.0877 1.2059-.1754 2.4121-.2633 3.6181-4.2267 7.9768-8.4636 15.9484-12.6693 23.9364-.6203 1.1781-1.3921 1.458-2.7825 1.5078-4.355.1561-8.6973.6651-13.0441 1.0366.1139-.5262.1198-1.1076.3586-1.568 1.263-2.4338 2.8431-4.7364 3.8316-7.2723 1.9844-5.0899 3.6565-10.3013 5.4573-15.4626z" fill="#b3d955"/><path d="m315.6564 383.9605c.2737-.5089.4488-1.114.8367-1.5114 2.9536-3.0253 5.1828-6.4554 6.8615-10.3791 1.8925-4.4234 4.1626-8.702 6.506-12.9116 2.7971-5.0247 3.4397-10.4212 3.4479-16.0146.0055-3.7682.1561-7.5361.2418-11.3041.4694 1.5161.9387 3.0323 1.5447 4.9893.3516-.9745.5546-1.5373.7573-2.0999.2528.6261.7141 1.248.7263 1.8787.1082 5.5402.072 11.0835.2018 16.623.2542 10.8543-2.0809 21.4036-3.6527 32.0443-2.5644.1517-5.155.6013-7.6871.3808-3.2857-.2861-6.525-1.1055-9.7842-1.6954z" fill="#b4da56"/><path d="m375.757 406.0739c.17-4.1078.7244-8.2433.4307-12.3178-.6348-8.8015-1.3307-17.6306-2.6963-26.3394-1.5302-9.758-3.9704-19.3467-7.7449-28.5502-2.0603-5.0236-3.7251-10.2093-5.78-15.2353-.9924-2.4273-2.4734-4.6548-3.7331-6.9729-.2881-.912-.5762-1.8241-.8624-2.7365.1804-.1088.3586-.2169.537-.325 5.9478 7.8047 9.5891 16.7914 13.0134 25.8491 4.638 12.2678 9.2076 24.5842 11.2606 37.6223 1.1619 7.3788 2.0455 14.8013 3.0807 22.2003.2072 1.4811.5329 2.9456.836 4.5925-2.8145.7465-5.5781 1.4798-8.3417 2.2129z" fill="#e7f2bb"/><path d="m300.6992 113.6714c-1.0205-4.8546-2.3642-9.6682-2.9871-14.5732-.9792-7.7126-1.8309-15.4763-2.0602-23.2384-.188-6.3655.4465-12.7747 1.0139-19.1379.5908-6.6239 1.0246-13.3317 2.4783-19.7886 1.3791-6.1253 3.9903-11.973 6.0578-17.9435.1703-.4921.3259-.9894.4885-1.4843 1.2227.4391 2.4453.8784 3.3629 1.2079-9.8213 31.038-12.378 62.4503-7.7291 94.4729-.2086.162-.4169.3235-.625.4851z" fill="#e7f2bb"/><path d="m333.1277 385.2751c1.5718-10.6407 3.9069-21.1899 3.6527-32.0443-.1298-5.5395-.0936-11.0828-.2018-16.623-.0122-.6306-.4734-1.2526-.7263-1.8787.0259-.3799.0515-.7598.0774-1.1396.0909-.0526.1816-.1053.2723-.158-.0968-.0488-.1938-.0975-.2908-.1463-.0129-.778-.0258-1.5561-.037-2.3344-.0465-.1749-.0948-.3495-.1431-.5243-.0169-.3022-.0338-.6044-.0508-.9067.119-1.7256.2379-3.4511.3569-5.1767.8457-.8836 1.6912-1.7673 2.5368-2.6511 2.3945 14.886 3.5752 29.8828 3.4983 44.9447-.0239 4.6653-.9889 9.3626-1.8789 13.9765-.8568 4.4404-2.3878 5.2693-7.0657 4.6619z" fill="#e7f2bb"/><path d="m333.225 168.0398c-2.4027-1.6638-4.7442-3.4255-7.2216-4.9691-4.0782-2.5412-8.2516-4.9286-12.3696-7.4062-1.8957-1.1406-3.7487-2.352-5.6344-3.5095-.6576-.4037-1.3553-.7421-2.0342-1.1104 1.0863-2.5725 2.1057-5.177 3.3192-7.6878.2212-.4575 1.3761-.9041 1.8586-.7206 2.422.9209 5.0912 1.6353 7.0725 3.1889 5.9686 4.6791 11.6727 9.6971 17.4232 14.6489.3619.3117.4873 1.2857.2933 1.7844-.6626 1.7028-1.5172 3.3308-2.2985 4.9874-.0797.1638-.1595.3274-.2391.4911-.0347.1131-.0912.2141-.1694.3029z" fill="#eaf5c0"/><path d="m273.0182 176.866c4.968-1.5134 10.0151-2.2722 15.5568-1.7698-.7943 1.2553-1.4287 2.2205-2.0262 3.208-3.8636 6.3841-7.755 12.7517-11.5486 19.1771-.8235 1.3949-1.6285 1.9508-3.3846 1.8744-2.3138-.1009-4.658.4677-6.9873.763-.7711.0978-1.5364.2406-2.3041.3625.295-.7874.542-1.5966.8921-2.3587 3.2573-7.09 6.5322-14.1721 9.8019-21.2565z" fill="#b3d955"/><path d="m250.7014 229.5335c-4.8668 1.9801-9.7337 3.9603-14.6006 5.9404l-.0486-.0754c1.7562-3.8562 3.4567-7.739 5.2832-11.5617 2.1677-4.5367 4.4094-9.0391 6.7037-13.5129.4218-.8226 1.1124-1.7472 1.91-2.0953 3.4077-1.4866 6.9019-2.7747 10.3649-4.1355-.6973 1.9508-1.3607 3.915-2.0985 5.8508-2.4904 6.5354-5.0072 13.0605-7.5141 19.5896z" fill="#8cc41d"/><path d="m250.7014 229.5335c2.5069-6.5291 5.0237-13.0542 7.5142-19.5894.7378-1.9358 1.4012-3.9 2.0985-5.8508 3.7104-1.3245 7.4882-2.2403 11.9065-2.0678-1.1581 2.1073-2.1841 3.8853-3.127 5.7061-3.4673 6.6959-6.8852 13.4176-10.3983 20.0892-.2819.5354-1.1128.9965-1.7483 1.0912-2.0669.3074-4.1616.4285-6.2456.6215z" fill="#b3d955"/><path d="m285.2376 148.9193c-1.8009 5.1613-3.473 10.3728-5.4572 15.4626-.9885 2.5359-2.5686 4.8385-3.8316 7.2723-.2389.4604-.2448 1.0419-.3586 1.568-3.3788.9926-6.7572 1.9845-10.5306 3.0925.7716-1.968 1.4167-3.7469 2.16-5.4837 2.2334-5.2191 4.5446-10.4054 6.7375-15.6414.6372-1.5215 1.6787-2.3011 3.1735-2.8637 2.7414-1.032 5.4089-2.2603 8.107-3.4066z" fill="#8cc41d"/><path d="m356.0577 256.223c2.3606-6.2212 4.7717-12.4237 7.0616-18.6707 1.2806-3.4932 2.3603-7.0602 3.5305-10.594 2.563 3.0474 5.1261 6.0948 7.6584 9.106-4.8687 8.0743-9.656 16.014-14.6105 24.2306-1.2842-1.4365-2.4621-2.7543-3.64-4.0719z" fill="#eaf5c0"/><path d="m361.6713 193.1433c1.2071 1.3996 2.794 2.619 3.5573 4.229 3.8555 8.1316 4.7631 16.6102 2.3433 25.3586-3.5726-3.1626-7.1681-6.3003-10.6869-9.5215-.4073-.3729-.6754-1.2899-.5264-1.8188 1.7171-6.0976 3.5273-12.169 5.3127-18.2473z" fill="#b4da56"/><path d="m273.0182 176.866c-3.2698 7.0844-6.5447 14.1665-9.802 21.2566-.3501.7621-.5971 1.5712-.8921 2.3587-.0001.0003.0215-.0318.0215-.0316-.1664.1002-.3329.2001-.4993.3-3.5761 1.4182-7.1521 2.8364-11.0354 4.3764 1.978-3.7953 3.8874-7.3206 5.668-10.9097 2.2348-4.5049 4.3401-9.0741 6.5692-13.5818.278-.5621.899-1.1472 1.4841-1.332 2.8055-.8857 5.6534-1.6373 8.486-2.4366z" fill="#8cc31d"/><path d="m358.3416 189.2206c-1.7566-1.307-3.5831-2.531-5.2572-3.9364-5.8126-4.8798-11.5723-9.8226-17.3523-14.7414.8748-2.3989 1.7495-4.7978 2.7333-7.4958.6683.5763 1.2349 1.0565 1.7921 1.547 5.9571 5.2434 11.8905 10.514 17.8921 15.7059.9122.789 1.2472 1.5352 1.06 2.6861-.337 2.0704-.5837 4.1556-.868 6.2346z" fill="#eaf5c0"/><path d="m281.1533 39.1626c-1.4764 7.4964-2.3343 15.0628-3.1256 22.6662-1.3998 13.4525 1.5361 26.388 3.7541 39.4388.1738 1.0228.2653 2.0597.395 3.0902-.6164-1.7339-1.397-3.4291-1.8174-5.2093-1.1433-4.8417-2.4305-9.678-3.1155-14.5926-1.0093-7.2401-1.9684-14.5344-2.1728-21.8271-.2315-8.2578.3943-16.5395.6467-24.8111.7811.1498 1.5628.2999 2.3442.4508.2916.0605.5834.1202.8752.18.2229.0495.4457.0991.6682.1493.5158.1554 1.0318.3102 1.5479.4648z" fill="#b4da56"/><path d="m299.7865 14.8935c-2.5297 3.7258-5.2677 7.3306-7.5251 11.2145-1.9099 3.2859-3.2635 6.8951-4.8634 10.361-2.0023-.7581-4.0044-1.5159-6.1633-2.3331 2.2473-5.6742 4.782-11.2078 8.1352-16.34.9644-1.4759 2.0729-2.863 2.963-4.3802.6024-1.0263 1.325-1.1713 2.2834-.7685 1.7321.728 3.4478 1.4954 5.1702 2.2463z" fill="#8cc31d"/><path d="m295.0195 294.4463c-9.4608-4.9782-18.9218-9.9561-28.379-14.9408-.1048-.0551-.1627-.1989-.2428-.3012 1.9438-1.616 3.8878-3.2321 5.6242-4.6755 8.0671 6.1006 16.2621 12.2979 24.543 18.5601-.3068.2693-.9262.8134-1.5454 1.3574z" fill="#b3d955"/><path d="m287.7491 36.6367c3.6334.6066 4.6362 2.0778 4.041 5.6134-1.8486 10.981-3.2376 22.0112-3.1766 33.1743.0056 1.0191.3222 2.0364.4943 3.0549-.3393 2.1913-.6788 4.3821-1.0181 6.5727-.1663.0122-.3325.0243-.4988.0363-.2462-2.3996-.7227-4.8016-.6988-7.1986.1007-10.1174.2382-20.2377.6169-30.3473.1078-2.8806 1.1902-5.7138 1.5648-8.6026.0905-.6987-.8554-1.5318-1.3247-2.3031z" fill="#8ec423"/><path d="m344.0639 284.7166c3.2002-7.1572 6.4205-14.3055 9.5785-21.4813.4684-1.064.643-2.2574.9536-3.3909.0612.024.1301.0367.182.0735 3.7717 2.6666 3.7399 2.6475 1.3913 6.4964-3.65 5.9816-7.2463 11.9964-10.8872 17.9837-.2502.4116-.4387 1.6769-1.2182.3186z" fill="#e4f0b4"/><path d="m282.8525 107.2367c.9414 2.176 1.876 4.355 2.826 6.5274 1.7518 4.0058 3.5073 8.0102 5.2866 12.0039.0841.1888.4128.2688.6277.3994l-.044-.0263c.0758.2947.1516.5895.2272.8841l-.0222-.029c.1029.2292.2056.4584.3083.6876 2.2965 3.831 4.5929 7.662 6.9241 11.5508-1.2947.9576-2.2486.6718-3.1096-.8781-1.6443-2.9608-3.428-5.8441-5.1533-8.7593.0905-.0418.1807-.0841.2707-.1263-.0898-.0404-.1797-.0807-.2696-.1211 0 0 .0062-.0614.0074-.0618-.0883-.1426-.1777-.2849-.2672-.4273 0 0-.0526-.0292-.0511-.0296-.2593-.5944-.5201-1.1885-.781-1.7825l.007-.0247c-.0919-.1502-.1846-.2999-.2774-.4497 0 0-.0334-.0076-.0325-.008-.2773-.4792-.5558-.9579-.8342-1.4367h-.0043c-.7064-1.9123-1.5031-3.7972-2.0997-5.7433-1.2359-4.0327-2.3656-8.0978-3.5389-12.1495z" fill="#b4da56"/><path d="m338.5739 321.692c-.8456.8838-1.6911 1.7675-2.5369 2.6511-.4819.2949-.9635.59-1.4453.8849-.9783-2.1327-1.9956-4.249-2.9027-6.4116-.1839-.4383-.1312-1.163.1192-1.5641 1.1376-1.8221 2.385-3.5756 3.7819-5.632 1.5803 3.3001 2.5283 6.6058 2.9838 10.0717z" fill="#8cc31d"/><path d="m289.4562 84.5285c.8016 2.3614 1.6034 4.7229 2.4052 7.0845.0251 3.9022.0527 7.8038.0715 11.7056.0017.3784-.0508.757-.0854 1.2349-2.2975-2.8-3.76-15.4658-2.3913-20.025z" fill="#8ec423"/><path d="m293.9597 102.1047c1.4099 2.6783 2.9075 5.3158 4.1838 8.0564.4678 1.0046.5912 2.2601.5494 3.3893-.0554 1.4959-.9627 2.3751-2.5698 2.3158-.7215-4.5873-1.4424-9.1745-2.1634-13.7615z" fill="#8ec423"/><path d="m321.3372 306.271c-1.6788-.5768-3.4259-1.0077-5.024-1.7566-5.4298-2.5444-10.8043-5.2069-16.2098-7.8035-.4042-.1942-.8872-.2244-1.3348-.331.3691-.6685.7396-1.3367 1.1634-2.1013 5.771 3.2226 11.3715 6.3472 16.9688 9.4772 1.4837.8296 2.9578 1.6762 4.4364 2.5152z" fill="#b3d955"/><path d="m330.2741 306.1883c.5146-.3369 1.2389-.555 1.509-1.0307 1.4081-2.481 2.6544-5.0537 4.0496-7.5425.9909-1.7676 2.132-3.4489 4.361-3.8532-1.1734 1.7161-2.441 3.3762-3.4973 5.1613-1.593 2.6927-3.0383 5.4725-4.6761 8.451-.6329-.43-1.1896-.8079-1.7462-1.1859z" fill="#8ec423"/><path d="m347.7909 305.545c-1.9456-1.6179-3.8912-3.236-5.9949-4.9855.3174-.6366.6061-1.2156.924-1.8531 2.0323 2.1242 3.8965 4.0728 5.7603 6.0215-.2299.2725-.4596.5448-.6894.8171z" fill="#b4da56"/><path d="m346.9647 307.6983c-.1887.1191-.3774.2382-.5663.3571-1.9402-1.7675-3.8802-3.5347-5.8201-5.302.2106-.2195.4213-.4394.6318-.6589 1.9183 1.8679 3.8365 3.7359 5.7546 5.6038z" fill="#8cc31d"/><path d="m347.7909 305.545c.2297-.2723.4595-.5446.6894-.8171 1.207 1.329 2.4137 2.6583 3.6196 3.988-.1477.0931-.2944.1859-.4411.2786-1.2894-1.1499-2.5786-2.2997-3.8679-3.4495z" fill="#e4f0b4"/><path d="m300.6992 113.6714c.2082-.1616.4164-.3231.625-.4851.493 2.3016.9858 4.6035 1.4783 6.9051-.7013-2.1403-1.4024-4.2801-2.1033-6.42z" fill="#e4f0b4"/><path d="m334.5916 325.228c.4818-.2949.9634-.59 1.4453-.8849-.1188 1.7256-.2378 3.4511-.3568 5.1767-.3627-1.4304-.7255-2.8611-1.0885-4.2918z" fill="#b4da56"/><path d="m304.0861 146.7414c.0879-1.206.1756-2.4122.2633-3.6181.4709-.0975.942-.1951 2.0526-.4252-.9616 1.6787-1.6388 2.861-2.3159 4.0433z" fill="#b4da56"/><path d="m355.0649 313.6676c-.8752-1.1844-1.7502-2.369-2.6253-3.5532.2357-.0583.4712-.1168.7068-.1753.8849 1.1245 1.77 2.2491 2.6549 3.3736-.2455.1183-.4909.2366-.7364.3549z" fill="#b4da56"/><path d="m353.1465 309.9391c-.2357.0585-.4712.1169-.7068.1753-.2596-.3741-.5194-.7477-.7801-1.1207.1459-.0919.2927-.1847.4403-.2778.3494.4075.698.8153 1.0466 1.2232z" fill="#e4f0b4"/><path d="m289.6326 127.0485c.2609.594.5217 1.1881.781 1.7825-.2613-.5939-.5212-1.1882-.781-1.7825z" fill="#8cc31d"/><path d="m288.4955 125.1293c.2784.4788.5569.9575.8342 1.4367-.2787-.4786-.5564-.9576-.8342-1.4367z" fill="#8cc31d"/><path d="m333.5634 331.8729c-.1195-.7072-.239-1.4145-.3584-2.1217.1194.7072.2389 1.4144.3584 2.1217z" fill="#b4da56"/><path d="m333.2146 329.7776c-.0264-.5487-.0528-1.0974-.0793-1.6464.0264.5487.0529 1.0976.0793 1.6464z" fill="#b4da56"/><path d="m281.1533 39.1626c-.5161-.1546-1.0321-.3094-1.5479-.4649.5711.0845 1.1419.1695 1.7125.2548-.0284.091-.0833.1611-.1646.2101z" fill="#8cc31d"/><path d="m278.9372 38.5485c-.2917-.0598-.5836-.1195-.8752-.18.2919.0596.5836.1198.8752.18z" fill="#8cc31d"/><path d="m291.776 127.0252c-.0757-.2947-.1514-.5895-.2272-.8841.0758.2946.1515.5894.2272.8841z" fill="#e4f0b4"/><path d="m236.1008 235.474c-.0771.0325-.1543.065-.2315.0975.0613-.0573.1225-.1145.1833-.1723-.0004-.0006.0482.0748.0482.0748z" fill="#8cc41d"/><path d="m355.0649 313.6676c.2454-.1183.4909-.2366.7365-.3549.0762.0799.1113.175.1058.2847-.1776.1074-.3558.2155-.5362.3243-.1034-.0843-.2047-.1692-.3061-.2541z" fill="#e7f2bb"/><path d="m261.8463 200.7497c.1664-.0999.3329-.1998.4993-.2999-.1664.0998-.3328.1998-.4993.2999z" fill="#b3d955"/><path d="m333.3944 167.7368c.0797-.1638.1595-.3274.2391-.4911-.0797.1637-.1594.3274-.2391.4911z" fill="#b4d955"/><path d="m335.731 330.4265c.0483.1747.0966.3494.1431.5243-.0488-.1745-.0959-.3494-.1431-.5243z" fill="#b4da56"/><path d="m335.9111 333.2852c.097.0488.1939.0975.2908.1463-.0907.0527-.1813.1054-.2723.158-.0826-.0968-.0886-.1984-.0185-.3043z" fill="#b4da56"/><path d="m289.3622 126.5741c.0928.1498.1855.2995.2774.4497-.093-.1496-.1851-.2996-.2774-.4497z" fill="#8cc31d"/><path d="m292.0622 127.6838c-.1027-.2292-.2055-.4584-.3083-.6876.1027.2292.2055.4584.3083.6876z" fill="#e4f0b4"/><path d="m290.4647 128.8606c.0895.1424.1789.2847.2672.4273-.0899-.1421-.1786-.2847-.2672-.4273z" fill="#8cc31d"/><path d="m290.7245 129.3498c.0899.0404.1797.0807.2696.1211-.09.0423-.1801.0845-.2707.1263-.0306-.0828-.03-.1652.0011-.2474z" fill="#8cc31d"/><path d="m246.7011 353.2342c-.9449 4.3994-3.6339 7.8199-6.4909 11.0694-3.2878 3.7396-6.8216 7.2617-10.1835 10.9377-.8249.9019-1.4587.868-2.5297.4163-8.6521-3.6495-15.4931-9.7628-22.046-16.2213-3.3552-3.3069-6.3997-6.9281-9.6029-10.3902-.931-1.0062-1.0051-1.7987-.1298-3.0442 6.3798-9.0782 13.9006-17.1118 22.5096-24.0471 2.8936-2.3309 6.5487-3.7354 9.9243-5.4266.4533-.2271 1.6165.1365 1.9351.5895 6.2227 8.8447 12.7293 17.5612 16.1291 27.998.8222 2.5238.7186 5.3491 1.0408 8.0359-.1854.0275-.3708.0551-.5561.0826z" fill="#b4d955"/><path d="m192.7255 344.9553c-1.4982-2.057-2.9771-3.8024-4.1428-5.7365-5.722-9.4947-11.3788-19.029-16.9789-28.5961-.3019-.5158-.1505-1.6722.2449-2.1658 8.2903-10.3449 18.5587-18.291 30.1696-24.5616.4482-.2421 1.5007-.1285 1.7962.2212 7.9998 9.4659 16.5078 18.5223 23.431 28.8609.0648.0966.0533.2443.0518.237-14.188 6.3904-23.7051 17.8884-32.9654 29.6732-.4717.6004-.937 1.2059-1.6064 2.0677z" fill="#b4d955"/><path d="m169.2211 311.6854c4.174 7.0642 8.1579 13.9937 12.3331 20.8061 2.7062 4.4155 5.6251 8.7065 8.5953 12.9508.82 1.1718 1.0649 1.8663.2243 3.1972-5.6743 8.9838-11.2258 18.0451-16.9682 27.3254-.6482-.6266-1.3242-1.1858-1.8891-1.8407-7.4976-8.6914-15.3154-17.1229-21.7166-26.7075-.5643-.8448-1.011-1.4578-.3376-2.598 5.4027-9.1477 10.6924-18.3621 16.0655-27.5276 1.1436-1.9509 2.4866-3.7849 3.6933-5.6057z" fill="#b3d955"/><path d="m227.6316 378.1941c-5.3543 4.728-10.4844 9.2897-15.655 13.8053-1.726 1.5075-3.6461 2.8004-5.3118 4.3674-1.6147 1.5188-3.2593 1.7435-5.1747.8037-2.1698-1.0647-4.4663-1.9287-6.4929-3.2179-6.5927-4.1933-12.8496-8.84-18.3806-14.4049-.7727-.7774-1.1482-1.3796-.4445-2.5044 5.3878-8.6101 10.7038-17.2654 16.054-25.8991.2661-.4293.6424-.7904 1.0365-1.2669 9.9573 11.1179 19.866 22.1161 34.369 28.3168z" fill="#b3d955"/><path d="m186.9157 262.8925c4.6848 6.0497 9.3697 12.0995 14.134 18.2516-11.8154 6.6297-22.5888 14.5274-31.2266 25.3007-.5119-.6028-.8839-.8886-1.0557-1.2656-2.6896-5.9057-5.3558-11.8223-8.0145-17.7419-.1025-.2279-.0774-.513-.1113-.7713.5208-.4006 1.1555-.7134 1.5427-1.2166 2.2675-2.9464 4.3208-6.0737 6.7582-8.868 1.7852-2.0464 3.8397-4.0221 6.1455-5.414 4.1418-2.5005 9.024-3.8704 11.8277-8.2749z" fill="#b3d955"/><path d="m185.1459 237.6156c-1.0227-1.16-2.0454-2.3202-3.0681-3.4802 1.8923 6.8195 6.3187 12.3456 9.3909 18.552-.1829.1156-.3657.2312-.5486.3468-4.4589-6.8983-8.9177-13.7966-13.3765-20.6949 2.2011 7.8263 7.0807 14.1671 11.5335 20.7275-1.9633 1.294-2.5108 1.1916-3.6842-1.0019-3.0242-5.6534-6.1826-11.2484-8.9087-17.0449-5.7579-12.2438-10.5687-24.8562-13.5656-38.091-2.0699-9.1413-4.1361-18.3063-3.9393-27.7552.0607-2.9204.6859-5.8342 1.1492-8.7355.0684-.4284.6258-1.0301 1.0387-1.1057 1.3427-.246 2.7232-.2851 4.0895-.4039.2703 3.1807.2857 6.4083.8621 9.5324 1.281 6.9435 2.8854 13.8267 4.2742 20.7514.8084 4.0301 1.2566 8.1407 2.2205 12.1295 1.4256 5.9002 3.054 11.7579 4.8028 17.5714 1.788 5.9441 3.6247 11.8959 7.2224 17.0944.3056.4415.3445 1.0674.5072 1.6078z" fill="#8cc31d"/><path d="m144.4791 340.3506c-5.4572-6.2175-10.3754-12.8172-14.1445-20.2095-.2909-.5706-.2904-1.5139-.028-2.1086 3.9541-8.9648 9.2688-17.1381 14.9066-25.1004 3.0898-4.364 6.4278-8.5522 10.0549-13.35 1.6095 3.8448 2.9786 7.1152 4.3475 10.3863-.2735.1722-.6471.2794-.8049.5251-1.9752 3.0774-4.2188 6.0309-5.7906 9.3058-1.7364 3.6181-2.9858 7.4921-4.2036 11.332-1.9894 6.2725-3.7749 12.6077-3.9782 19.2606-.1016 3.3202-.2384 6.6393-.3592 9.9587z" fill="#8cc41d"/><path d="m135.738 367.0421c-1.4275-1.4566-2.522-2.5501-3.5907-3.6684-3.1662-3.3135-6.1737-6.7975-9.5325-9.9019-2.3741-2.1942-2.5047-4.6263-2.0097-7.424 1.2612-7.1261 3.5563-13.9284 6.3783-20.5694.5274-1.2409 1.0243-2.4947 1.6812-4.0992.6572 1.1296 1.1724 1.9196 1.5947 2.7563 3.6355 7.2014 8.9483 13.2013 13.9705 19.3983 1.2401 1.5302 1.5415 2.6162.3785 4.4318-3.7079 5.7891-7.124 11.7567-8.8703 19.0765z" fill="#8cc41d"/><path d="m187.9451 486.1381c-3.9833.9525-7.9666 1.9051-11.9497 2.8571-.0928-.8972-.0844-1.8186-.2948-2.6867-2.1821-9.0046-3.629-18.1068-3.4193-27.3983.19-8.4243.403-16.8209 3.2006-24.9664 1.8441-5.3699 3.0738-10.9545 4.482-16.4676.3726-1.4589 1.0598-1.8387 2.3876-1.3486-.0473.1801-.0946.3603-.1419.5404-.1942.3332-.4752.6434-.5699 1.0028-2.0234 7.6734-2.2301 15.4508-1.2487 23.2846.0471.3766.4308.7111.6577 1.0652.2634 2.6641.4324 5.3416.807 7.99 1.5672 11.0826 2.7569 22.2306 5.6365 33.0917.2607.9828.3069 2.0225.4529 3.0358z" fill="#b4d955"/><path d="m144.4791 340.3506c.1208-3.3194.2576-6.6385.3592-9.9586.2033-6.6529 1.9888-12.988 3.9782-19.2606 1.2177-3.8399 2.4672-7.714 4.2036-11.332 1.5718-3.2749 3.8154-6.2284 5.7906-9.3058.1577-.2457.5314-.3529.8049-.5251 2.642 5.8401 5.305 11.6715 7.8895 17.5377.2365.5367.221 1.4741-.0999 1.9243-7.3179 10.2629-13.2468 21.345-19.2253 32.3991-.2759.5099-.5998.9938-1.1036 1.8226-.9462-1.2028-1.7717-2.2522-2.5972-3.3016z" fill="#b3d955"/><path d="m169.3028 383.3807c-1.5821 2.8518-3.1642 5.7037-4.999 9.011-9.2407-8.1348-18.2693-16.0829-27.1403-23.8921 2.2396-6.967 5.0906-13.0043 9.216-18.3975.3127.5264.6675 1.0329.9296 1.5834.6432 1.3512 1.1087 2.8057 1.8867 4.0703 2.327 3.7821 4.6812 7.5539 7.1929 11.2143 2.3999 3.4975 4.9458 6.9009 7.5523 10.2483 1.6702 2.1452 3.5667 4.1143 5.3618 6.1623z" fill="#8cc41d"/><path d="m182.3515 416.1275c-1.3278-.4901-2.0151-.1102-2.3876 1.3486-1.4082 5.5131-2.6379 11.0977-4.482 16.4676-2.7975 8.1455-3.0105 16.5422-3.2006 24.9664-.2096 9.2915 1.2373 18.3937 3.4193 27.3983.2104.8682.202 1.7896.2948 2.6867-2.1559.7261-4.3115 1.4519-6.7846 2.2845-4.5979-27.8943-4.1068-54.9729 8.6437-81.024 2.449 1.3465 4.6003 2.5294 6.7905 3.7336-.2122.676-.4229 1.3471-.634 2.0184-.5534.0399-1.1064.0799-1.6595.1199z" fill="#8cc31d"/><path d="m255.9209 377.0326c-1.4175 1.691-2.6861 3.5399-4.2797 5.0443-5.4204 5.1175-10.836 10.255-16.5276 15.0603-1.5096 1.2744-3.962 1.5998-6.0507 1.9884-6.0292 1.1218-12.1057.7375-18.169.1918-.1629-.0146-.3125-.1777-.6675-.3915 2.3489-1.9102 4.6864-3.6548 6.8448-5.5983 4.664-4.1994 9.2279-8.5097 13.8581-12.747.494-.4521 1.1549-1.028 1.7392-1.0289 7.8253-.0113 15.4972-1.2878 23.1609-2.662z" fill="#8cc31d"/><path d="m208.733 483.3757c-2.7722 1.9865-4.0119 2.0297-5.9984-.4826-1.5244-1.9279-2.788-4.1241-3.835-6.357-6.1305-13.0746-8.5316-27.0696-9.8497-41.2932-.5856-6.3199-.8662-12.6681-1.2762-19.004-.0155-.2397.063-.4853.134-.9821 1.4009.4514 2.6783.8631 3.7796 1.2178-2.0456 6.0228-1.543 12.0548-.8222 18.0482.5038 4.1902 1.6002 8.2581 4.3666 11.6582-.8621-4.856-2.066-9.6827-2.4896-14.5769-.4187-4.8372-.0491-9.7428-.0252-14.6184.2378-.0728.4757-.1455.7137-.2184.2106.5334.5781 1.0586.606 1.6013.1576 3.0616.0326 6.1532.4201 9.1812.2027 1.5831 1.2573 3.0571 1.9265 4.5799.0291 1.5663.0587 3.1332.0883 4.7002-.0861.3121-.2562.627-.2461.9361.2831 8.6172 1.8286 17.0619 4.4859 25.2076 2.2622 6.9351 5.3174 13.6114 8.0217 20.4021z" fill="#8ec423"/><path d="m240.0271 317.2244c.2119.0632.4238.1265.6357.1895.1517.0498.3033.0996.4549.1495 3.2782 1.2633 6.5704 2.4924 9.8244 3.8154.7538.3065 1.5864.7903 2.0286 1.4351 5.5578 8.1064 10.1064 16.7459 12.6931 26.2558.7473 2.7473.4301 5.7843.6006 8.6886-2.1489 1.5963-4.2975 3.1927-6.446 4.789-.0322-1.1686.1609-2.3989-.1387-3.4943-.9151-3.3445-1.838-6.7073-3.0842-9.9372-4.1339-10.7152-9.6338-20.7306-15.9198-30.3265-.3039-.464-.4363-1.0408-.6486-1.5649z" fill="#eaf5c0"/><path d="m185.1459 237.6156c-.1627-.5404-.2016-1.1663-.5071-1.6079-3.5977-5.1985-5.4344-11.1503-7.2224-17.0944-1.7488-5.8136-3.3772-11.6712-4.8028-17.5714-.9639-3.9888-1.4122-8.0994-2.2205-12.1295-1.3888-6.9246-2.9932-13.8078-4.2742-20.7514-.5765-3.1241-.5919-6.3517-.8621-9.5324 1.1227-.1499 2.2458-.2999 3.3689-.4497.3844 2.7105.6736 5.4386 1.172 8.1278 1.1796 6.3644 2.4514 12.7119 3.6994 19.0636 1.0565 5.3764 1.9192 10.8035 3.2674 16.1064 1.042 4.0991 2.7739 8.0181 4.0682 12.0591 1.2743 3.9783 2.3696 8.014 3.5933 12.0094.0978.3191.5829.5196.888.7752 1.9821 5.6067 3.937 11.2233 5.96 16.8151.7719 2.1334 1.6996 4.2103 2.5562 6.3134-.3289.2822-.6576.5639-.9863.8455-.0797-.0905-.1102-.1956-.0905-.3156-.0329-.4242.07-.9272-.1225-1.2587-1.5573-2.6834-3.157-5.3427-4.7846-7.9841-.1756-.285-.6111-.41-.9259-.6093-.5915-.937-1.183-1.874-1.7745-2.8111z" fill="#b4da56"/><path d="m240.0271 317.2244c.2123.5241.3447 1.1009.6487 1.5649 6.2861 9.5959 11.7859 19.6113 15.9198 30.3265 1.2461 3.2298 2.169 6.5927 3.0842 9.9372.2996 1.0954.1065 2.3257.1388 3.4938-.0524.2409-.105.4822-.1577.7236-.7888.4461-1.589.8734-2.3644 1.3415-3.2689 1.9731-6.3959 4.2462-9.8344 5.8542-3.1375 1.4672-6.6098 2.2185-9.9345 3.2855 2.7804-3.2271 5.6263-6.4006 8.3282-9.6922 6.2377-7.5994 7.188-15.9959 2.6198-24.5812-3.7467-7.0416-8.2215-13.6958-12.3789-20.5186-.5051-.8289-1.0435-1.6376-1.9273-3.0204 2.3021.5048 4.0799.895 5.8577 1.2852z" fill="#b3d955"/><path d="m193.0492 219.1312c1.7625 8.1036 3.5164 16.209 5.2938 24.3094.4583 2.0891.9908 4.162 1.4893 6.2423-.6993.0031-1.3988.0062-2.0982.0091-5.4571-12.8739-9.9805-26.0535-12.6797-39.7976-1.7657-8.9908-3.3272-18.0217-4.9709-27.0362-.1267-.6954-.1808-1.4043-.2884-2.2653 1.6878-.2731 3.2218-.5212 4.756-.7697.0236.7768-.0534 1.5724.0858 2.3282 1.3687 7.4315 2.6745 14.8768 4.2046 22.2754.9363 4.528 2.2182 8.9853 3.3886 13.4628.1189.4542.539.8296.8191 1.2416z" fill="#8ec423"/><path d="m190.4736 410.219c-.7076.088-1.5132.4415-2.1077.2225-5.4949-2.0234-10.1082-5.4522-14.4311-9.3097-2.1977-1.961-4.3387-3.9867-6.5621-5.9179-.9291-.8071-1.2768-1.4771-.4722-2.632 1.4532-2.0859 2.759-4.2745 4.1272-6.4199.5735.4155 1.2216.7581 1.7063 1.2589 2.1743 2.2463 4.075 4.8253 6.5035 6.7405 3.1033 2.4475 6.6137 4.3802 9.9588 6.519 1.579 1.0098 3.4178 1.7571 3.7584 3.9417-1.8335 1.4195-2.7686 3.2371-2.4811 5.5969z" fill="#8cc41d"/><path d="m182.3515 416.1275c.5531-.0399 1.1061-.0799 1.6595-.1198.1017 12.7925 1.6316 25.44 3.5522 38.072.694 4.5652.3214 9.2821.6893 13.9096.4721 5.9376 1.2003 11.855 1.8435 18.0258-.6607.0374-1.4056.0798-2.1508.1226-.1461-1.0129-.1923-2.0526-.4529-3.0355-2.8796-10.8611-4.0693-22.0092-5.6365-33.0917-.3746-2.6484-.5436-5.3259-.807-7.9901.0785-.5836.2095-1.1655.2271-1.7509.2248-7.463-.266-14.9716 1.478-22.3398.0846-.3577-.351-.8386-.5443-1.262.0473-.18.0945-.3601.1419-.5402z" fill="#e4f0b4"/><path d="m208.733 483.3757c-2.7043-6.7908-5.7595-13.467-8.0218-20.4019-2.6572-8.1457-4.2027-16.5903-4.4859-25.2076-.0101-.309.16-.624.2448-.9356.2878.6351.6419 1.2488.856 1.9079 1.1915 3.6697 2.1051 7.4511 3.5687 11.0069 3.166 7.6914 6.7539 15.1761 12.3039 21.5369 1.5317 1.7555 2.8245 3.7194 4.2269 5.5877-2.8975 2.1686-5.795 4.3371-8.6926 6.5057z" fill="#b4da56"/><path d="m193.295 412.0302c3.8495-2.9886 7.6301-5.4993 10.8791-8.5723 2.9279-2.7692 5.9404-3.0043 9.6149-2.3521 5.0971.9048 10.2726 1.1339 15.4155.0597.1663-.0346.3576.0504.9468.1463-5.3003 4.4428-10.6471 8.1912-16.9223 10.4075-6.4426 2.2754-12.9761 2.0309-19.934.3109z" fill="#8cc31d"/><path d="m239.7894 314.011c-.362-.0908-.7239-.1815-1.086-.272-.1495-.0373-.2991-.0744-.4486-.1117-.5913-.1713-1.1827-.3424-1.7742-.5132-2.4042-4.0413-4.714-8.1429-7.2353-12.1101-3.2717-5.1479-6.7186-10.1842-10.0712-15.281-.4798-.7294-.854-1.5281-1.277-2.2947 2.7987 1.0941 5.612 2.1535 8.3843 3.3111.5629.2351 1.0621.7739 1.4371 1.2853 6.8631 9.3584 13.7037 18.7332 20.5386 28.1122.1356.186.1449.4643.213.6994l.0224-.0134c-2.7576-.8972-5.5151-1.7943-8.2727-2.6914-.1433-.0401-.2868-.0804-.4304-.1205z" fill="#e7f2bb"/><path d="m186.9157 262.8925c-2.8037 4.4044-7.6859 5.7744-11.8278 8.2747-2.3058 1.3919-4.3603 3.3676-6.1455 5.414-2.4374 2.7943-4.4907 5.9216-6.7582 8.868-.3872.5032-1.0219.816-1.5427 1.2166-1.2355-2.5879-2.534-5.1493-3.641-7.7908-.1769-.4219.3755-1.3175.8069-1.8014 6.8726-7.709 15.2904-13.0758 25.0444-16.3906.6132-.2084 1.2369-.3857 1.9842-.6175.6985.9497 1.3891 1.8884 2.0797 2.827z" fill="#8cc41d"/><path d="m192.9546 404.622c-.3405-2.1846-2.1794-2.9319-3.7584-3.9417-3.345-2.1389-6.8554-4.0716-9.9588-6.519-2.4284-1.9152-4.3292-4.4942-6.5035-6.7405-.4847-.5008-1.1328-.8434-1.7063-1.2589 1.0081-1.8895 2.0168-3.7787 3.1107-5.8275 8.6285 7.7771 17.2958 15.0769 28.2587 19.4826-1.99 1.6666-3.9225 3.2852-5.8553 4.9034-.9618.0292-1.9237.0586-2.8855.0881-.2338-.0621-.4677-.1244-.7016-.1865z" fill="#b3d955"/><path d="m216.1888 279.6348c-.9816-.2564-1.9632-.5128-2.9447-.7692-.5769-.8501-.9918-1.9031-1.7588-2.5145-3.1062-2.4771-6.294-4.8549-9.5018-7.2008-4.1461-3.0323-7.9622-6.3392-10.0616-11.2001 1.5725-.4308 3.13-.9363 4.7247-1.2555.6404-.1282 1.4972-.0563 2.0247.2833 2.3587 1.518 5.0094 2.8183 6.87 4.8304 5.8274 6.3018 11.3465 12.8885 16.9771 19.3719.116.1336.1352.3513.1996.5298l-.1486.0833c-1.5777-.5557-3.1554-1.1112-4.7331-1.6667-.1471-.0475-.2943-.0952-.4414-.1427-.2328-.0629-.4655-.1258-.6984-.1884-.1692-.0536-.3385-.1072-.5077-.1608z" fill="#e7f2bb"/><path d="m217.8972 283.4284c.423.7666.7972 1.5653 1.277 2.2947 3.3525 5.0968 6.7995 10.1331 10.0712 15.281 2.5212 3.9672 4.8311 8.0688 7.2353 12.1101-3.109.365-5.1329-.8164-7.1253-3.4364-6.2924-8.2743-12.9975-16.2346-19.5459-24.3142-.8179-1.009-1.6531-2.0039-2.7385-3.3179 3.6781-.8161 6.9201-.4371 10.1035.8638.2428.1896.4854.3792.7281.5687z" fill="#b3d955"/><path d="m193.0492 219.1312c-.2802-.412-.7002-.7874-.819-1.2416-1.1703-4.4776-2.4523-8.9349-3.3886-13.4628-1.5301-7.3986-2.8359-14.8439-4.2046-22.2754-.1392-.7558-.0622-1.5514-.0858-2.3282 2.1443-.2731 4.289-.5464 6.4339-.8194.5926 5.7598 1.0635 11.5347 1.8042 17.2749 1.2523 9.7042 2.6823 19.3854 4.0202 29.0786.2465 1.7861.4103 3.5836.6123 5.3759-.3055-.8357-.7063-1.65-.9008-2.5108-1.0105-4.4729-1.9519-8.9613-2.9622-13.4341-.1509-.6677-.5393-1.2818-.8177-1.9206-.1833.0647-.3667.1294-.55.1941.286 2.0231.5721 4.0463.8581 6.0694z" fill="#b3d955"/><path d="m217.4257 476.87c-1.4024-1.8683-2.6952-3.8322-4.2269-5.5877-5.55-6.3608-9.1379-13.8455-12.3039-21.5369-1.4637-3.5558-2.3772-7.3372-3.5687-11.0069-.2141-.6591-.5681-1.2728-.856-1.9079-.0282-1.5674-.0578-3.1343-.0869-4.7006-.3016-4.802-1.1897-9.5986-.3097-14.4126.1816-.1165.3632-.2331.5448-.3498.3766.4645 1.0753.9237 1.0828 1.3941.2244 13.9002 4.4569 26.6895 11.0114 38.7445 2.8681 5.2751 6.3719 10.2065 9.6273 15.268 1.4674 2.2814 1.3598 2.9413-.9142 4.0958z" fill="#e4f0b4"/><path d="m185.3138 226.6205c-.3051-.2556-.7903-.4561-.888-.7752-1.2237-3.9954-2.319-8.031-3.5933-12.0094-1.2943-4.041-3.0262-7.9601-4.0682-12.0591-1.3482-5.3029-2.2109-10.73-3.2674-16.1064-1.248-6.3517-2.5198-12.6991-3.6994-19.0636-.4984-2.6893-.7876-5.4173-1.172-8.1278 1.1472-.1978 2.2944-.3957 3.4908-.6018 4.0395 23.1028 6.5393 46.324 13.1975 68.7433z" fill="#e4f0b4"/><path d="m169.3028 383.3807c-1.7951-2.0481-3.6916-4.0171-5.3618-6.1623-2.6065-3.3474-5.1525-6.7508-7.5523-10.2483-2.5117-3.6603-4.8658-7.4322-7.1929-11.2143-.778-1.2645-1.2435-2.7191-1.8867-4.0703-.2621-.5506-.617-1.057-.9296-1.5834.3124-.6007.6248-1.2016 1.0967-2.1093 1.8567 2.5769 3.3642 4.9479 5.1459 7.0911 5.9826 7.1961 12.0131 14.3541 18.1482 21.42 1.2113 1.395 1.4476 2.4131.3421 3.867-.7044.9264-1.2132 2.0014-1.8096 3.0098z" fill="#b3d955"/><path d="m237.5276 373.7515c3.3246-1.0669 6.7969-1.8183 9.9345-3.2855 3.4385-1.608 6.5656-3.8811 9.8344-5.8542.7755-.4681 1.5757-.8954 2.3646-1.3416-.3223 2.1067-.6178 4.2179-.9764 6.3183-.2434 1.4253-.5757 2.8354-.8682 4.2522-7.4841 2.3068-15.2117 2.89-23.6158 3.4168 1.3617-1.435 2.3443-2.4706 3.3269-3.506z" fill="#8cc41d"/><path d="m191.9219 257.9503c2.0994 4.8609 5.9155 8.1678 10.0616 11.2001 3.2078 2.3459 6.3956 4.7237 9.5018 7.2008.7669.6115 1.1819 1.6645 1.7588 2.5145-2.5168.2114-5.0312.4757-7.5525.5913-.5331.0244-1.2668-.3545-1.6114-.785-4.7009-5.8737-9.3716-11.7721-13.9961-17.7062-1.2049-1.5461-.56-2.5276 1.8378-3.0155z" fill="#b3d955"/><path d="m197.4218 230.7332c-.202-1.7923-.3658-3.5898-.6123-5.3759-1.3379-9.6932-2.7679-19.3745-4.0202-29.0786-.7408-5.7402-1.2117-11.5151-1.8042-17.2749.8066-.2197 1.6135-.4388 2.5798-.7015 1.3093 19.856 3.758 39.3981 6.5516 58.9007-.369-.5769-.7869-1.1285-1.094-1.7362-.3952-.7822-.7017-1.6093-1.0466-2.417-.0453-.0935-.0614-.1918-.048-.2952.0423-.1387.0845-.2768.1269-.4151-.1226-.1624-.2452-.3247-.3676-.4871-.0486-.076-.0606-.1576-.0358-.245-.0652-.2-.131-.3994-.1967-.5987-.0402-.0884-.0512-.1802-.0329-.2755z" fill="#e4f0b4"/><path d="m257.8165 373.8407c.2925-1.4169.6247-2.8269.8682-4.2522.3586-2.1004.6541-4.2116.9764-6.3183.0526-.2413.1052-.4826.1576-.7234 2.1484-1.5958 4.2969-3.1921 6.4458-4.7885-.7601 2.5408-1.2997 5.1769-2.3429 7.5959-1.0544 2.4449-2.5352 4.7214-3.986 6.9706-.4376.6786-1.3981 1.02-2.1191 1.5159z" fill="#b4da56"/><path d="m197.976 233.0498c.3448.8077.6513 1.6348 1.0466 2.417.3071.6077.7251 1.1593 1.094 1.7362.5759 3.2309 1.1517 6.4616 1.7264 9.6918-.2653-.0767-.5296-.1532-.794-.2295-1.0538-4.0984-2.119-8.194-3.144-12.2996-.1018-.4072.0415-.8757.071-1.3159z" fill="#b4da56"/><path d="m192.9546 404.622c.2339.0621.4678.1243.7017.1868.2701.6135.5403 1.2263.8104 1.8392-1.331 1.1902-2.6621 2.3806-3.9931 3.5708-.2875-2.3596.6476-4.1772 2.481-5.5968z" fill="#8cc31d"/><path d="m186.9204 240.4268c.3148.1993.7503.3243.9259.6093 1.6276 2.6414 3.2273 5.3007 4.7846 7.9841.1925.3316.0896.8345.1225 1.2587-1.9453-3.2834-3.8892-6.5678-5.833-9.8521z" fill="#8cc31d"/><path d="m201.049 246.6654c.2644.0763.5287.1528.794.2295.8655 2.2105 1.5113 4.4509 1.3152 6.809-.2072.0373-.4144.0746-.6215.1119-.496-2.3835-.9918-4.7669-1.4877-7.1504z" fill="#8cc31d"/><path d="m197.7342 249.692c.6994-.003 1.3989-.006 2.0982-.0091.342 1.132.6843 2.2641 1.0889 3.6027-2.1467-.5881-2.8215-1.9642-3.1871-3.5936z" fill="#b4da56"/><path d="m194.4667 406.6481c-.2701-.6129-.5403-1.2257-.8104-1.8392.9618-.0299 1.9237-.0593 2.8855-.0885-.6917.6428-1.3833 1.2852-2.0751 1.9277z" fill="#8cc41d"/><path d="m192.8438 250.5946c.3288-.2817.6575-.5633.9863-.8455.5723.7361 1.1446 1.4727 1.7669 2.2738-1.9029.9727-2.5394.1281-2.7532-1.4283z" fill="#e4f0b4"/><path d="m203.1158 254.6467c.0247-.0358.0494-.0717.0739-.1076.0208.063.0416.1261.0624.1891-.0453-.0272-.0908-.0543-.1363-.0815z" fill="#8cc31d"/><path d="m217.9026 283.4781c-.2428-.1895-.4854-.379-.7281-.5687.2426.1896.4854.3792.7281.5687z" fill="#e7f2bb"/><path d="m193.3304 474.3757c-.1078.0272-.198.0648-.2881.0648-.0311-.0001-.0622-.0935-.0932-.1443.0899-.024.1797-.0638.2697-.0642.0351-.0004.0707.088.1116.1437z" fill="#fefefe"/><path d="m198.0548 232.3395c-.0424.1383-.0846.2764-.1269.4151-.0932-.1685-.1863-.3372-.2795-.5059.1355.0303.271.0605.4064.0908z" fill="#b4da56"/><path d="m198.0548 232.3395c-.1355-.0303-.2709-.0605-.4064-.0908.0132-.132.0262-.2638.0389-.3961.1224.1622.245.3245.3675.4869z" fill="#b3d955"/><path d="m197.4547 231.0086c.0657.1993.1316.3988.1967.5987-.0659-.1992-.1313-.399-.1967-.5987z" fill="#b3d955"/><path d="m216.1888 279.6348c.1693.0535.3385.1072.5079.1607-.1692-.0538-.3387-.1073-.5079-.1607z" fill="#b3d955"/><path d="m217.3951 279.9838c.1471.0476.2943.0954.4414.1428-.1472-.0476-.2943-.0952-.4414-.1428z" fill="#b3d955"/><path d="m222.7182 281.7101c.0774.0845.1549.169.2323.2535-.0551.0264-.1407.0893-.1599.0731-.0826-.0694-.1457-.1619-.2184-.2447-.0027.0014.146-.0819.146-.0819z" fill="#e7f2bb"/><path d="m255.8295 376.8896c.0919-.025.1836-.0499.2755-.0749-.0618.0719-.1237.1439-.1847.2169z" fill="#8cc31d"/><path d="m241.1178 317.5634c-.1517-.0499-.3033-.0998-.4549-.1495.1516.05.3032.0998.4549.1495z" fill="#b3d955"/><path d="m238.2548 313.6273c.1496.0373.2991.0744.4486.1117-.1494-.0372-.299-.0745-.4486-.1117z" fill="#b3d955"/><path d="m248.4703 316.8363c.0535.0232.1172.0359.1559.0742.0182.0178-.0117.0846-.0197.1293-.0381-.0723-.076-.1446-.1139-.2169z" fill="#e7f2bb"/><path d="m239.7894 314.011c.1435.0401.287.0804.4305.1205-.1434-.0401-.2869-.0804-.4305-.1205z" fill="#b3d955"/><path d="m182.2096 416.6679c.1933.4234.6289.9042.5443 1.262-1.744 7.3682-1.2533 14.8768-1.478 22.3398-.0176.5853-.1486 1.1673-.2271 1.7509-.2269-.354-.6107-.6885-.6577-1.0651-.9814-7.8338-.7747-15.6112 1.2487-23.2846.0946-.3597.3756-.6699.5698-1.003z" fill="#4f7703"/></g></svg>